<?xml version="1.0" encoding="UTF-8" standalone="no"?>
<!-- Created with Inkscape (http://www.inkscape.org/) -->
<svg xmlns:svg="http://www.w3.org/2000/svg" xmlns="http://www.w3.org/2000/svg" version="1.0" width="510.00201" height="510.00201" id="svg2">
  <defs id="defs4"/>
  <g transform="translate(-117.49899,-154.87399)" id="layer1">
    <path d="M 0 0 A 0 0 0 1 1  0,0 A 0 0 0 1 1  0 0 z" style="fill:#ff0000;fill-opacity:1;stroke:none;stroke-width:2;stroke-miterlimit:4;stroke-dasharray:none;stroke-opacity:1" id="path3232"/>
    <g id="g20059">
      <path d="M 367.27183,157.42913 C 227.92171,160.31508 117.16818,275.75305 120.05413,415.10317 C 122.94008,554.45329 238.37806,665.20681 377.72817,662.32087 C 517.07829,659.43492 627.83182,543.99694 624.94587,404.64683 C 622.05992,265.29671 506.62195,154.54318 367.27183,157.42913 z M 369.03234,242.43641 C 461.45844,240.52226 538.02444,313.98124 539.93859,406.40734 C 541.85274,498.83343 468.39376,575.39944 375.96766,577.31359 C 283.54157,579.22773 206.97556,505.76876 205.06141,413.34266 C 203.14726,320.91656 276.60624,244.35056 369.03234,242.43641 z " style="fill:none;fill-opacity:0.34871796;stroke:#0000c0;stroke-width:5;stroke-miterlimit:4;stroke-opacity:1" id="path6254"/>
      <path d="M 492,383.86218 C 492,500.05818 413.152,594.36218 316,594.36218 C 218.848,594.36218 140,500.05818 140,383.86218 C 140,267.66618 218.848,173.36218 316,173.36218 C 413.152,173.36218 492,267.66618 492,383.86218 z " transform="matrix(-1.0509111,2.176443e-2,-1.8197338e-2,-0.8786715,709.33226,752.82245)" style="fill:none;fill-opacity:1;stroke:none;stroke-width:2;stroke-miterlimit:4;stroke-opacity:1" id="path2248"/>
      <path d="M 341.0625,175.0625 L 334.53125,176.1875 L 335.65625,182.6875 L 342.1875,181.5625 L 341.0625,175.0625 z M 414.6875,176.3125 L 413.25,183.4375 L 420.65625,184.9375 L 422.09375,177.78125 L 414.6875,176.3125 z M 329.4375,177.0625 L 322.9375,178.1875 L 324.0625,184.6875 L 330.5625,183.5625 L 329.4375,177.0625 z M 366.5,181.53125 L 364.6875,221.59375 L 372.1875,221.9375 L 373.375,195.8125 L 388.34375,222.65625 L 396.4375,223.03125 L 398.28125,183 L 390.78125,182.65625 L 389.53125,209.375 L 374.375,181.90625 L 366.5,181.53125 z M 349.125,182.6875 L 341.125,184.0625 L 344.9375,205.90625 C 345.47884,209.0316 345.75013,211.29995 345.75,212.6875 C 345.74983,214.07509 345.2393,215.34461 344.25,216.46875 C 343.26066,217.59291 341.63815,218.32674 339.375,218.71875 C 337.14773,219.10457 335.29758,218.91271 333.84375,218.15625 C 332.38991,217.39981 331.3713,216.24495 330.75,214.6875 C 330.37818,213.71588 329.90055,211.55102 329.3125,208.15625 L 325.59375,186.75 L 317.625,188.125 L 321.28125,209.21875 C 322.04663,213.63734 322.86833,216.92082 323.78125,219.09375 C 324.40494,220.55828 325.40855,221.89774 326.78125,223.09375 C 328.15396,224.28977 329.90024,225.15394 332,225.6875 C 334.09973,226.22106 337.00926,226.15338 340.78125,225.5 C 343.90655,224.95863 346.38608,224.13532 348.1875,223 C 349.98888,221.86468 351.35604,220.51656 352.28125,218.96875 C 353.20639,217.42096 353.72053,215.62625 353.8125,213.59375 C 353.90441,211.56127 353.5401,208.17941 352.71875,203.4375 L 349.125,182.6875 z M 412.46875,185.59375 L 404.65625,224.9375 L 412.59375,226.5 L 420.40625,187.1875 L 412.46875,185.59375 z M 429.65625,188.65625 L 429.875,231.21875 L 438.03125,234.09375 L 464.84375,201.03125 L 456.75,198.1875 L 437.65625,222.90625 L 437.9375,191.5625 L 429.65625,188.65625 z M 282.96875,189.9375 L 276.03125,192.90625 L 278.875,199.59375 L 285.84375,196.625 L 282.96875,189.9375 z M 286.90625,198.65625 L 279.4375,201.8125 L 295.15625,238.71875 L 302.59375,235.53125 L 286.90625,198.65625 z M 475.78125,206.5625 L 455.28125,241.03125 L 481.46875,256.625 L 484.9375,250.8125 L 465.6875,239.34375 L 471.28125,229.96875 L 488.5625,240.28125 L 492,234.46875 L 474.71875,224.1875 L 479.28125,216.53125 L 497.84375,227.59375 L 501.3125,221.78125 L 475.78125,206.5625 z M 262.875,211.8125 C 259.77037,211.81389 256.62896,212.78608 253.5,214.71875 C 248.72321,217.66936 245.86634,221.61138 244.875,226.5625 C 243.8837,231.51368 245.11883,236.85495 248.625,242.53125 C 251.93959,247.89739 256.01688,251.20693 260.84375,252.5 C 264.84822,253.57276 268.76327,253.21128 272.5625,251.46875 C 271.97578,251.97579 271.44428,252.54202 270.96875,253.125 L 271.78125,255.78125 C 272.62874,254.82923 273.53866,254.05062 274.53125,253.4375 C 275.53931,252.81483 276.4047,252.5655 277.125,252.65625 C 277.84526,252.74701 278.36177,253.03519 278.6875,253.5625 C 279.05151,254.15185 279.09435,254.81166 278.8125,255.5 C 278.45213,256.40822 277.59905,257.27242 276.21875,258.125 C 274.88496,258.94886 273.35904,259.77763 271.65625,260.59375 L 273.34375,263.34375 C 274.5206,262.95964 276.12432,262.14203 278.125,260.90625 C 280.93212,259.17232 282.71406,257.24866 283.5,255.15625 C 284.08973,253.61351 283.96799,252.17731 283.125,250.8125 C 282.36818,249.5873 281.22243,248.85533 279.6875,248.625 C 278.77276,248.48776 277.77682,248.59897 276.71875,248.96875 C 279.36627,246.96492 281.21304,244.62478 282.25,241.9375 C 283.51457,238.66022 283.52551,234.85446 282.25,230.5 L 274.25,232.5 C 275.21849,235.35143 275.41226,237.77257 274.8125,239.75 C 274.2127,241.72748 273.01757,243.27586 271.1875,244.40625 C 268.70604,245.93902 266.11881,246.27836 263.4375,245.40625 C 260.75618,244.53418 258.06941,241.93654 255.40625,237.625 C 252.89636,233.56165 251.85916,230.13069 252.3125,227.34375 C 252.76584,224.55689 254.28453,222.37404 256.8125,220.8125 C 258.64256,219.68213 260.49451,219.23552 262.40625,219.46875 C 264.31801,219.70206 266.03591,220.57483 267.53125,222.09375 L 273.34375,216.28125 C 270.88224,214.03069 268.42015,212.65617 265.96875,212.15625 C 264.93657,211.94213 263.90988,211.81204 262.875,211.8125 z M 222.21875,226.09375 L 216.46875,230.96875 L 221.15625,236.53125 L 226.90625,231.625 L 222.21875,226.09375 z M 514.3125,231.3125 L 487.15625,260.8125 L 493.09375,266.28125 L 504.4375,253.96875 L 505.65625,255.09375 C 507.0239,256.3534 507.91728,257.38582 508.34375,258.1875 C 508.77016,258.98917 508.98638,259.94714 509,261.0625 C 509.01358,262.17785 508.70818,264.58053 508.125,268.28125 L 506.53125,278.65625 L 513.65625,285.21875 L 515.34375,276.15625 C 516.0342,272.55431 516.38558,269.92021 516.375,268.25 C 516.36435,266.57977 516.06434,264.78018 515.46875,262.84375 C 518.40236,264.85178 521.18424,265.71225 523.8125,265.46875 C 526.44067,265.22523 528.77476,263.99365 530.8125,261.78125 C 532.41791,260.03813 533.39201,258.1134 533.78125,255.96875 C 534.17037,253.82411 533.90891,251.81364 532.96875,249.96875 C 532.02849,248.12389 529.99474,245.74592 526.84375,242.84375 L 514.3125,231.3125 z M 228.53125,233.25 L 222.375,238.46875 L 248.3125,269.03125 L 254.46875,263.78125 L 228.53125,233.25 z M 515.65625,241.78125 L 520.3125,246.0625 C 522.726,248.28544 524.14152,249.64463 524.5625,250.15625 C 525.37968,251.20633 525.78225,252.27711 525.75,253.375 C 525.71769,254.4729 525.22633,255.53902 524.3125,256.53125 C 523.49739,257.41621 522.63309,257.96802 521.6875,258.1875 C 520.74183,258.407 519.77663,258.31943 518.84375,257.90625 C 517.91077,257.49308 516.04349,255.94297 513.1875,253.3125 L 508.78125,249.28125 L 515.65625,241.78125 z M 213.875,245.6875 L 194.25,267.46875 L 199.28125,272 L 211.78125,258.125 L 217,291.1875 L 222.40625,296.0625 L 244.21875,271.875 L 239.21875,267.34375 L 223.9375,284.3125 L 218.5625,249.875 L 213.875,245.6875 z M 545.6875,269.4375 C 543.56813,269.52294 541.66452,270.16153 540,271.34375 C 537.41396,273.18043 535.93577,275.74765 535.5625,279.03125 C 535.29768,281.36579 535.98959,284.62128 537.625,288.78125 C 538.89409,292.01629 539.65608,294.09966 539.9375,295.0625 C 540.33842,296.47701 540.43924,297.5989 540.21875,298.4375 C 539.99821,299.27605 539.49158,299.98235 538.71875,300.53125 C 537.5149,301.38624 536.1019,301.59513 534.4375,301.15625 C 532.77305,300.71735 531.16571,299.43777 529.65625,297.3125 C 528.23123,295.3061 527.60979,293.33681 527.78125,291.4375 C 527.95269,289.53819 528.99445,287.63572 530.875,285.71875 L 525.6875,279.75 C 522.33753,282.77768 520.49326,286.05415 520.15625,289.625 C 519.81925,293.19584 521.09681,297.05581 524.03125,301.1875 C 526.04735,304.02614 528.13502,306.13109 530.28125,307.46875 C 532.42747,308.80635 534.68875,309.40198 537.0625,309.28125 C 539.4362,309.16046 541.56486,308.42373 543.4375,307.09375 C 545.5033,305.62651 546.93173,303.96068 547.71875,302.09375 C 548.50569,300.2268 548.75123,298.23851 548.46875,296.125 C 548.1862,294.01149 547.30326,291.09228 545.78125,287.34375 C 544.25918,283.59519 543.54881,281.04715 543.65625,279.71875 C 543.74168,278.67427 544.16465,277.89266 544.9375,277.34375 C 545.78461,276.74209 546.71732,276.59787 547.71875,276.9375 C 549.27696,277.463 550.73207,278.67655 552.09375,280.59375 C 553.41317,282.45151 554.01339,284.11113 553.9375,285.5625 C 553.86152,287.01388 553.1038,288.49358 551.625,289.96875 L 556.59375,296.34375 C 559.52196,294.10747 561.14291,291.31922 561.46875,287.96875 C 561.7945,284.61826 560.50706,280.88319 557.59375,276.78125 C 555.80981,274.26956 553.92559,272.39395 551.90625,271.15625 C 549.88686,269.91858 547.80679,269.3521 545.6875,269.4375 z M 178.90625,290.03125 L 174.53125,297.40625 L 201.09375,331.25 L 205.46875,323.875 L 199.3125,316.375 L 207.46875,302.59375 L 217.09375,304.21875 L 221.5625,296.65625 L 178.90625,290.03125 z M 580.9375,297.625 L 574.46875,300.9375 L 577.9375,307.65625 L 584.40625,304.3125 L 580.9375,297.625 z M 184.71875,298.5625 L 200.34375,301.375 L 194.75,310.8125 L 184.71875,298.5625 z M 572.28125,301.65625 L 536.65625,320 L 540.34375,327.1875 L 576,308.84375 L 572.28125,301.65625 z M 580.75,317.90625 L 574.34375,320.15625 L 578.34375,331.375 L 546.96875,342.53125 L 549.6875,350.15625 L 581.0625,339 L 585.03125,350.1875 L 591.40625,347.90625 L 580.75,317.90625 z M 170.6875,326.09375 C 167.50459,326.03714 164.64427,326.88427 162.15625,328.65625 C 159.31286,330.68146 157.14802,334.07474 155.625,338.8125 C 154.45352,342.45699 154.11349,345.70829 154.59375,348.5625 C 155.21041,352.30309 156.79022,355.49724 159.34375,358.15625 C 161.89733,360.81531 165.15083,362.785 169.125,364.0625 C 172.78683,365.23961 176.43635,365.58486 180.03125,365.09375 C 183.62617,364.60263 186.71509,363.14806 189.34375,360.71875 C 191.97241,358.28948 193.93565,355.05405 195.21875,351.0625 C 196.22848,347.92135 196.64163,344.63274 196.4375,341.1875 C 196.23334,337.74231 195.60559,334.95984 194.5625,332.84375 L 179.34375,327.96875 L 174.03125,344.5625 L 180.4375,346.65625 L 183.28125,337.8125 L 188.125,339.375 C 188.65367,340.82788 188.98192,342.45501 189.09375,344.28125 C 189.20559,346.10755 188.98756,347.85481 188.46875,349.46875 C 187.41996,352.73143 185.44316,354.99613 182.53125,356.28125 C 179.61937,357.56637 175.90455,357.48731 171.375,356.03125 C 167.17522,354.68123 164.30838,352.67331 162.8125,350 C 161.31667,347.32676 161.13652,344.30433 162.21875,340.9375 C 162.93284,338.71615 164.06339,337.04144 165.625,335.90625 C 167.18666,334.77115 168.98403,334.21678 171.03125,334.28125 L 172.0625,326.15625 C 171.59362,326.11085 171.1422,326.10184 170.6875,326.09375 z M 149.4375,327.28125 L 148.3125,330.84375 C 149.50566,331.36136 150.29398,332.11268 150.6875,333.0625 C 151.0811,334.01241 151.05124,335.20198 150.59375,336.625 C 150.13633,338.04812 149.46711,339.01992 148.59375,339.5625 C 147.72046,340.10516 146.64628,340.2434 145.375,339.96875 L 144.21875,343.53125 C 146.64595,344.08172 148.78299,343.86052 150.59375,342.84375 C 152.40458,341.82702 153.66432,340.15195 154.40625,337.84375 C 155.14824,335.53562 155.09793,333.444 154.21875,331.5625 C 153.33962,329.68109 151.73081,328.24823 149.4375,327.28125 z M 594.46875,360.46875 L 554.84375,366.53125 L 559.4375,396.6875 L 566.125,395.65625 L 562.71875,373.53125 L 573.53125,371.875 L 576.5625,391.75 L 583.25,390.75 L 580.1875,370.84375 L 588.96875,369.5 L 592.25,390.875 L 598.9375,389.875 L 594.46875,360.46875 z M 165,373.53125 C 159.58893,373.50121 155.15478,374.93569 151.71875,377.78125 C 147.79192,381.03337 145.61229,385.58017 145.15625,391.46875 C 144.90435,394.72206 145.20122,397.64721 146.0625,400.21875 C 146.69909,402.15128 147.75423,403.95889 149.25,405.65625 C 150.74585,407.35363 152.50358,408.74612 154.46875,409.8125 C 157.13704,411.24414 160.49139,412.12225 164.5625,412.4375 C 170.92368,412.9301 176.04001,411.53944 179.9375,408.3125 C 183.83499,405.08557 186.03977,400.50567 186.5,394.5625 C 186.9546,388.69209 185.4974,383.8837 182.125,380.09375 C 178.7526,376.30387 173.82704,374.15593 167.375,373.65625 C 166.56168,373.59327 165.77301,373.53554 165,373.53125 z M 164.875,381.875 C 165.41358,381.88514 165.95875,381.92442 166.53125,381.96875 C 171.16583,382.32768 174.56122,383.63273 176.71875,385.875 C 178.87629,388.11731 179.84287,390.84559 179.59375,394.0625 C 179.34464,397.27944 177.96607,399.84076 175.46875,401.75 C 172.97145,403.65925 169.46304,404.44421 164.9375,404.09375 C 160.33931,403.73769 156.96708,402.46222 154.84375,400.25 C 152.72047,398.03782 151.80498,395.2635 152.0625,391.9375 C 152.32009,388.61155 153.65335,386.02132 156.0625,384.1875 C 158.17057,382.58297 161.10492,381.80404 164.875,381.875 z M 572.8125,402.28125 C 568.30749,402.58806 564.81729,404.02769 562.34375,406.625 C 559.87018,409.22229 558.49995,413.06343 558.25,418.125 C 558.07825,421.60251 558.42229,424.52764 559.28125,426.90625 C 560.14023,429.28482 561.56015,431.15783 563.5,432.53125 C 565.43982,433.90461 567.54967,434.63668 569.84375,434.75 C 572.37451,434.87495 574.5081,434.44885 576.28125,433.46875 C 578.0544,432.48859 579.5084,431.08538 580.59375,429.25 C 581.67907,427.41456 582.78345,424.57432 583.90625,420.6875 C 585.029,416.80063 586.0314,414.35231 586.9375,413.375 C 587.65069,412.60714 588.49071,412.2345 589.4375,412.28125 C 590.47526,412.33249 591.26692,412.80118 591.84375,413.6875 C 592.74305,415.06425 593.14721,416.93253 593.03125,419.28125 C 592.91882,421.55711 592.36363,423.2503 591.40625,424.34375 C 590.44878,425.43715 588.94946,426.0994 586.875,426.34375 L 586.84375,434.4375 C 590.52782,434.49165 593.51526,433.30603 595.84375,430.875 C 598.17219,428.4439 599.47054,424.7126 599.71875,419.6875 C 599.87067,416.61051 599.53982,413.97156 598.71875,411.75 C 597.89761,409.5284 596.62431,407.80631 594.90625,406.5625 C 593.18813,405.31868 591.28913,404.63196 589.25,404.53125 C 586.08196,404.37479 583.35567,405.49461 581.03125,407.84375 C 579.37911,409.51428 577.91317,412.46979 576.625,416.75 C 575.62112,420.07691 574.93698,422.22565 574.5625,423.15625 C 574.00256,424.51568 573.34824,425.44625 572.65625,425.96875 C 571.96425,426.49122 571.16548,426.73423 570.21875,426.6875 C 568.74398,426.61464 567.47382,425.87438 566.4375,424.5 C 565.40116,423.12557 564.96517,421.13484 565.09375,418.53125 C 565.21513,416.07329 565.90918,414.16754 567.21875,412.78125 C 568.52831,411.39493 570.52411,410.53051 573.1875,410.1875 L 572.8125,402.28125 z M 174.5625,420.90625 C 174.11014,420.92033 173.66947,420.96385 173.21875,421.03125 C 170.92913,421.37371 169.03184,422.32352 167.53125,423.875 C 166.03072,425.42654 165.12308,427.44778 164.78125,429.96875 C 163.7499,428.372 162.38764,427.20624 160.6875,426.4375 C 158.98742,425.66882 157.20073,425.40981 155.34375,425.6875 C 153.63107,425.94368 152.13289,426.57622 150.875,427.59375 C 149.61718,428.61133 148.67861,429.8153 148.03125,431.15625 C 147.38398,432.49723 147.03093,433.95072 147,435.53125 C 146.96916,437.11182 147.18715,439.45678 147.65625,442.59375 L 150.03125,458.4375 L 189.6875,452.53125 L 187.65625,439.03125 C 186.85715,433.93456 186.28126,430.71883 185.9375,429.40625 C 185.38496,427.31395 184.51693,425.6115 183.28125,424.3125 C 182.04559,423.01357 180.48534,422.08358 178.65625,421.5 C 177.28445,421.06238 175.91957,420.86401 174.5625,420.90625 z M 175.09375,429.28125 C 176.06293,429.27974 176.91234,429.50166 177.625,429.96875 C 178.57524,430.59159 179.23072,431.49873 179.625,432.65625 C 179.90321,433.40724 180.25611,435.2092 180.6875,438.09375 L 181.8125,445.5 L 171.21875,447.09375 L 170.25,440.625 C 169.70537,436.98323 169.53454,434.58488 169.75,433.4375 C 169.9655,432.29017 170.44447,431.38849 171.1875,430.6875 C 171.93056,429.98659 172.90387,429.55297 174.09375,429.375 C 174.44531,429.32243 174.77069,429.28175 175.09375,429.28125 z M 158.5625,433.25 C 159.45157,433.26738 160.23012,433.53106 160.90625,434.03125 C 161.80782,434.69824 162.44535,435.68536 162.8125,437.03125 C 163.01591,437.77499 163.34608,439.72482 163.8125,442.84375 L 164.59375,448.09375 L 155.4375,449.46875 L 154.75,444.875 C 154.18651,441.10703 153.90353,438.80674 153.875,438 C 153.83777,436.64163 154.14742,435.57195 154.8125,434.78125 C 155.47763,433.99061 156.43033,433.49585 157.65625,433.3125 C 157.97627,433.26465 158.26614,433.24421 158.5625,433.25 z M 556.53125,440.6875 L 555,448.625 L 594.34375,456.28125 L 595.875,448.3125 L 556.53125,440.6875 z M 598.03125,449.09375 L 596.59375,456.53125 L 603.75,457.90625 L 605.1875,450.5 L 598.03125,449.09375 z M 324.96875,598.375 C 324.09374,600.81775 322.47655,602.94926 320.125,604.78125 C 317.77343,606.61332 315.59895,607.84378 313.59375,608.5 L 313.59375,615.46875 C 317.40364,614.21096 320.6927,612.28128 323.5,609.65625 L 323.5,638.625 L 331.1875,638.625 L 331.1875,598.375 L 324.96875,598.375 z M 355.65625,598.375 C 351.80988,598.37504 348.83723,599.33077 346.75,601.28125 C 344.66275,603.23181 343.62499,605.69795 343.625,608.6875 C 343.62499,610.43753 344.06641,612.06383 344.96875,613.53125 C 345.87109,614.99872 347.32551,616.13023 349.3125,616.96875 C 346.99739,617.95314 345.29427,619.37372 344.21875,621.1875 C 343.14323,623.00132 342.59375,624.98699 342.59375,627.15625 C 342.59375,631.09376 344.04427,634.17708 346.90625,636.4375 C 349.33072,638.35156 352.35415,639.3125 356,639.3125 C 359.91925,639.3125 363.04555,638.15886 365.40625,635.84375 C 367.7669,633.52865 368.96873,630.51303 368.96875,626.8125 C 368.96873,624.57032 368.37627,622.61981 367.21875,620.90625 C 366.06117,619.19273 364.38018,617.862 362.15625,616.96875 C 363.90623,616.20314 365.25258,615.10549 366.21875,613.65625 C 367.18487,612.20706 367.68747,610.5469 367.6875,608.6875 C 367.68747,605.69795 366.63669,603.23181 364.53125,601.28125 C 362.42575,599.33077 359.46612,598.37504 355.65625,598.375 z M 388.53125,598.375 C 384.1927,598.37504 380.68488,599.974 377.96875,603.21875 C 375.2526,606.46357 373.875,611.77867 373.875,619.125 C 373.875,626.28907 375.17447,631.44923 377.78125,634.59375 C 380.38801,637.73828 383.73437,639.28125 387.78125,639.28125 C 391.55467,639.28125 394.62497,638.04166 397.03125,635.5625 C 399.43747,633.08334 400.65622,629.82032 400.65625,625.71875 C 400.65622,621.85419 399.50648,618.69272 397.21875,616.25 C 394.93097,613.80731 392.17706,612.59378 388.96875,612.59375 C 386.12498,612.59378 383.7578,613.70836 381.84375,615.96875 C 382.13541,611.3568 382.84765,608.33336 383.96875,606.875 C 385.08983,605.4167 386.44008,604.68753 388.0625,604.6875 C 389.28383,604.68753 390.29686,605.05212 391.0625,605.78125 C 391.82811,606.51045 392.28644,607.62503 392.46875,609.15625 L 399.90625,608.34375 C 399.35935,605.09899 398.08981,602.61072 396.09375,600.90625 C 394.09763,599.20187 391.5755,598.37504 388.53125,598.375 z M 417.71875,598.375 C 415.51301,598.37504 413.52733,598.76437 411.75,599.59375 C 409.97265,600.42322 408.58723,601.58207 407.59375,603.03125 C 406.60026,604.4805 405.83593,606.4193 405.34375,608.84375 L 412.4375,610.03125 C 412.63801,608.28128 413.1953,606.94274 414.125,606.03125 C 415.05467,605.11982 416.18749,604.68753 417.5,604.6875 C 418.83071,604.68753 419.8854,605.07295 420.6875,605.875 C 421.48956,606.67712 421.90624,607.74482 421.90625,609.09375 C 421.90624,610.67971 421.34373,611.98049 420.25,612.9375 C 419.15623,613.89456 417.57811,614.33596 415.5,614.28125 L 414.65625,620.53125 C 416.02342,620.14846 417.20311,619.96876 418.1875,619.96875 C 419.68228,619.96876 420.92966,620.52606 421.96875,621.65625 C 423.00779,622.78647 423.53123,624.31772 423.53125,626.25 C 423.53123,628.29167 422.99086,629.92188 421.90625,631.125 C 420.82159,632.32813 419.49217,632.93751 417.90625,632.9375 C 416.42967,632.93751 415.16405,632.40886 414.125,631.40625 C 413.08593,630.40365 412.45572,628.95834 412.21875,627.0625 L 404.78125,627.96875 C 405.16406,631.34116 406.54947,634.06901 408.9375,636.15625 C 411.32551,638.24349 414.34114,639.28125 417.96875,639.28125 C 421.79686,639.28125 424.99217,638.04166 427.5625,635.5625 C 430.13279,633.08334 431.40622,630.11199 431.40625,626.59375 C 431.40622,624.16929 430.72002,622.08856 429.34375,620.375 C 427.96742,618.66148 426.1406,617.55471 423.84375,617.0625 C 427.69008,614.96617 429.59372,612.17451 429.59375,608.65625 C 429.59372,606.17712 428.65882,603.93753 426.78125,601.96875 C 424.50258,599.56254 421.49217,598.37504 417.71875,598.375 z M 355.71875,604.46875 C 357.14061,604.46878 358.29035,604.88415 359.15625,605.75 C 360.02212,606.61591 360.46873,607.77868 360.46875,609.21875 C 360.46873,610.75003 360.03123,611.94665 359.15625,612.8125 C 358.28123,613.67841 357.11456,614.12503 355.65625,614.125 C 354.21613,614.12503 353.05338,613.66929 352.1875,612.8125 C 351.32161,611.95575 350.87499,610.78127 350.875,609.25 C 350.87499,607.80992 351.31248,606.65628 352.1875,605.78125 C 353.06248,604.90628 354.24217,604.46878 355.71875,604.46875 z M 387.78125,618.25 C 389.31249,618.25002 390.5729,618.85028 391.59375,620.0625 C 392.61456,621.27476 393.12498,623.1745 393.125,625.78125 C 393.12498,628.31512 392.66665,630.13803 391.71875,631.25 C 390.77082,632.36199 389.5781,632.93751 388.15625,632.9375 C 386.67967,632.93751 385.36717,632.23308 384.21875,630.875 C 383.0703,629.51694 382.49999,627.59116 382.5,625.09375 C 382.49999,622.83335 383.01041,621.12632 384.03125,619.96875 C 385.05207,618.81121 386.30468,618.25002 387.78125,618.25 z M 355.75,620.25 C 357.37238,620.25001 358.72394,620.82945 359.78125,621.96875 C 360.83853,623.10809 361.34373,624.62241 361.34375,626.5 C 361.34373,628.65105 360.85154,630.29818 359.8125,631.4375 C 358.77342,632.57683 357.46092,633.15626 355.875,633.15625 C 354.25259,633.15626 352.89712,632.5599 351.8125,631.375 C 350.72786,630.19011 350.18749,628.52084 350.1875,626.40625 C 350.18749,624.89324 350.64191,623.51304 351.5625,622.21875 C 352.48306,620.9245 353.87239,620.25001 355.75,620.25 z " style="font-size:56px;font-style:normal;font-weight:bold;fill:#0000c0;fill-opacity:1;stroke:none;stroke-width:1px;stroke-linecap:butt;stroke-linejoin:miter;stroke-opacity:1;font-family:Arial" id="text4291"/>
      <path d="M 497.04965,357.84637 C 539.16861,432.03786 513.13873,526.43475 438.94724,568.55371 C 364.75575,610.67267 270.35886,584.64279 228.2399,510.4513 C 186.12094,436.2598 212.15082,341.86292 286.34231,299.74396 C 356.04423,260.17376 443.19391,279.80269 489.20096,345.4343" transform="matrix(-1.1745461,-0.2887524,0.2887943,-1.1744017,671.03314,1047.1686)" style="fill:none;fill-opacity:0.34871796;stroke:none;stroke-width:5;stroke-miterlimit:4;stroke-opacity:1" id="path4295"/>
      <path d="M 182.14285,480.21933 C 182.14285,482.97933 179.90285,485.21933 177.14285,485.21933 C 174.38285,485.21933 172.14285,482.97933 172.14285,480.21933 C 172.14285,477.45933 174.38285,475.21933 177.14285,475.21933 C 179.90285,475.21933 182.14285,477.45933 182.14285,480.21933 z " transform="matrix(0.9997856,-2.0705619e-2,2.0705619e-2,0.9997856,-9.5480919,7.4136841)" style="fill:#0000c0;fill-opacity:1;stroke:#0000c0;stroke-width:5;stroke-miterlimit:4;stroke-opacity:1" id="path9204"/>
      <path d="M 182.14285,480.21933 C 182.14285,482.97933 179.90285,485.21933 177.14285,485.21933 C 174.38285,485.21933 172.14285,482.97933 172.14285,480.21933 C 172.14285,477.45933 174.38285,475.21933 177.14285,475.21933 C 179.90285,475.21933 182.14285,477.45933 182.14285,480.21933 z " transform="matrix(0.9997856,-2.0705619e-2,2.0705619e-2,0.9997856,381.45187,7.4136841)" style="fill:#0000c0;fill-opacity:1;stroke:#0000c0;stroke-width:5;stroke-miterlimit:4;stroke-opacity:1" id="path9206"/>
      <path d="M 372.5,275.0625 L 237.6875,409.875 L 507.3125,409.875 L 372.5,275.0625 z " style="fill:#0000c0;fill-opacity:1;stroke:none;stroke-width:5.3600812;stroke-miterlimit:4;stroke-opacity:1" id="rect11150"/>
      <path d="M -71.428574,418.79074 C -71.428574,460.19074 -105.02857,493.79074 -146.42857,493.79074 C -187.82857,493.79074 -221.42857,460.19074 -221.42857,418.79074 C -221.42857,418.79074 -221.42857,418.79074 -221.42857,418.79074 L -146.42857,418.79074 L -71.428574,418.79074 z " transform="matrix(1,0,0,-1,531.42857,828.66574)" style="fill:#00a0ff;fill-opacity:1;stroke:none;stroke-width:5;stroke-miterlimit:4;stroke-opacity:1" id="path11156"/>
      <path d="M 372.5,544.6875 L 237.6875,409.875 L 507.3125,409.875 L 372.5,544.6875 z " style="fill:#00a0ff;fill-opacity:1;stroke:none;stroke-width:5.3600812;stroke-miterlimit:4;stroke-opacity:1" id="path12133"/>
      <path d="M -71.428574,418.79074 C -71.428574,460.19074 -105.02857,493.79074 -146.42857,493.79074 C -187.82857,493.79074 -221.42857,460.19074 -221.42857,418.79074 C -221.42857,418.79074 -221.42857,418.79074 -221.42857,418.79074 L -146.42857,418.79074 L -71.428574,418.79074 z " transform="translate(506.42857,-8.91574)" style="fill:#0000c0;fill-opacity:1;stroke:none;stroke-width:5;stroke-miterlimit:4;stroke-opacity:1" id="path11152"/>
    </g>
  </g>
</svg>