<?xml version="1.0" encoding="UTF-8" standalone="no"?>
<!-- Created with Inkscape (http://www.inkscape.org/) -->

<svg
   xmlns:dc="http://purl.org/dc/elements/1.1/"
   xmlns:cc="http://creativecommons.org/ns#"
   xmlns:rdf="http://www.w3.org/1999/02/22-rdf-syntax-ns#"
   xmlns:svg="http://www.w3.org/2000/svg"
   xmlns="http://www.w3.org/2000/svg"
   xmlns:inkscape="http://www.inkscape.org/namespaces/inkscape"
   version="1.1"
   width="170.925"
   height="140.8"
   id="svg2"
   xml:space="preserve"><metadata
     id="metadata8"><rdf:RDF><cc:Work
         rdf:about=""><dc:format>image/svg+xml</dc:format><dc:type
           rdf:resource="http://purl.org/dc/dcmitype/StillImage" /></cc:Work></rdf:RDF></metadata><defs
     id="defs6" /><g
     transform="matrix(1.25,0,0,-1.25,0,140.8)"
     id="g10"><g
       transform="scale(0.1,0.1)"
       id="g12"><path
         d="M 994.535,754.258 L 994.535,1126.44 L 622.824,754.258 L 303.891,754.258 L 0,450.379 L 374.164,450.355 L 374.164,77.168 L 747.523,450.48 L 1063.73,450.48 L 1367.37,754.258 L 994.535,754.258 z M 918.188,941.641 L 918.188,754.035 L 730.543,754.035 L 918.188,941.641 z M 184.504,527.055 L 334.801,677.539 L 545.551,677.539 L 395.152,527.055 L 184.504,527.055 z M 449.906,260.203 L 449.906,450.484 L 639.809,450.484 L 449.906,260.203 z M 716.84,527.055 L 503.746,527.055 L 654.039,677.539 L 867.152,677.539 L 716.84,527.055 z M 1032.48,527.055 L 824.945,527.055 L 975.238,677.539 L 1182.88,677.539 L 1032.48,527.055 z M 748.832,226.926 L 810.922,226.926 C 880.492,226.926 941.938,203.508 941.938,113.457 C 941.938,23.4102 880.492,0 810.922,0 L 748.832,0 L 748.832,226.926 z M 794.352,35.7617 L 819.711,35.7617 C 857.738,35.7617 894.477,64.043 894.477,113.457 C 894.477,162.871 857.738,191.152 819.711,191.152 L 794.352,191.152 L 794.352,35.7617 z M 990.172,226.926 L 1035.69,226.926 L 1035.69,35.7617 L 1123.79,35.7617 L 1123.79,0 L 990.172,0 L 990.172,226.926 z M 1164.57,226.926 L 1213.68,226.926 C 1262.44,226.926 1320.63,228.547 1320.63,165.48 C 1320.63,138.82 1302.75,116.711 1273.81,112.812 L 1273.81,112.16 C 1286.17,111.184 1293.32,98.8281 1297.88,88.75 L 1334.28,0 L 1283.57,0 L 1256.25,70.8711 C 1249.75,87.7734 1243.91,94.2773 1224.72,94.2773 L 1210.09,94.2773 L 1210.09,0 L 1164.57,0 L 1164.57,226.926 z M 1210.09,130.039 L 1225.04,130.039 C 1247.48,130.039 1273.17,133.293 1273.17,161.574 C 1273.17,188.879 1247.81,191.152 1225.04,191.152 L 1210.09,191.152 L 1210.09,130.039"
         inkscape:connector-curvature="0"
         id="path14"
         style="fill:#231f20;fill-opacity:1;fill-rule:nonzero;stroke:none" /></g></g></svg>