<?xml version="1.0" encoding="UTF-8" standalone="no"?>
<!-- Created with Inkscape (http://www.inkscape.org/) -->

<svg
   xmlns:dc="http://purl.org/dc/elements/1.1/"
   xmlns:cc="http://creativecommons.org/ns#"
   xmlns:rdf="http://www.w3.org/1999/02/22-rdf-syntax-ns#"
   xmlns:svg="http://www.w3.org/2000/svg"
   xmlns="http://www.w3.org/2000/svg"
   xmlns:inkscape="http://www.inkscape.org/namespaces/inkscape"
   version="1.1"
   width="196.02499"
   height="94.762497"
   id="svg2"
   xml:space="preserve"><metadata
     id="metadata8"><rdf:RDF><cc:Work
         rdf:about=""><dc:format>image/svg+xml</dc:format><dc:type
           rdf:resource="http://purl.org/dc/dcmitype/StillImage" /></cc:Work></rdf:RDF></metadata><defs
     id="defs6"><clipPath
       id="clipPath18"><path
         d="M 1.34375,4.60938 L 1565.14,4.60938 L 1565.14,754.453 L 1.34375,754.453 L 1.34375,4.60938 z"
         inkscape:connector-curvature="0"
         id="path20" /></clipPath></defs><g
     transform="matrix(1.25,0,0,-1.25,0,94.7625)"
     id="g10"><g
       transform="scale(0.1,0.1)"
       id="g12"><g
         id="g14"><g
           clip-path="url(#clipPath18)"
           id="g16"><path
             d="M 613.113,754.426 C 613.113,754.426 555.336,653.566 553.16,558.699 L 606.578,558.699 L 606.578,512.922 L 550.969,512.922 C 550.969,512.922 546.605,418.047 613.113,312.305 L 559.141,312.305 C 559.141,312.305 428.312,492.734 559.141,754.426 L 613.113,754.426"
             inkscape:connector-curvature="0"
             id="path22"
             style="fill:#231f20;fill-opacity:1;fill-rule:nonzero;stroke:none" /><path
             d="M 507.719,312.441 C 507.719,312.441 376.879,492.734 507.719,754.426 L 4.54688,754.426 L 4.54688,312.441 L 507.719,312.441"
             inkscape:connector-curvature="0"
             id="path24"
             style="fill:#ed1c24;fill-opacity:1;fill-rule:nonzero;stroke:none" /><path
             d="M 815.391,312.227 L 866.289,312.227 L 866.289,512.82 L 920.605,512.82 L 920.605,558.625 L 867.148,558.625 C 869.336,653.477 927.129,754.336 927.129,754.336 L 873.184,754.336 C 831.68,671.371 816.504,596.562 815.137,533.082 L 815.391,312.227"
             inkscape:connector-curvature="0"
             id="path26"
             style="fill:#231f20;fill-opacity:1;fill-rule:nonzero;stroke:none" /><path
             d="M 1001.02,512.82 C 1001.02,512.82 996.621,417.969 1063.14,312.207 L 1009.16,312.207 C 1009.16,312.207 948.137,396.367 951.152,533.102 L 951.152,754.426 L 1000.74,754.426 L 1001.02,512.82"
             inkscape:connector-curvature="0"
             id="path28"
             style="fill:#231f20;fill-opacity:1;fill-rule:nonzero;stroke:none" /><path
             d="M 1115.02,312.207 C 1048.52,417.969 1052.87,512.82 1052.87,512.82 L 1052.6,754.426 L 1563.98,754.426 L 1563.57,312.246 L 1115.02,312.207"
             inkscape:connector-curvature="0"
             id="path30"
             style="fill:#ed1c24;fill-opacity:1;fill-rule:nonzero;stroke:none" /><path
             d="M 646.465,312.227 L 696.6173,312.227 L 696.6173,754.426 L 646.465,754.426 L 646.465,312.227 z"
             inkscape:connector-curvature="0"
             id="path32"
             style="fill:#231f20;fill-opacity:1;fill-rule:nonzero;stroke:none" /><path
             d="M 764.219,754.426 L 710.801,754.426 C 710.801,754.426 794.766,644.297 710.801,533.082 L 764.219,533.082 C 764.219,533.082 843.32,637.633 764.219,754.426"
             inkscape:connector-curvature="0"
             id="path34"
             style="fill:#231f20;fill-opacity:1;fill-rule:nonzero;stroke:none" /><path
             d="M 45.7305,252.441 C 46.3242,251.367 45.7305,251.035 45.2578,251.035 C 44.9102,251.035 43.7344,251.25 41.7266,251.035 C 35.957,250.43 27.7344,247.742 23.8398,246.094 C 23.0195,245.762 22.3047,245.508 22.0742,245.508 C 21.832,245.508 21.4844,245.762 21.4844,246.23 C 21.4844,246.57 21.7227,246.797 22.3047,247.141 C 26.5469,250.059 37.5,256.691 38.3203,257.148 C 40.3164,258.34 41.0234,258.691 41.6172,258.691 C 41.9648,258.691 42.207,258.457 42.7891,257.629 C 43.6094,256.445 44.4336,254.805 45.7305,252.441 z M 11.6055,202.285 C 11.6055,220.645 11.6055,223.965 11.3633,227.727 C 11.1289,231.719 10.1875,233.613 6.30469,234.434 C 5.35156,234.668 3.35938,234.805 2.30078,234.805 C 1.83203,234.805 1.35156,235.02 1.35156,235.508 C 1.35156,236.211 1.94141,236.465 3.24219,236.465 C 8.53906,236.465 15.9531,236.094 16.543,236.094 C 17.3633,236.094 40.793,236.094 43.5078,236.211 C 45.7305,236.328 47.6211,236.582 48.5508,236.809 C 49.1406,236.926 49.6172,237.375 50.1992,237.375 C 50.5586,237.375 50.6836,236.926 50.6836,236.328 C 50.6836,235.508 50.0938,234.094 49.7344,230.781 C 49.6172,229.609 49.3867,224.434 49.1406,223.02 C 49.0312,222.422 48.793,221.699 48.3203,221.699 C 47.6211,221.699 47.3945,222.305 47.3945,223.242 C 47.3945,224.07 47.2656,226.094 46.6719,227.5 C 45.8516,229.375 44.6797,230.781 38.3203,231.465 C 36.3125,231.719 23.4922,231.836 22.1914,231.836 C 21.7227,231.836 21.4844,231.465 21.4844,230.645 L 21.4844,198.203 C 21.4844,197.363 21.6055,197.012 22.1914,197.012 C 23.7227,197.012 38.1992,197.012 40.9062,197.246 C 43.7344,197.48 45.3867,197.734 46.4414,198.887 C 47.2656,199.805 47.7305,200.391 48.2148,200.391 C 48.5508,200.391 48.793,200.156 48.793,199.453 C 48.793,198.809 48.2148,196.777 47.8555,192.871 C 47.6211,190.488 47.3945,186.191 47.3945,185.371 C 47.3945,184.395 47.3945,183.105 46.5625,183.105 C 45.9727,183.105 45.7305,183.574 45.7305,184.18 C 45.7305,185.371 45.7305,186.543 45.2578,188.066 C 44.7969,189.688 43.7344,191.68 39.1445,192.148 C 35.957,192.52 24.3125,192.754 22.3047,192.754 C 21.7227,192.754 21.4844,192.402 21.4844,191.934 L 21.4844,181.562 C 21.4844,177.598 21.3672,163.926 21.4844,161.426 C 21.832,153.32 23.6094,151.777 35.1367,151.777 C 38.1992,151.777 43.3789,151.777 46.4414,153.086 C 49.5039,154.375 50.9141,156.758 51.7383,161.543 C 51.9727,162.852 52.207,163.32 52.793,163.32 C 53.5,163.32 53.5,162.383 53.5,161.543 C 53.5,160.625 52.5625,152.617 51.9727,150.176 C 51.1484,147.09 50.1992,147.09 45.6133,147.09 C 27.8438,147.09 19.9492,147.812 16.543,147.812 C 15.9531,147.812 8.53906,147.461 5.01562,147.461 C 3.70703,147.461 3.125,147.695 3.125,148.398 C 3.125,148.75 3.35938,149.121 4.06641,149.121 C 5.12109,149.121 6.53906,149.355 7.59375,149.59 C 9.95703,150.059 10.5352,152.617 11.0117,156.035 C 11.6055,160.957 11.6055,170.273 11.6055,181.562 L 11.6055,202.285"
             inkscape:connector-curvature="0"
             id="path36"
             style="fill:#231f20;fill-opacity:1;fill-rule:nonzero;stroke:none" /><path
             d="M 84.2227,158.516 C 72.8086,168.789 69.9805,182.148 69.9805,193.34 C 69.9805,201.23 72.6875,215.02 83.1641,225.508 C 90.2266,232.539 100.941,238.086 119.059,238.086 C 123.77,238.086 130.359,237.727 136.129,236.672 C 140.605,235.859 144.375,235.137 148.145,234.922 C 149.434,234.805 149.664,234.316 149.664,233.613 C 149.664,232.656 149.316,231.25 149.082,227.023 C 148.848,223.137 148.848,216.68 148.73,214.902 C 148.602,213.125 148.375,212.402 147.668,212.402 C 146.848,212.402 146.719,213.242 146.719,214.902 C 146.719,219.492 144.836,224.316 141.777,226.914 C 137.656,230.41 128.602,233.613 118.23,233.613 C 102.59,233.613 95.2812,229.016 91.1719,225.039 C 82.5742,216.797 80.5664,206.309 80.5664,194.297 C 80.5664,171.797 97.8828,151.191 123.066,151.191 C 131.895,151.191 138.84,152.246 143.547,157.109 C 146.016,159.707 147.551,164.863 147.898,166.992 C 148.145,168.301 148.375,168.789 149.082,168.789 C 149.664,168.789 149.902,167.949 149.902,166.992 C 149.902,166.152 148.484,155.938 147.305,151.895 C 146.609,149.707 146.379,149.473 144.25,148.535 C 139.551,146.641 130.598,145.801 123.066,145.801 C 105.41,145.801 93.5234,150.176 84.2227,158.516"
             inkscape:connector-curvature="0"
             id="path38"
             style="fill:#231f20;fill-opacity:1;fill-rule:nonzero;stroke:none" /><path
             d="M 175.918,195.352 C 175.918,221.113 190.637,234.094 210.289,234.094 C 228.887,234.094 246.074,218.887 246.074,190.625 C 246.074,156.387 224.18,150.273 213.586,150.273 C 192.395,150.273 175.918,167.949 175.918,195.352 z M 164.727,192.031 C 164.727,170.859 178.152,145.801 210.398,145.801 C 238.77,145.801 257.375,167.598 257.375,193.945 C 257.375,221.348 237.598,238.086 211.113,238.086 C 178.633,238.086 164.727,211.113 164.727,192.031"
             inkscape:connector-curvature="0"
             id="path40"
             style="fill:#231f20;fill-opacity:1;fill-rule:nonzero;stroke:none" /><path
             d="M 295.742,181.328 C 295.742,164.043 296.211,156.504 298.332,154.375 C 300.219,152.5 303.281,151.66 312.457,151.66 C 318.695,151.66 323.867,151.777 326.695,155.215 C 328.227,157.109 329.41,160.059 329.758,162.266 C 329.875,163.203 330.105,163.789 330.824,163.789 C 331.41,163.789 331.52,163.32 331.52,162.012 C 331.52,160.742 330.699,153.672 329.758,150.273 C 328.93,147.559 328.59,147.09 322.344,147.09 C 305.391,147.09 297.621,147.812 290.793,147.812 C 289.734,147.812 282.793,147.461 279.258,147.461 C 277.969,147.461 277.379,147.695 277.379,148.398 C 277.379,148.75 277.605,149.121 278.324,149.121 C 279.387,149.121 280.797,149.355 281.855,149.59 C 284.211,150.059 284.785,152.617 285.266,156.035 C 285.852,160.957 285.852,170.273 285.852,181.562 L 285.852,202.285 C 285.852,220.645 285.852,223.965 285.621,227.727 C 285.375,231.719 284.438,233.613 280.562,234.434 C 279.613,234.668 277.605,234.805 276.555,234.805 C 276.086,234.805 275.609,235.02 275.609,235.508 C 275.609,236.211 276.199,236.465 277.5,236.465 C 282.793,236.465 290.199,236.094 290.793,236.094 C 291.387,236.094 299.977,236.465 303.516,236.465 C 304.801,236.465 305.391,236.211 305.391,235.508 C 305.391,235.02 304.926,234.805 304.453,234.805 C 303.625,234.805 301.973,234.668 300.566,234.434 C 297.148,233.848 296.211,231.836 295.977,227.727 C 295.742,223.965 295.742,220.645 295.742,202.285 L 295.742,181.328"
             inkscape:connector-curvature="0"
             id="path42"
             style="fill:#231f20;fill-opacity:1;fill-rule:nonzero;stroke:none" /><path
             d="M 355.531,202.285 C 355.531,220.645 355.531,223.965 355.297,227.727 C 355.062,231.719 354.121,233.613 350.238,234.434 C 349.297,234.668 347.305,234.805 346.234,234.805 C 345.762,234.805 345.297,235.02 345.297,235.508 C 345.297,236.211 345.883,236.465 347.18,236.465 C 352.477,236.465 359.887,236.094 360.473,236.094 C 361.301,236.094 384.73,236.094 387.438,236.211 C 389.672,236.328 391.559,236.582 392.496,236.809 C 393.086,236.926 393.551,237.375 394.145,237.375 C 394.496,237.375 394.605,236.926 394.605,236.328 C 394.605,235.508 394.027,234.094 393.676,230.781 C 393.551,229.609 393.32,224.434 393.086,223.02 C 392.961,222.422 392.727,221.699 392.262,221.699 C 391.559,221.699 391.324,222.305 391.324,223.242 C 391.324,224.07 391.207,226.094 390.613,227.5 C 389.781,229.375 388.613,230.781 382.25,231.465 C 380.25,231.719 367.426,231.836 366.133,231.836 C 365.66,231.836 365.414,231.465 365.414,230.645 L 365.414,198.203 C 365.414,197.363 365.543,197.012 366.133,197.012 C 367.652,197.012 382.145,197.012 384.84,197.246 C 387.672,197.48 389.32,197.734 390.371,198.887 C 391.207,199.805 391.676,200.391 392.133,200.391 C 392.496,200.391 392.727,200.156 392.727,199.453 C 392.727,198.809 392.133,196.777 391.801,192.871 C 391.559,190.488 391.324,186.191 391.324,185.371 C 391.324,184.395 391.324,183.105 390.5,183.105 C 389.906,183.105 389.672,183.574 389.672,184.18 C 389.672,185.371 389.672,186.543 389.203,188.066 C 388.727,189.688 387.672,191.68 383.078,192.148 C 379.898,192.52 368.246,192.754 366.25,192.754 C 365.66,192.754 365.414,192.402 365.414,191.934 L 365.414,181.562 C 365.414,177.598 365.309,163.926 365.414,161.426 C 365.777,153.32 367.543,151.777 379.078,151.777 C 382.145,151.777 387.309,151.777 390.371,153.086 C 393.445,154.375 394.848,156.758 395.676,161.543 C 395.918,162.852 396.148,163.32 396.738,163.32 C 397.438,163.32 397.438,162.383 397.438,161.543 C 397.438,160.625 396.5,152.617 395.918,150.176 C 395.094,147.09 394.145,147.09 389.547,147.09 C 371.781,147.09 363.895,147.812 360.473,147.812 C 359.887,147.812 352.477,147.461 348.949,147.461 C 347.652,147.461 347.062,147.695 347.062,148.398 C 347.062,148.75 347.305,149.121 348.004,149.121 C 349.062,149.121 350.484,149.355 351.531,149.59 C 353.879,150.059 354.473,152.617 354.945,156.035 C 355.531,160.957 355.531,170.273 355.531,181.562 L 355.531,202.285"
             inkscape:connector-curvature="0"
             id="path44"
             style="fill:#231f20;fill-opacity:1;fill-rule:nonzero;stroke:none" /><path
             d="M 465.59,202.285 C 465.59,220.645 465.59,223.965 465.355,227.727 C 465.121,231.719 464.176,233.613 460.289,234.434 C 459.359,234.668 457.352,234.805 456.301,234.805 C 455.824,234.805 455.348,235.02 455.348,235.508 C 455.348,236.211 455.941,236.465 457.23,236.465 C 462.527,236.465 469.59,236.094 470.539,236.094 C 473.113,236.094 479.945,236.465 485.359,236.465 C 500.09,236.465 505.375,231.465 507.258,229.727 C 509.852,227.266 513.145,221.953 513.145,215.742 C 513.145,199.004 500.906,187.715 484.188,187.715 C 483.598,187.715 482.309,187.715 481.719,187.852 C 481.129,187.852 480.422,188.066 480.422,188.672 C 480.422,189.57 481.129,189.688 483.598,189.688 C 495.012,189.688 503.965,198.086 503.965,208.906 C 503.965,212.773 503.613,220.645 497.375,227.023 C 491.129,233.367 483.957,232.898 481.246,232.898 C 479.25,232.898 477.242,232.656 476.188,232.188 C 475.477,231.953 475.238,231.133 475.238,229.961 L 475.238,181.562 C 475.238,170.273 475.238,160.957 475.832,156.035 C 476.188,152.617 476.887,150.059 480.422,149.59 C 482.07,149.355 484.652,149.121 485.723,149.121 C 486.426,149.121 486.66,148.75 486.66,148.398 C 486.66,147.812 486.07,147.461 484.781,147.461 C 478.301,147.461 470.891,147.812 470.297,147.812 C 469.945,147.812 462.527,147.461 459.004,147.461 C 457.707,147.461 457.113,147.695 457.113,148.398 C 457.113,148.75 457.352,149.121 458.051,149.121 C 459.117,149.121 460.523,149.355 461.586,149.59 C 463.941,150.059 464.531,152.617 465,156.035 C 465.59,160.957 465.59,170.273 465.59,181.562 L 465.59,202.285"
             inkscape:connector-curvature="0"
             id="path46"
             style="fill:#231f20;fill-opacity:1;fill-rule:nonzero;stroke:none" /><path
             d="M 538.926,195.352 C 538.926,221.113 553.645,234.094 573.297,234.094 C 591.898,234.094 609.078,218.887 609.078,190.625 C 609.078,156.387 587.184,150.273 576.594,150.273 C 555.395,150.273 538.926,167.949 538.926,195.352 z M 527.734,192.031 C 527.734,170.859 541.152,145.801 573.402,145.801 C 601.781,145.801 620.383,167.598 620.383,193.945 C 620.383,221.348 600.598,238.086 574.121,238.086 C 541.637,238.086 527.734,211.113 527.734,192.031"
             inkscape:connector-curvature="0"
             id="path48"
             style="fill:#231f20;fill-opacity:1;fill-rule:nonzero;stroke:none" /><path
             d="M 656.395,181.328 C 656.395,164.043 656.863,156.504 658.977,154.375 C 660.859,152.5 663.926,151.66 673.105,151.66 C 679.355,151.66 684.52,151.777 687.344,155.215 C 688.887,157.109 690.059,160.059 690.398,162.266 C 690.527,163.203 690.762,163.789 691.477,163.789 C 692.047,163.789 692.172,163.32 692.172,162.012 C 692.172,160.742 691.355,153.672 690.398,150.273 C 689.574,147.559 689.242,147.09 682.988,147.09 C 666.047,147.09 658.27,147.812 651.445,147.812 C 650.395,147.812 643.445,147.461 639.914,147.461 C 638.617,147.461 638.031,147.695 638.031,148.398 C 638.031,148.75 638.266,149.121 638.965,149.121 C 640.039,149.121 641.438,149.355 642.512,149.59 C 644.863,150.059 645.453,152.617 645.914,156.035 C 646.504,160.957 646.504,170.273 646.504,181.562 L 646.504,202.285 C 646.504,220.645 646.504,223.965 646.27,227.727 C 646.031,231.719 645.098,233.613 641.207,234.434 C 640.273,234.668 638.266,234.805 637.207,234.805 C 636.738,234.805 636.254,235.02 636.254,235.508 C 636.254,236.211 636.848,236.465 638.148,236.465 C 643.445,236.465 650.855,236.094 651.445,236.094 C 652.043,236.094 660.629,236.465 664.16,236.465 C 665.453,236.465 666.047,236.211 666.047,235.508 C 666.047,235.02 665.566,234.805 665.105,234.805 C 664.277,234.805 662.633,234.668 661.211,234.434 C 657.805,233.848 656.863,231.836 656.633,227.727 C 656.395,223.965 656.395,220.645 656.395,202.285 L 656.395,181.328"
             inkscape:connector-curvature="0"
             id="path50"
             style="fill:#231f20;fill-opacity:1;fill-rule:nonzero;stroke:none" /><path
             d="M 726.902,177.949 C 726.902,184.297 725.73,186.875 724.188,190.273 C 723.375,192.148 707.598,218.074 703.484,224.191 C 700.527,228.547 697.59,231.465 695.469,232.898 C 693.711,234.094 691.477,234.805 690.398,234.805 C 689.812,234.805 689.242,235.02 689.242,235.625 C 689.242,236.094 689.703,236.465 690.762,236.465 C 693,236.465 701.832,236.094 702.414,236.094 C 703.242,236.094 707.715,236.465 712.297,236.465 C 713.609,236.465 713.84,236.094 713.84,235.625 C 713.84,235.137 713.125,235.02 712.062,234.551 C 711.137,234.094 710.547,233.367 710.547,232.441 C 710.547,230.996 711.137,229.609 712.062,227.832 C 713.949,224.434 731.609,194.062 733.723,190.625 C 735.957,195.586 750.906,221.348 753.262,225.254 C 754.805,227.727 755.254,229.727 755.254,231.25 C 755.254,232.898 754.805,234.199 753.379,234.551 C 752.336,234.922 751.621,235.137 751.621,235.742 C 751.621,236.211 752.336,236.465 753.508,236.465 C 756.562,236.465 760.32,236.094 761.27,236.094 C 761.98,236.094 770.449,236.465 772.676,236.465 C 773.508,236.465 774.227,236.211 774.227,235.742 C 774.227,235.137 773.633,234.805 772.676,234.805 C 771.395,234.805 769.16,234.316 767.266,233.125 C 764.914,231.719 763.625,230.293 761.035,227.156 C 757.156,222.422 740.664,194.766 738.547,189.688 C 736.789,185.469 736.789,181.797 736.789,177.949 L 736.789,167.812 C 736.789,165.938 736.789,160.957 737.141,156.035 C 737.383,152.617 738.43,150.059 741.973,149.59 C 743.613,149.355 746.203,149.121 747.266,149.121 C 747.961,149.121 748.203,148.75 748.203,148.398 C 748.203,147.812 747.629,147.461 746.316,147.461 C 739.852,147.461 732.441,147.812 731.848,147.812 C 731.25,147.812 723.828,147.461 720.312,147.461 C 719.004,147.461 718.43,147.695 718.43,148.398 C 718.43,148.75 718.664,149.121 719.355,149.121 C 720.43,149.121 721.828,149.355 722.898,149.59 C 725.254,150.059 726.309,152.617 726.543,156.035 C 726.902,160.957 726.902,165.938 726.902,167.812 L 726.902,177.949"
             inkscape:connector-curvature="0"
             id="path52"
             style="fill:#231f20;fill-opacity:1;fill-rule:nonzero;stroke:none" /><path
             d="M 818.242,181.562 C 818.242,170.273 818.242,160.957 818.809,156.035 C 819.16,152.617 819.883,150.059 823.418,149.59 C 825.078,149.355 827.656,149.121 828.691,149.121 C 829.414,149.121 829.629,148.75 829.629,148.398 C 829.629,147.812 829.043,147.461 827.781,147.461 C 821.301,147.461 813.906,147.812 813.32,147.812 C 812.715,147.812 805.312,147.461 801.758,147.461 C 800.449,147.461 799.863,147.695 799.863,148.398 C 799.863,148.75 800.098,149.121 800.801,149.121 C 801.875,149.121 803.301,149.355 804.355,149.59 C 806.699,150.059 807.305,152.617 807.754,156.035 C 808.359,160.957 808.359,170.273 808.359,181.562 L 808.359,231.367 L 790.918,231.133 C 783.633,230.996 780.812,230.176 778.938,227.363 C 777.629,225.371 777.273,224.551 776.926,223.723 C 776.57,222.773 776.223,222.539 775.742,222.539 C 775.391,222.539 775.145,222.891 775.145,223.605 C 775.145,224.785 777.512,234.922 777.746,235.859 C 777.977,236.582 778.457,238.086 778.938,238.086 C 779.746,238.086 780.93,236.926 784.121,236.672 C 787.512,236.328 791.98,236.094 793.406,236.094 L 837.551,236.094 C 845.078,236.094 848.223,237.258 849.18,237.258 C 849.785,237.258 849.785,236.582 849.785,235.859 C 849.785,232.324 849.434,224.191 849.434,222.891 C 849.434,221.836 849.082,221.348 848.594,221.348 C 848.008,221.348 847.773,221.699 847.637,223.359 L 847.527,224.668 C 847.09,228.184 844.395,230.879 833.086,231.133 L 818.242,231.367 L 818.242,181.562"
             inkscape:connector-curvature="0"
             id="path54"
             style="fill:#231f20;fill-opacity:1;fill-rule:nonzero;stroke:none" /><path
             d="M 874.492,202.285 C 874.492,220.645 874.492,223.965 874.277,227.727 C 874.043,231.719 873.105,233.613 869.199,234.434 C 868.262,234.668 866.27,234.805 865.195,234.805 C 864.727,234.805 864.277,235.02 864.277,235.508 C 864.277,236.211 864.836,236.465 866.145,236.465 C 871.426,236.465 878.848,236.094 879.434,236.094 C 880.281,236.094 903.684,236.094 906.387,236.211 C 908.625,236.328 910.527,236.582 911.484,236.809 C 912.07,236.926 912.539,237.375 913.125,237.375 C 913.469,237.375 913.562,236.926 913.562,236.328 C 913.562,235.508 912.988,234.094 912.656,230.781 C 912.539,229.609 912.305,224.434 912.07,223.02 C 911.934,222.422 911.719,221.699 911.25,221.699 C 910.527,221.699 910.273,222.305 910.273,223.242 C 910.273,224.07 910.176,226.094 909.57,227.5 C 908.762,229.375 907.578,230.781 901.23,231.465 C 899.219,231.719 886.379,231.836 885.09,231.836 C 884.621,231.836 884.375,231.465 884.375,230.645 L 884.375,198.203 C 884.375,197.363 884.504,197.012 885.09,197.012 C 886.602,197.012 901.113,197.012 903.816,197.246 C 906.621,197.48 908.281,197.734 909.348,198.887 C 910.176,199.805 910.645,200.391 911.133,200.391 C 911.484,200.391 911.719,200.156 911.719,199.453 C 911.719,198.809 911.133,196.777 910.762,192.871 C 910.527,190.488 910.273,186.191 910.273,185.371 C 910.273,184.395 910.273,183.105 909.473,183.105 C 908.867,183.105 908.625,183.574 908.625,184.18 C 908.625,185.371 908.625,186.543 908.184,188.066 C 907.695,189.688 906.621,191.68 902.051,192.148 C 898.879,192.52 887.207,192.754 885.227,192.754 C 884.621,192.754 884.375,192.402 884.375,191.934 L 884.375,181.562 C 884.375,177.598 884.277,163.926 884.375,161.426 C 884.734,153.32 886.496,151.777 898.027,151.777 C 901.113,151.777 906.25,151.777 909.348,153.086 C 912.422,154.375 913.828,156.758 914.641,161.543 C 914.883,162.852 915.129,163.32 915.691,163.32 C 916.387,163.32 916.387,162.383 916.387,161.543 C 916.387,160.625 915.449,152.617 914.883,150.176 C 914.055,147.09 913.125,147.09 908.516,147.09 C 890.754,147.09 882.871,147.812 879.434,147.812 C 878.848,147.812 871.426,147.461 867.891,147.461 C 866.633,147.461 866.047,147.695 866.047,148.398 C 866.047,148.75 866.27,149.121 866.965,149.121 C 868.008,149.121 869.434,149.355 870.5,149.59 C 872.871,150.059 873.457,152.617 873.926,156.035 C 874.492,160.957 874.492,170.273 874.492,181.562 L 874.492,202.285"
             inkscape:connector-curvature="0"
             id="path56"
             style="fill:#231f20;fill-opacity:1;fill-rule:nonzero;stroke:none" /><path
             d="M 947.109,158.516 C 935.684,168.789 932.871,182.148 932.871,193.34 C 932.871,201.23 935.566,215.02 946.035,225.508 C 953.125,232.539 963.828,238.086 981.992,238.086 C 986.68,238.086 993.242,237.727 999.062,236.672 C 1003.48,235.859 1007.29,235.137 1011.05,234.922 C 1012.3,234.805 1012.56,234.316 1012.56,233.613 C 1012.56,232.656 1012.19,231.25 1011.99,227.023 C 1011.72,223.137 1011.72,216.68 1011.62,214.902 C 1011.52,213.125 1011.29,212.402 1010.61,212.402 C 1009.77,212.402 1009.65,213.242 1009.65,214.902 C 1009.65,219.492 1007.75,224.316 1004.69,226.914 C 1000.59,230.41 991.523,233.613 981.172,233.613 C 965.488,233.613 958.203,229.016 954.055,225.039 C 945.449,216.797 943.477,206.309 943.477,194.297 C 943.477,171.797 960.801,151.191 985.957,151.191 C 994.785,151.191 1001.74,152.246 1006.43,157.109 C 1008.95,159.707 1010.47,164.863 1010.82,166.992 C 1011.05,168.301 1011.29,168.789 1011.99,168.789 C 1012.56,168.789 1012.77,167.949 1012.77,166.992 C 1012.77,166.152 1011.41,155.938 1010.23,151.895 C 1009.53,149.707 1009.3,149.473 1007.15,148.535 C 1002.42,146.641 993.477,145.801 985.957,145.801 C 968.301,145.801 956.406,150.176 947.109,158.516"
             inkscape:connector-curvature="0"
             id="path58"
             style="fill:#231f20;fill-opacity:1;fill-rule:nonzero;stroke:none" /><path
             d="M 1112.15,181.562 C 1112.15,170.273 1112.15,160.957 1112.73,156.035 C 1113.09,152.617 1113.81,150.059 1117.34,149.59 C 1118.96,149.355 1121.54,149.121 1122.62,149.121 C 1123.34,149.121 1123.55,148.75 1123.55,148.398 C 1123.55,147.812 1122.97,147.461 1121.68,147.461 C 1115.21,147.461 1107.81,147.812 1107.23,147.812 C 1106.64,147.812 1099.2,147.461 1095.66,147.461 C 1094.38,147.461 1093.79,147.695 1093.79,148.398 C 1093.79,148.75 1094,149.121 1094.73,149.121 C 1095.8,149.121 1097.23,149.355 1098.28,149.59 C 1100.61,150.059 1101.19,152.617 1101.66,156.035 C 1102.27,160.957 1102.27,170.273 1102.27,181.562 L 1102.27,193.945 C 1102.27,194.414 1101.89,194.648 1101.54,194.648 L 1051.62,194.648 C 1051.27,194.648 1050.94,194.531 1050.94,193.945 L 1050.94,181.562 C 1050.94,170.273 1050.94,160.957 1051.5,156.035 C 1051.86,152.617 1052.58,150.059 1056.13,149.59 C 1057.79,149.355 1060.35,149.121 1061.39,149.121 C 1062.11,149.121 1062.36,148.75 1062.36,148.398 C 1062.36,147.812 1061.76,147.461 1060.47,147.461 C 1054,147.461 1046.58,147.812 1046,147.812 C 1045.41,147.812 1038.01,147.461 1034.47,147.461 C 1033.16,147.461 1032.56,147.695 1032.56,148.398 C 1032.56,148.75 1032.81,149.121 1033.52,149.121 C 1034.57,149.121 1035.98,149.355 1037.05,149.59 C 1039.43,150.059 1040.02,152.617 1040.49,156.035 C 1041.05,160.957 1041.05,170.273 1041.05,181.562 L 1041.05,202.285 C 1041.05,220.645 1041.05,223.965 1040.82,227.727 C 1040.59,231.719 1039.67,233.613 1035.76,234.434 C 1034.82,234.668 1032.81,234.805 1031.74,234.805 C 1031.27,234.805 1030.82,235.02 1030.82,235.508 C 1030.82,236.211 1031.39,236.465 1032.68,236.465 C 1038.01,236.465 1045.41,236.094 1046,236.094 C 1046.58,236.094 1054,236.465 1057.54,236.465 C 1058.87,236.465 1059.43,236.211 1059.43,235.508 C 1059.43,235.02 1058.96,234.805 1058.5,234.805 C 1057.68,234.805 1056.95,234.668 1055.53,234.434 C 1052.34,233.848 1051.41,231.836 1051.15,227.727 C 1050.94,223.965 1050.94,220.645 1050.94,202.285 L 1050.94,199.805 C 1050.94,199.238 1051.27,199.141 1051.62,199.141 L 1101.54,199.141 C 1101.89,199.141 1102.27,199.238 1102.27,199.805 L 1102.27,202.285 C 1102.27,220.645 1102.27,223.965 1102.01,227.727 C 1101.78,231.719 1100.84,233.613 1096.99,234.434 C 1096.04,234.668 1094,234.805 1092.97,234.805 C 1092.48,234.805 1091.99,235.02 1091.99,235.508 C 1091.99,236.211 1092.6,236.465 1093.91,236.465 C 1099.2,236.465 1106.64,236.094 1107.23,236.094 C 1107.81,236.094 1115.21,236.465 1118.73,236.465 C 1120.02,236.465 1120.61,236.211 1120.61,235.508 C 1120.61,235.02 1120.14,234.805 1119.67,234.805 C 1118.85,234.805 1118.16,234.668 1116.78,234.434 C 1113.55,233.848 1112.6,231.836 1112.38,227.727 C 1112.15,223.965 1112.15,220.645 1112.15,202.285 L 1112.15,181.562"
             inkscape:connector-curvature="0"
             id="path60"
             style="fill:#231f20;fill-opacity:1;fill-rule:nonzero;stroke:none" /><path
             d="M 1157.25,163.457 C 1157.48,153.789 1158.61,150.742 1161.82,149.824 C 1164.06,149.219 1166.66,149.121 1167.7,149.121 C 1168.28,149.121 1168.61,148.887 1168.61,148.398 C 1168.61,147.695 1167.93,147.461 1166.54,147.461 C 1159.8,147.461 1155.14,147.812 1154.06,147.812 C 1152.99,147.812 1148.05,147.461 1142.75,147.461 C 1141.56,147.461 1140.86,147.559 1140.86,148.398 C 1140.86,148.887 1141.21,149.121 1141.8,149.121 C 1142.75,149.121 1144.88,149.219 1146.66,149.824 C 1149.57,150.625 1150.16,154.023 1150.16,164.746 L 1150.29,232.188 C 1150.29,236.809 1150.64,238.086 1151.58,238.086 C 1152.52,238.086 1154.55,235.508 1155.72,234.316 C 1157.48,232.324 1175.02,213.359 1193.14,193.945 C 1204.8,181.445 1217.62,167.129 1221.39,163.203 L 1220.08,223.02 C 1219.98,230.645 1219.12,233.262 1215.51,234.199 C 1213.4,234.668 1210.68,234.805 1209.73,234.805 C 1208.91,234.805 1208.77,235.137 1208.77,235.625 C 1208.77,236.328 1209.73,236.465 1211.13,236.465 C 1216.43,236.465 1222.09,236.094 1223.4,236.094 C 1224.71,236.094 1228.57,236.465 1233.4,236.465 C 1234.69,236.465 1235.51,236.328 1235.51,235.625 C 1235.51,235.137 1235.04,234.805 1234.24,234.805 C 1233.63,234.805 1232.81,234.805 1231.39,234.434 C 1227.5,233.613 1227.01,230.996 1227.01,223.965 L 1226.78,154.98 C 1226.78,147.207 1226.54,146.641 1225.72,146.641 C 1224.8,146.641 1223.42,147.93 1217.13,154.16 C 1215.86,155.352 1198.89,172.617 1186.45,186.055 C 1172.77,200.742 1159.45,215.605 1155.72,219.844 L 1157.25,163.457"
             inkscape:connector-curvature="0"
             id="path62"
             style="fill:#231f20;fill-opacity:1;fill-rule:nonzero;stroke:none" /><path
             d="M 1275.39,181.562 C 1275.39,170.273 1275.39,160.957 1276,156.035 C 1276.35,152.617 1277.05,150.059 1280.61,149.59 C 1282.25,149.355 1284.82,149.121 1285.88,149.121 C 1286.58,149.121 1286.82,148.75 1286.82,148.398 C 1286.82,147.812 1286.23,147.461 1284.94,147.461 C 1278.46,147.461 1271.05,147.812 1270.47,147.812 C 1269.88,147.812 1262.48,147.461 1258.93,147.461 C 1257.62,147.461 1257.03,147.695 1257.03,148.398 C 1257.03,148.75 1257.27,149.121 1257.97,149.121 C 1259.04,149.121 1260.47,149.355 1261.52,149.59 C 1263.87,150.059 1264.47,152.617 1264.92,156.035 C 1265.49,160.957 1265.49,170.273 1265.49,181.562 L 1265.49,202.285 C 1265.49,220.645 1265.49,223.965 1265.27,227.727 C 1265.06,231.719 1263.87,233.73 1261.29,234.316 C 1260,234.668 1258.44,234.805 1257.62,234.805 C 1257.15,234.805 1256.68,235.02 1256.68,235.508 C 1256.68,236.211 1257.27,236.465 1258.55,236.465 C 1262.48,236.465 1269.88,236.094 1270.47,236.094 C 1271.05,236.094 1278.46,236.465 1282.03,236.465 C 1283.3,236.465 1283.89,236.211 1283.89,235.508 C 1283.89,235.02 1283.4,234.805 1282.95,234.805 C 1282.13,234.805 1281.43,234.668 1280.02,234.434 C 1276.8,233.848 1275.86,231.836 1275.62,227.727 C 1275.39,223.965 1275.39,220.645 1275.39,202.285 L 1275.39,181.562"
             inkscape:connector-curvature="0"
             id="path64"
             style="fill:#231f20;fill-opacity:1;fill-rule:nonzero;stroke:none" /><path
             d="M 1315.06,195.352 C 1315.06,221.113 1329.8,234.094 1349.45,234.094 C 1368.05,234.094 1385.23,218.887 1385.23,190.625 C 1385.23,156.387 1363.32,150.273 1352.73,150.273 C 1331.54,150.273 1315.06,167.949 1315.06,195.352 z M 1388.18,138.867 C 1407.25,128.379 1422.4,123.066 1436.68,123.066 C 1454.1,123.066 1467.29,128.145 1473.98,131.191 C 1474.71,131.562 1474.94,131.895 1474.94,132.363 C 1474.94,132.715 1474.71,133.066 1474.22,133.066 C 1473.87,133.066 1473.28,132.832 1472.56,132.578 C 1464.47,129.336 1455.27,128.027 1449.38,128.027 C 1443.5,128.027 1425.62,128.633 1399.82,141.875 L 1375.68,154.375 C 1383.46,159.492 1396.54,173.223 1396.54,193.945 C 1396.54,221.23 1376.76,238.086 1350.29,238.086 C 1317.79,238.086 1303.89,211.113 1303.89,192.031 C 1303.89,170.859 1317.3,145.801 1349.94,145.801 C 1356.15,145.801 1364.16,147.559 1368.4,149.824 L 1388.18,138.867"
             inkscape:connector-curvature="0"
             id="path66"
             style="fill:#231f20;fill-opacity:1;fill-rule:nonzero;stroke:none" /><path
             d="M 1418.79,202.285 C 1418.79,220.645 1418.79,223.965 1418.55,227.727 C 1418.32,231.719 1417.38,233.613 1413.46,234.434 C 1412.52,234.668 1410.53,234.805 1409.47,234.805 C 1409.02,234.805 1408.54,235.02 1408.54,235.508 C 1408.54,236.211 1409.14,236.465 1410.41,236.465 C 1415.72,236.465 1422.89,236.094 1423.96,236.094 C 1425.02,236.094 1432.05,236.465 1435.61,236.465 C 1436.93,236.465 1437.5,236.211 1437.5,235.508 C 1437.5,235.02 1437.01,234.805 1436.58,234.805 C 1435.72,234.805 1435.02,234.668 1433.59,234.434 C 1430.41,233.977 1429.49,231.836 1429.26,227.727 C 1429.02,223.965 1429.02,220.645 1429.02,202.285 L 1429.02,185.82 C 1429.02,168.887 1432.77,161.543 1437.87,156.758 C 1443.61,151.309 1448.93,150.273 1455.62,150.273 C 1462.79,150.273 1469.84,153.672 1474.1,158.77 C 1479.51,165.449 1480.92,175.469 1480.92,187.598 L 1480.92,202.285 C 1480.92,220.645 1480.92,223.965 1480.68,227.727 C 1480.45,231.719 1479.51,233.613 1475.64,234.434 C 1474.71,234.668 1472.7,234.805 1471.62,234.805 C 1471.13,234.805 1470.68,235.02 1470.68,235.508 C 1470.68,236.211 1471.25,236.465 1472.56,236.465 C 1477.87,236.465 1484.36,236.094 1485.06,236.094 C 1485.88,236.094 1491.39,236.465 1494.96,236.465 C 1496.25,236.465 1496.82,236.211 1496.82,235.508 C 1496.82,235.02 1496.37,234.805 1495.9,234.805 C 1495.08,234.805 1494.36,234.805 1492.93,234.434 C 1489.73,233.848 1488.81,231.836 1488.57,227.727 C 1488.32,223.965 1488.32,220.645 1488.32,202.285 L 1488.32,189.688 C 1488.32,177.012 1486.93,162.852 1477.5,154.492 C 1469.04,146.973 1460.21,145.801 1453.24,145.801 C 1449.28,145.801 1437.38,146.27 1429.02,154.16 C 1423.24,159.707 1418.79,167.949 1418.79,185.117 L 1418.79,202.285"
             inkscape:connector-curvature="0"
             id="path68"
             style="fill:#231f20;fill-opacity:1;fill-rule:nonzero;stroke:none" /><path
             d="M 1523.3,202.285 C 1523.3,220.645 1523.3,223.965 1523.07,227.727 C 1522.83,231.719 1521.89,233.613 1517.99,234.434 C 1517.07,234.668 1515.08,234.805 1514,234.805 C 1513.54,234.805 1513.07,235.02 1513.07,235.508 C 1513.07,236.211 1513.65,236.465 1514.94,236.465 C 1520.23,236.465 1527.66,236.094 1528.24,236.094 C 1529.04,236.094 1552.5,236.094 1555.2,236.211 C 1557.42,236.328 1559.3,236.582 1560.25,236.809 C 1560.84,236.926 1561.33,237.375 1561.91,237.375 C 1562.29,237.375 1562.38,236.926 1562.38,236.328 C 1562.38,235.508 1561.8,234.094 1561.43,230.781 C 1561.33,229.609 1561.07,224.434 1560.84,223.02 C 1560.72,222.422 1560.49,221.699 1560.02,221.699 C 1559.3,221.699 1559.06,222.305 1559.06,223.242 C 1559.06,224.07 1558.96,226.094 1558.36,227.5 C 1557.56,229.375 1556.37,230.781 1550.02,231.465 C 1548.03,231.719 1535.2,231.836 1533.89,231.836 C 1533.44,231.836 1533.18,231.465 1533.18,230.645 L 1533.18,198.203 C 1533.18,197.363 1533.32,197.012 1533.89,197.012 C 1535.41,197.012 1549.88,197.012 1552.62,197.246 C 1555.43,197.48 1557.07,197.734 1558.11,198.887 C 1558.96,199.805 1559.41,200.391 1559.9,200.391 C 1560.25,200.391 1560.49,200.156 1560.49,199.453 C 1560.49,198.809 1559.9,196.777 1559.55,192.871 C 1559.3,190.488 1559.06,186.191 1559.06,185.371 C 1559.06,184.395 1559.06,183.105 1558.24,183.105 C 1557.68,183.105 1557.42,183.574 1557.42,184.18 C 1557.42,185.371 1557.42,186.543 1556.97,188.066 C 1556.48,189.688 1555.43,191.68 1550.84,192.148 C 1547.68,192.52 1536.02,192.754 1534.02,192.754 C 1533.44,192.754 1533.18,192.402 1533.18,191.934 L 1533.18,181.562 C 1533.18,177.598 1533.09,163.926 1533.18,161.426 C 1533.54,153.32 1535.33,151.777 1546.84,151.777 C 1549.88,151.777 1555.08,151.777 1558.11,153.086 C 1561.21,154.375 1562.64,156.758 1563.44,161.543 C 1563.69,162.852 1563.93,163.32 1564.49,163.32 C 1565.21,163.32 1565.21,162.383 1565.21,161.543 C 1565.21,160.625 1564.28,152.617 1563.69,150.176 C 1562.87,147.09 1561.91,147.09 1557.3,147.09 C 1539.51,147.09 1531.66,147.812 1528.24,147.812 C 1527.66,147.812 1520.23,147.461 1516.72,147.461 C 1515.43,147.461 1514.84,147.695 1514.84,148.398 C 1514.84,148.75 1515.08,149.121 1515.78,149.121 C 1516.84,149.121 1518.24,149.355 1519.26,149.59 C 1521.64,150.059 1522.23,152.617 1522.71,156.035 C 1523.3,160.957 1523.3,170.273 1523.3,181.562 L 1523.3,202.285"
             inkscape:connector-curvature="0"
             id="path70"
             style="fill:#231f20;fill-opacity:1;fill-rule:nonzero;stroke:none" /><path
             d="M 12.4766,61.0742 C 12.4766,79.4141 12.4766,82.6953 12.2422,86.4844 C 12.0078,90.5078 11.0703,92.3438 7.18359,93.1641 C 6.24609,93.3984 4.24219,93.5156 3.17578,93.5156 C 2.71094,93.5156 2.24219,93.75 2.24219,94.2188 C 2.24219,94.9414 2.83203,95.1758 4.125,95.1758 C 9.41797,95.1758 16.832,94.8047 17.4219,94.8047 C 19.7734,94.8047 43.668,94.8047 46.3828,94.9414 C 48.6172,95.0586 50.5,95.0586 51.5547,95.4102 C 52.2734,95.6445 52.7383,96.1133 53.2031,96.1133 C 53.6875,96.1133 53.918,95.6445 53.918,95.0586 C 53.918,94.2188 53.3242,92.8125 52.9688,89.5508 C 52.8594,88.3594 52.6211,83.1641 52.3789,81.7969 C 52.2734,81.2109 52.0312,80.4883 51.4453,80.4883 C 50.8555,80.4883 50.625,81.0742 50.625,81.9141 C 50.625,82.832 50.2695,84.8242 49.5625,86.3477 C 48.8516,87.8906 46.1367,90.0195 41.5586,90.1367 L 23.4219,90.5078 C 22.7266,90.5078 22.3633,90.1367 22.3633,89.1797 L 22.3633,56.6797 C 22.3633,55.957 22.4883,55.625 23.1875,55.625 L 38.2617,55.7422 C 40.2578,55.7422 41.9141,55.7422 43.5586,55.8594 C 46.3828,56.0938 47.9141,56.4453 48.9648,57.9883 C 49.4414,58.5938 49.7969,59.1797 50.2695,59.1797 C 50.7305,59.1797 50.8555,58.8086 50.8555,58.2227 C 50.8555,57.5195 50.2695,55.4883 49.9062,51.6602 C 49.6797,49.2969 49.4414,44.5508 49.4414,43.7305 C 49.4414,42.7148 49.4414,41.5234 48.6172,41.5234 C 48.0273,41.5234 47.7969,41.9922 47.7969,42.5781 C 47.6797,43.7305 47.5547,45.3711 47.0898,46.7969 C 46.4922,48.457 44.6172,50.5859 40.9688,51.0547 C 38.0234,51.4062 25.1953,51.4062 23.1875,51.4062 C 22.5977,51.4062 22.3633,51.1914 22.3633,50.3516 L 22.3633,40.332 C 22.3633,29.043 22.3633,19.7461 22.9609,14.7852 C 23.3164,11.3867 24.0156,8.78906 27.5508,8.32031 C 29.1953,8.06641 31.793,7.83203 32.8477,7.83203 C 33.5469,7.83203 33.7734,7.48047 33.7734,7.12891 C 33.7734,6.52344 33.1992,6.19141 31.8984,6.19141 C 25.4297,6.19141 18.0195,6.52344 17.4219,6.52344 C 16.832,6.52344 9.41797,6.19141 5.89062,6.19141 C 4.58594,6.19141 4.00781,6.40625 4.00781,7.12891 C 4.00781,7.48047 4.24219,7.83203 4.94531,7.83203 C 6.00781,7.83203 7.41797,8.06641 8.48438,8.32031 C 10.832,8.78906 11.4219,11.3867 11.8906,14.7852 C 12.4766,19.7461 12.4766,29.043 12.4766,40.332 L 12.4766,61.0742"
             inkscape:connector-curvature="0"
             id="path72"
             style="fill:#231f20;fill-opacity:1;fill-rule:nonzero;stroke:none" /><path
             d="M 116.301,111.211 C 116.875,110.156 116.301,109.785 115.82,109.785 C 115.477,109.785 114.301,110.039 112.297,109.785 C 106.523,109.199 98.293,106.484 94.4023,104.824 C 93.5859,104.473 92.8711,104.238 92.6367,104.238 C 92.4062,104.238 92.0508,104.473 92.0508,104.941 C 92.0508,105.293 92.2812,105.547 92.8711,105.898 C 97.1172,108.848 108.066,115.43 108.887,115.898 C 110.883,117.09 111.594,117.441 112.18,117.441 C 112.527,117.441 112.766,117.207 113.352,116.367 C 114.176,115.195 115,113.535 116.301,111.211 z M 82.1562,61.0742 C 82.1562,79.4141 82.1562,82.6953 81.9258,86.4844 C 81.6953,90.5078 80.7539,92.3438 76.8711,93.1641 C 75.918,93.3984 73.9258,93.5156 72.8555,93.5156 C 72.3945,93.5156 71.918,93.75 71.918,94.2188 C 71.918,94.9414 72.5117,95.1758 73.8086,95.1758 C 79.1055,95.1758 86.5195,94.8047 87.1094,94.8047 C 87.9219,94.8047 111.355,94.8047 114.07,94.9414 C 116.301,95.0586 118.184,95.293 119.125,95.5273 C 119.707,95.6445 120.188,96.1133 120.77,96.1133 C 121.125,96.1133 121.238,95.6445 121.238,95.0586 C 121.238,94.2188 120.652,92.8125 120.305,89.5508 C 120.188,88.3594 119.949,83.1641 119.707,81.7969 C 119.59,81.2109 119.355,80.4883 118.887,80.4883 C 118.184,80.4883 117.945,81.0742 117.945,82.0117 C 117.945,82.832 117.832,84.8242 117.234,86.2305 C 116.418,88.1445 115.234,89.5508 108.887,90.2539 C 106.879,90.5078 94.0547,90.625 92.7539,90.625 C 92.2812,90.625 92.0508,90.2539 92.0508,89.4336 L 92.0508,56.9336 C 92.0508,56.0938 92.168,55.7422 92.7539,55.7422 C 94.2852,55.7422 108.762,55.7422 111.477,55.957 C 114.301,56.2109 115.945,56.4453 117.004,57.6172 C 117.832,58.5938 118.301,59.1797 118.77,59.1797 C 119.125,59.1797 119.355,58.9453 119.355,58.2227 C 119.355,57.5195 118.77,55.4883 118.418,51.6602 C 118.184,49.2969 117.945,44.9023 117.945,44.1016 C 117.945,43.1641 117.945,41.8945 117.117,41.8945 C 116.543,41.8945 116.301,42.3633 116.301,42.9492 C 116.301,44.1016 116.301,45.2539 115.82,46.7969 C 115.359,48.457 114.301,50.4688 109.707,50.9375 C 106.523,51.2891 94.8789,51.5234 92.8711,51.5234 C 92.2812,51.5234 92.0508,51.1914 92.0508,50.7031 L 92.0508,40.332 C 92.0508,36.3086 91.9336,22.6953 92.0508,20.2148 C 92.4062,12.0898 94.1719,10.5664 105.703,10.5664 C 108.762,10.5664 113.945,10.5664 117.004,11.875 C 120.066,13.1641 121.484,15.4883 122.305,20.332 C 122.539,21.6406 122.773,22.1094 123.359,22.1094 C 124.066,22.1094 124.066,21.1523 124.066,20.332 C 124.066,19.375 123.125,11.3867 122.539,8.90625 C 121.711,5.83984 120.77,5.83984 116.184,5.83984 C 98.4062,5.83984 90.5195,6.52344 87.1094,6.52344 C 86.5195,6.52344 79.1055,6.19141 75.5703,6.19141 C 74.2734,6.19141 73.6836,6.40625 73.6836,7.12891 C 73.6836,7.48047 73.9258,7.83203 74.6289,7.83203 C 75.6836,7.83203 77.1016,8.06641 78.1523,8.32031 C 80.5078,8.78906 81.1016,11.3867 81.5781,14.7852 C 82.1562,19.7461 82.1562,29.043 82.1562,40.332 L 82.1562,61.0742"
             inkscape:connector-curvature="0"
             id="path74"
             style="fill:#231f20;fill-opacity:1;fill-rule:nonzero;stroke:none" /><path
             d="M 163.855,62.9492 C 163.855,72.0312 163.855,83.9844 163.977,88.0078 C 163.977,89.3164 164.316,89.9023 165.375,90.3711 C 166.328,90.8398 170.684,91.2109 173.027,91.2109 C 187.043,91.2109 200.469,89.5508 211.52,77.8711 C 216.352,72.8125 222.82,63.1641 222.82,48.2227 C 222.82,37.3828 219.531,26.0742 213.406,20.0977 C 206.465,13.1641 196.34,9.14062 185.391,9.14062 C 171.504,9.14062 166.902,11.6211 165.375,13.8477 C 164.434,15.1562 164.199,19.8438 164.094,22.8125 C 163.977,25 163.855,35.8398 163.855,48.3398 L 163.855,62.9492 z M 153.965,40.332 C 153.965,29.043 153.965,19.7461 153.367,14.7852 C 152.91,11.3867 152.312,8.78906 149.949,8.32031 C 148.895,8.06641 147.488,7.83203 146.426,7.83203 C 145.723,7.83203 145.488,7.48047 145.488,7.12891 C 145.488,6.40625 146.074,6.19141 147.375,6.19141 C 150.898,6.19141 158.32,6.52344 158.906,6.52344 C 160.078,6.52344 174.91,5.13672 185.039,5.13672 C 205.051,5.13672 215.637,13.3984 220.715,18.6719 C 227.301,25.6055 233.414,37.0312 233.414,51.875 C 233.414,65.8594 227.883,75.625 222.004,81.7969 C 207.988,96.25 186.457,95.1758 174.805,95.1758 C 167.734,95.1758 160.32,94.8047 158.906,94.8047 C 158.312,94.8047 150.898,95.1758 145.605,95.1758 C 144.316,95.1758 143.723,94.9414 143.723,94.2188 C 143.723,93.75 144.199,93.5156 144.668,93.5156 C 145.723,93.5156 147.727,93.3984 148.66,93.1641 C 152.551,92.3438 153.484,90.5078 153.73,86.4844 C 153.965,82.6953 153.965,79.4141 153.965,61.0742 L 153.965,40.332"
             inkscape:connector-curvature="0"
             id="path76"
             style="fill:#231f20;fill-opacity:1;fill-rule:nonzero;stroke:none" /><path
             d="M 291.328,111.211 C 291.918,110.156 291.328,109.785 290.859,109.785 C 290.504,109.785 289.332,110.039 287.324,109.785 C 281.562,109.199 273.316,106.484 269.434,104.824 C 268.609,104.473 267.898,104.238 267.672,104.238 C 267.438,104.238 267.082,104.473 267.082,104.941 C 267.082,105.293 267.309,105.547 267.898,105.898 C 272.141,108.848 283.082,115.43 283.906,115.898 C 285.906,117.09 286.621,117.441 287.207,117.441 C 287.559,117.441 287.797,117.207 288.379,116.367 C 289.203,115.195 290.027,113.535 291.328,111.211 z M 257.188,61.0742 C 257.188,79.4141 257.188,82.6953 256.953,86.4844 C 256.719,90.5078 255.77,92.3438 251.895,93.1641 C 250.957,93.3984 248.957,93.5156 247.891,93.5156 C 247.422,93.5156 246.953,93.75 246.953,94.2188 C 246.953,94.9414 247.539,95.1758 248.84,95.1758 C 254.121,95.1758 261.543,94.8047 262.141,94.8047 C 262.961,94.8047 286.379,94.8047 289.094,94.9414 C 291.328,95.0586 293.203,95.293 294.156,95.5273 C 294.746,95.6445 295.211,96.1133 295.801,96.1133 C 296.16,96.1133 296.27,95.6445 296.27,95.0586 C 296.27,94.2188 295.676,92.8125 295.328,89.5508 C 295.211,88.3594 294.98,83.1641 294.746,81.7969 C 294.617,81.2109 294.391,80.4883 293.926,80.4883 C 293.203,80.4883 292.973,81.0742 292.973,82.0117 C 292.973,82.832 292.855,84.8242 292.266,86.2305 C 291.445,88.1445 290.27,89.5508 283.906,90.2539 C 281.91,90.5078 269.082,90.625 267.781,90.625 C 267.309,90.625 267.082,90.2539 267.082,89.4336 L 267.082,56.9336 C 267.082,56.0938 267.207,55.7422 267.781,55.7422 C 269.316,55.7422 283.801,55.7422 286.504,55.957 C 289.332,56.2109 290.977,56.4453 292.035,57.6172 C 292.855,58.5938 293.332,59.1797 293.801,59.1797 C 294.156,59.1797 294.391,58.9453 294.391,58.2227 C 294.391,57.5195 293.801,55.4883 293.445,51.6602 C 293.203,49.2969 292.973,44.9023 292.973,44.1016 C 292.973,43.1641 292.973,41.8945 292.148,41.8945 C 291.562,41.8945 291.328,42.3633 291.328,42.9492 C 291.328,44.1016 291.328,45.2539 290.859,46.7969 C 290.387,48.457 289.332,50.4688 284.73,50.9375 C 281.562,51.2891 269.906,51.5234 267.898,51.5234 C 267.309,51.5234 267.082,51.1914 267.082,50.7031 L 267.082,40.332 C 267.082,36.3086 266.965,22.6953 267.082,20.2148 C 267.438,12.0898 269.199,10.5664 280.738,10.5664 C 283.801,10.5664 288.977,10.5664 292.035,11.875 C 295.094,13.1641 296.5,15.4883 297.324,20.332 C 297.562,21.6406 297.809,22.1094 298.391,22.1094 C 299.098,22.1094 299.098,21.1523 299.098,20.332 C 299.098,19.375 298.145,11.3867 297.562,8.90625 C 296.742,5.83984 295.801,5.83984 291.211,5.83984 C 273.434,5.83984 265.559,6.52344 262.141,6.52344 C 261.543,6.52344 254.121,6.19141 250.602,6.19141 C 249.297,6.19141 248.723,6.40625 248.723,7.12891 C 248.723,7.48047 248.957,7.83203 249.656,7.83203 C 250.715,7.83203 252.129,8.06641 253.191,8.32031 C 255.535,8.78906 256.133,11.3867 256.602,14.7852 C 257.188,19.7461 257.188,29.043 257.188,40.332 L 257.188,61.0742"
             inkscape:connector-curvature="0"
             id="path78"
             style="fill:#231f20;fill-opacity:1;fill-rule:nonzero;stroke:none" /><path
             d="M 338.406,89.3164 C 338.406,90.0195 338.766,90.5078 339.355,90.7227 C 340.523,91.0938 343.707,91.4453 347.234,91.4453 C 359.84,91.4453 367.598,82.5781 367.598,67.8906 C 367.598,58.9453 364.535,52.5977 360.414,49.7656 C 357.711,47.8516 354.414,47.5195 351.594,47.5195 C 346.41,47.5195 341,48.3398 339.227,49.3945 C 338.637,49.7656 338.406,50.2148 338.406,50.8203 L 338.406,89.3164 z M 328.988,40.332 C 328.988,29.043 328.988,19.7461 328.402,14.7852 C 327.93,11.3867 327.344,8.78906 324.988,8.32031 C 323.938,8.06641 322.512,7.83203 321.457,7.83203 C 320.758,7.83203 320.52,7.48047 320.52,7.12891 C 320.52,6.40625 321.109,6.19141 322.402,6.19141 C 325.934,6.19141 333.355,6.52344 333.469,6.52344 C 334.047,6.52344 341.469,6.19141 347.945,6.19141 C 349.238,6.19141 349.82,6.52344 349.82,7.12891 C 349.82,7.48047 349.59,7.83203 348.891,7.83203 C 347.828,7.83203 345.238,8.06641 343.578,8.32031 C 340.059,8.78906 339.355,11.3867 339,14.7852 C 338.406,19.7461 338.406,29.043 338.406,40.332 L 338.406,43.1641 C 338.406,43.7305 338.637,44.1016 339.227,44.1016 L 353.707,43.8672 C 354.414,43.8672 354.77,43.6133 355.238,43.1641 C 357.602,40.0977 363.129,32.2266 368.07,25.7227 C 374.781,16.8945 378.906,11.1523 383.961,8.41797 C 387.02,6.75781 389.965,6.19141 396.559,6.19141 L 404.914,6.19141 C 407.035,6.19141 407.734,6.40625 407.734,7.12891 C 407.734,7.48047 407.27,7.83203 406.676,7.83203 C 405.973,7.83203 404.32,7.83203 402.086,8.20312 C 399.148,8.67188 394.086,9.98047 387.73,16.6406 C 380.906,23.9648 372.895,34.4336 363.238,46.7969 C 373.84,56.5625 377.484,65.2539 377.484,73.9844 C 377.484,82.1289 372.309,87.8906 369.371,90.0195 C 363.129,94.4531 355.238,95.1758 347.828,95.1758 C 344.172,95.1758 335.234,94.8047 333.93,94.8047 C 333.355,94.8047 325.934,95.1758 320.637,95.1758 C 319.34,95.1758 318.754,94.9414 318.754,94.2188 C 318.754,93.75 319.215,93.5156 319.691,93.5156 C 320.758,93.5156 322.754,93.3984 323.695,93.1641 C 327.59,92.3438 328.52,90.5078 328.75,86.4844 C 328.988,82.6953 328.988,79.4141 328.988,61.0742 L 328.988,40.332"
             inkscape:connector-curvature="0"
             id="path80"
             style="fill:#231f20;fill-opacity:1;fill-rule:nonzero;stroke:none" /><path
             d="M 424.441,45.1367 C 424.105,45.1367 423.863,45.3711 424.105,45.9766 L 434.465,77.7734 C 435.043,79.5508 435.625,79.5508 436.215,77.7734 L 447.406,45.9766 C 447.523,45.4883 447.523,45.1367 446.93,45.1367 L 424.441,45.1367 z M 407.977,19.1602 C 405.855,13.2812 403.5,8.78906 398.086,8.06641 C 397.145,7.94922 395.488,7.83203 394.664,7.83203 C 394.086,7.83203 393.609,7.59766 393.609,7.12891 C 393.609,6.40625 394.316,6.19141 395.852,6.19141 C 401.383,6.19141 407.852,6.52344 409.145,6.52344 C 410.449,6.52344 415.504,6.19141 418.336,6.19141 C 419.391,6.19141 420.098,6.40625 420.098,7.12891 C 420.098,7.59766 419.746,7.83203 418.922,7.83203 L 417.746,7.83203 C 415.746,7.83203 413.266,8.90625 413.266,11.2695 C 413.266,13.3984 413.855,16.1719 414.914,19.1602 L 421.973,40 C 422.219,40.5664 422.566,40.918 423.16,40.918 L 448.461,40.918 C 449.055,40.918 449.289,40.7031 449.527,40.2344 L 460.473,11.2695 C 461.184,9.375 460.473,8.32031 459.766,8.06641 C 459.293,7.94922 458.945,7.71484 458.945,7.24609 C 458.945,6.52344 460.23,6.52344 462.473,6.40625 C 470.598,6.19141 479.188,6.19141 480.953,6.19141 C 482.25,6.19141 483.305,6.40625 483.305,7.12891 C 483.305,7.71484 482.844,7.83203 482.125,7.83203 C 480.953,7.83203 479.188,7.94922 477.418,8.53516 C 474.945,9.25781 471.539,11.1523 467.305,21.6406 C 460.129,39.5117 441.633,88.1445 439.867,92.5977 C 438.461,96.25 437.988,96.8359 437.281,96.8359 C 436.57,96.8359 436.109,96.1133 434.695,92.2461 L 407.977,19.1602"
             inkscape:connector-curvature="0"
             id="path82"
             style="fill:#231f20;fill-opacity:1;fill-rule:nonzero;stroke:none" /><path
             d="M 510.023,40.0977 C 510.023,22.8125 510.504,15.2344 512.613,13.1641 C 514.504,11.2695 517.562,10.4492 526.738,10.4492 C 532.977,10.4492 538.148,10.5664 540.98,13.9844 C 542.512,15.8203 543.691,18.7891 544.039,21.0352 C 544.156,21.9922 544.398,22.5781 545.105,22.5781 C 545.699,22.5781 545.805,22.1094 545.805,20.8008 C 545.805,19.4922 544.98,12.4609 544.039,9.02344 C 543.227,6.28906 542.871,5.83984 536.633,5.83984 C 519.68,5.83984 511.902,6.52344 505.078,6.52344 C 504.023,6.52344 497.086,6.19141 493.551,6.19141 C 492.25,6.19141 491.66,6.40625 491.66,7.12891 C 491.66,7.48047 491.898,7.83203 492.605,7.83203 C 493.664,7.83203 495.078,8.06641 496.133,8.32031 C 498.484,8.78906 499.082,11.3867 499.555,14.7852 C 500.137,19.7461 500.137,29.043 500.137,40.332 L 500.137,61.0742 C 500.137,79.4141 500.137,82.6953 499.902,86.4844 C 499.664,90.5078 498.73,92.3438 494.848,93.1641 C 493.895,93.3984 491.898,93.5156 490.836,93.5156 C 490.359,93.5156 489.898,93.75 489.898,94.2188 C 489.898,94.9414 490.488,95.1758 491.789,95.1758 C 497.086,95.1758 504.496,94.8047 505.078,94.8047 C 505.668,94.8047 514.273,95.1758 517.797,95.1758 C 519.086,95.1758 519.68,94.9414 519.68,94.2188 C 519.68,93.75 519.211,93.5156 518.727,93.5156 C 517.91,93.5156 516.254,93.3984 514.848,93.1641 C 511.441,92.5977 510.504,90.625 510.258,86.4844 C 510.023,82.6953 510.023,79.4141 510.023,61.0742 L 510.023,40.0977"
             inkscape:connector-curvature="0"
             id="path84"
             style="fill:#231f20;fill-opacity:1;fill-rule:nonzero;stroke:none" /><path
             d="M 569.82,61.0742 C 569.82,79.4141 569.82,82.6953 569.582,86.4844 C 569.348,90.5078 568.414,92.3438 564.52,93.1641 C 563.578,93.3984 561.582,93.5156 560.52,93.5156 C 560.051,93.5156 559.582,93.75 559.582,94.2188 C 559.582,94.9414 560.172,95.1758 561.457,95.1758 C 566.758,95.1758 574.18,94.8047 574.762,94.8047 C 575.582,94.8047 599.023,94.8047 601.723,94.9414 C 603.961,95.0586 605.84,95.293 606.777,95.5273 C 607.367,95.6445 607.832,96.1133 608.43,96.1133 C 608.789,96.1133 608.902,95.6445 608.902,95.0586 C 608.902,94.2188 608.312,92.8125 607.961,89.5508 C 607.832,88.3594 607.598,83.1641 607.367,81.7969 C 607.25,81.2109 607.012,80.4883 606.547,80.4883 C 605.84,80.4883 605.605,81.0742 605.605,82.0117 C 605.605,82.832 605.488,84.8242 604.898,86.2305 C 604.078,88.1445 602.891,89.5508 596.543,90.2539 C 594.535,90.5078 581.711,90.625 580.414,90.625 C 579.945,90.625 579.703,90.2539 579.703,89.4336 L 579.703,56.9336 C 579.703,56.0938 579.828,55.7422 580.414,55.7422 C 581.941,55.7422 596.426,55.7422 599.125,55.957 C 601.953,56.2109 603.602,56.4453 604.652,57.6172 C 605.488,58.5938 605.957,59.1797 606.43,59.1797 C 606.777,59.1797 607.012,58.9453 607.012,58.2227 C 607.012,57.5195 606.43,55.4883 606.074,51.6602 C 605.84,49.2969 605.605,44.9023 605.605,44.1016 C 605.605,43.1641 605.605,41.8945 604.781,41.8945 C 604.195,41.8945 603.961,42.3633 603.961,42.9492 C 603.961,44.1016 603.961,45.2539 603.484,46.7969 C 603.008,48.457 601.953,50.4688 597.367,50.9375 C 594.184,51.2891 582.527,51.5234 580.523,51.5234 C 579.945,51.5234 579.703,51.1914 579.703,50.7031 L 579.703,40.332 C 579.703,36.3086 579.594,22.6953 579.703,20.2148 C 580.059,12.0898 581.836,10.5664 593.359,10.5664 C 596.426,10.5664 601.598,10.5664 604.652,11.875 C 607.715,13.1641 609.141,15.4883 609.961,20.332 C 610.195,21.6406 610.43,22.1094 611.023,22.1094 C 611.719,22.1094 611.719,21.1523 611.719,20.332 C 611.719,19.375 610.793,11.3867 610.195,8.90625 C 609.375,5.83984 608.43,5.83984 603.84,5.83984 C 586.062,5.83984 578.18,6.52344 574.762,6.52344 C 574.18,6.52344 566.758,6.19141 563.23,6.19141 C 561.934,6.19141 561.344,6.40625 561.344,7.12891 C 561.344,7.48047 561.582,7.83203 562.285,7.83203 C 563.34,7.83203 564.766,8.06641 565.816,8.32031 C 568.176,8.78906 568.75,11.3867 569.238,14.7852 C 569.82,19.7461 569.82,29.043 569.82,40.332 L 569.82,61.0742"
             inkscape:connector-curvature="0"
             id="path86"
             style="fill:#231f20;fill-opacity:1;fill-rule:nonzero;stroke:none" /><path
             d="M 689.758,62.9492 C 689.758,72.0312 689.758,83.9844 689.875,88.0078 C 689.875,89.3164 690.227,89.9023 691.301,90.3711 C 692.227,90.8398 696.598,91.2109 698.945,91.2109 C 712.949,91.2109 726.367,89.5508 737.434,77.8711 C 742.266,72.8125 748.73,63.1641 748.73,48.2227 C 748.73,37.3828 745.434,26.0742 739.316,20.0977 C 732.375,13.1641 722.246,9.14062 711.301,9.14062 C 697.414,9.14062 692.82,11.6211 691.301,13.8477 C 690.352,15.1562 690.105,19.8438 689.988,22.8125 C 689.875,25 689.758,35.8398 689.758,48.3398 L 689.758,62.9492 z M 679.867,40.332 C 679.867,29.043 679.867,19.7461 679.289,14.7852 C 678.816,11.3867 678.223,8.78906 675.871,8.32031 C 674.805,8.06641 673.398,7.83203 672.348,7.83203 C 671.641,7.83203 671.406,7.48047 671.406,7.12891 C 671.406,6.40625 671.992,6.19141 673.281,6.19141 C 676.816,6.19141 684.238,6.52344 684.82,6.52344 C 685.996,6.52344 700.832,5.13672 710.957,5.13672 C 730.945,5.13672 741.555,13.3984 746.621,18.6719 C 753.203,25.6055 759.328,37.0312 759.328,51.875 C 759.328,65.8594 753.801,75.625 747.898,81.7969 C 733.895,96.25 712.363,95.1758 700.715,95.1758 C 693.652,95.1758 686.238,94.8047 684.82,94.8047 C 684.238,94.8047 676.816,95.1758 671.523,95.1758 C 670.219,95.1758 669.641,94.9414 669.641,94.2188 C 669.641,93.75 670.105,93.5156 670.566,93.5156 C 671.641,93.5156 673.645,93.3984 674.582,93.1641 C 678.457,92.3438 679.414,90.5078 679.645,86.4844 C 679.867,82.6953 679.867,79.4141 679.867,61.0742 L 679.867,40.332"
             inkscape:connector-curvature="0"
             id="path88"
             style="fill:#231f20;fill-opacity:1;fill-rule:nonzero;stroke:none" /><path
             d="M 787.812,61.0742 C 787.812,79.4141 787.812,82.6953 787.578,86.4844 C 787.336,90.5078 786.406,92.3438 782.512,93.1641 C 781.582,93.3984 779.562,93.5156 778.516,93.5156 C 778.039,93.5156 777.566,93.75 777.566,94.2188 C 777.566,94.9414 778.152,95.1758 779.453,95.1758 C 784.746,95.1758 792.156,94.8047 792.754,94.8047 C 793.586,94.8047 817.004,94.8047 819.688,94.9414 C 821.941,95.0586 823.848,95.293 824.785,95.5273 C 825.371,95.6445 825.832,96.1133 826.418,96.1133 C 826.777,96.1133 826.902,95.6445 826.902,95.0586 C 826.902,94.2188 826.301,92.8125 825.945,89.5508 C 825.832,88.3594 825.586,83.1641 825.371,81.7969 C 825.254,81.2109 825.02,80.4883 824.57,80.4883 C 823.848,80.4883 823.594,81.0742 823.594,82.0117 C 823.594,82.832 823.496,84.8242 822.91,86.2305 C 822.062,88.1445 820.891,89.5508 814.551,90.2539 C 812.539,90.5078 799.688,90.625 798.406,90.625 C 797.938,90.625 797.715,90.2539 797.715,89.4336 L 797.715,56.9336 C 797.715,56.0938 797.812,55.7422 798.406,55.7422 C 799.922,55.7422 814.414,55.7422 817.121,55.957 C 819.941,56.2109 821.594,56.4453 822.668,57.6172 C 823.496,58.5938 823.965,59.1797 824.434,59.1797 C 824.785,59.1797 825.02,58.9453 825.02,58.2227 C 825.02,57.5195 824.434,55.4883 824.082,51.6602 C 823.848,49.2969 823.594,44.9023 823.594,44.1016 C 823.594,43.1641 823.594,41.8945 822.773,41.8945 C 822.188,41.8945 821.941,42.3633 821.941,42.9492 C 821.941,44.1016 821.941,45.2539 821.477,46.7969 C 821.008,48.457 819.941,50.4688 815.371,50.9375 C 812.18,51.2891 800.508,51.5234 798.523,51.5234 C 797.938,51.5234 797.715,51.1914 797.715,50.7031 L 797.715,40.332 C 797.715,36.3086 797.578,22.6953 797.715,20.2148 C 798.059,12.0898 799.785,10.5664 811.348,10.5664 C 814.414,10.5664 819.59,10.5664 822.668,11.875 C 825.703,13.1641 827.129,15.4883 827.949,20.332 C 828.164,21.6406 828.398,22.1094 828.984,22.1094 C 829.707,22.1094 829.707,21.1523 829.707,20.332 C 829.707,19.375 828.75,11.3867 828.164,8.90625 C 827.363,5.83984 826.418,5.83984 821.836,5.83984 C 804.062,5.83984 796.191,6.52344 792.754,6.52344 C 792.156,6.52344 784.746,6.19141 781.223,6.19141 C 779.922,6.19141 779.348,6.40625 779.348,7.12891 C 779.348,7.48047 779.562,7.83203 780.273,7.83203 C 781.348,7.83203 782.754,8.06641 783.816,8.32031 C 786.172,8.78906 786.75,11.3867 787.219,14.7852 C 787.812,19.7461 787.812,29.043 787.812,40.332 L 787.812,61.0742"
             inkscape:connector-curvature="0"
             id="path90"
             style="fill:#231f20;fill-opacity:1;fill-rule:nonzero;stroke:none" /><path
             d="M 907.754,40.0977 C 907.754,22.8125 908.223,15.2344 910.352,13.1641 C 912.227,11.2695 915.273,10.4492 924.473,10.4492 C 930.703,10.4492 935.859,10.5664 938.711,13.9844 C 940.254,15.8203 941.426,18.7891 941.777,21.0352 C 941.895,21.9922 942.129,22.5781 942.82,22.5781 C 943.406,22.5781 943.535,22.1094 943.535,20.8008 C 943.535,19.4922 942.707,12.4609 941.777,9.02344 C 940.977,6.28906 940.605,5.83984 934.355,5.83984 C 917.402,5.83984 909.641,6.52344 902.832,6.52344 C 901.758,6.52344 894.812,6.19141 891.289,6.19141 C 889.98,6.19141 889.387,6.40625 889.387,7.12891 C 889.387,7.48047 889.629,7.83203 890.32,7.83203 C 891.387,7.83203 892.832,8.06641 893.867,8.32031 C 896.203,8.78906 896.797,11.3867 897.266,14.7852 C 897.871,19.7461 897.871,29.043 897.871,40.332 L 897.871,61.0742 C 897.871,79.4141 897.871,82.6953 897.617,86.4844 C 897.383,90.5078 896.445,92.3438 892.578,93.1641 C 891.641,93.3984 889.629,93.5156 888.574,93.5156 C 888.086,93.5156 887.617,93.75 887.617,94.2188 C 887.617,94.9414 888.223,95.1758 889.512,95.1758 C 894.812,95.1758 902.246,94.8047 902.832,94.8047 C 903.398,94.8047 912.012,95.1758 915.527,95.1758 C 916.797,95.1758 917.402,94.9414 917.402,94.2188 C 917.402,93.75 916.914,93.5156 916.445,93.5156 C 915.637,93.5156 913.996,93.3984 912.598,93.1641 C 909.16,92.5977 908.223,90.625 907.988,86.4844 C 907.754,82.6953 907.754,79.4141 907.754,61.0742 L 907.754,40.0977"
             inkscape:connector-curvature="0"
             id="path92"
             style="fill:#231f20;fill-opacity:1;fill-rule:nonzero;stroke:none" /><path
             d="M 976.602,45.1367 C 976.25,45.1367 976.016,45.3711 976.25,45.9766 L 986.602,77.7734 C 987.188,79.5508 987.793,79.5508 988.398,77.7734 L 999.57,45.9766 C 999.707,45.4883 999.707,45.1367 999.102,45.1367 L 976.602,45.1367 z M 960.156,19.1602 C 958.008,13.2812 955.645,8.78906 950.273,8.06641 C 949.297,7.94922 947.645,7.83203 946.816,7.83203 C 946.23,7.83203 945.742,7.59766 945.742,7.12891 C 945.742,6.40625 946.465,6.19141 948.008,6.19141 C 953.535,6.19141 960.02,6.52344 961.328,6.52344 C 962.617,6.52344 967.656,6.19141 970.527,6.19141 C 971.582,6.19141 972.266,6.40625 972.266,7.12891 C 972.266,7.59766 971.934,7.83203 971.113,7.83203 L 969.922,7.83203 C 967.891,7.83203 965.41,8.90625 965.41,11.2695 C 965.41,13.3984 965.996,16.1719 967.07,19.1602 L 974.121,40 C 974.355,40.5664 974.707,40.918 975.293,40.918 L 1000.64,40.918 C 1001.23,40.918 1001.45,40.7031 1001.7,40.2344 L 1012.62,11.2695 C 1013.32,9.375 1012.62,8.32031 1011.91,8.06641 C 1011.45,7.94922 1011.11,7.71484 1011.11,7.24609 C 1011.11,6.52344 1012.36,6.52344 1014.63,6.40625 C 1022.73,6.19141 1031.33,6.19141 1033.11,6.19141 C 1034.39,6.19141 1035.47,6.40625 1035.47,7.12891 C 1035.47,7.71484 1034.98,7.83203 1034.28,7.83203 C 1033.11,7.83203 1031.33,7.94922 1029.61,8.53516 C 1027.11,9.25781 1023.67,11.1523 1019.47,21.6406 C 1012.27,39.5117 993.789,88.1445 992.051,92.5977 C 990.645,96.25 990.176,96.8359 989.453,96.8359 C 988.75,96.8359 988.262,96.1133 986.855,92.2461 L 960.156,19.1602"
             inkscape:connector-curvature="0"
             id="path94"
             style="fill:#231f20;fill-opacity:1;fill-rule:nonzero;stroke:none" /><path
             d="M 1045.47,61.0742 C 1045.47,79.4141 1045.47,82.6953 1045.23,86.4844 C 1044.98,90.5078 1044.06,92.3438 1040.2,93.1641 C 1039.26,93.3984 1037.25,93.5156 1036.17,93.5156 C 1035.68,93.5156 1035.21,93.75 1035.21,94.2188 C 1035.21,94.9414 1035.82,95.1758 1037.13,95.1758 C 1042.4,95.1758 1049.61,94.8047 1050.64,94.8047 C 1051.7,94.8047 1058.79,95.1758 1062.29,95.1758 C 1063.59,95.1758 1064.16,94.9414 1064.16,94.2188 C 1064.16,93.75 1063.73,93.5156 1063.24,93.5156 C 1062.4,93.5156 1061.7,93.3984 1060.29,93.1641 C 1057.13,92.7148 1056.17,90.625 1055.94,86.4844 C 1055.72,82.6953 1055.72,79.4141 1055.72,61.0742 L 1055.72,44.5508 C 1055.72,27.5977 1059.49,20.332 1064.53,15.4883 C 1070.31,10.0781 1075.61,9.02344 1082.3,9.02344 C 1089.47,9.02344 1096.58,12.4609 1100.78,17.4805 C 1106.21,24.1992 1107.62,34.2188 1107.62,46.3281 L 1107.62,61.0742 C 1107.62,79.4141 1107.62,82.6953 1107.4,86.4844 C 1107.19,90.5078 1106.21,92.3438 1102.3,93.1641 C 1101.37,93.3984 1099.36,93.5156 1098.34,93.5156 C 1097.89,93.5156 1097.4,93.75 1097.4,94.2188 C 1097.4,94.9414 1097.99,95.1758 1099.26,95.1758 C 1104.55,95.1758 1111.02,94.8047 1111.74,94.8047 C 1112.56,94.8047 1118.11,95.1758 1121.62,95.1758 C 1122.91,95.1758 1123.52,94.9414 1123.52,94.2188 C 1123.52,93.75 1123.05,93.5156 1122.56,93.5156 C 1121.74,93.5156 1121.04,93.5156 1119.59,93.1641 C 1116.48,92.5977 1115.51,90.625 1115.27,86.4844 C 1115.04,82.6953 1115.04,79.4141 1115.04,61.0742 L 1115.04,48.457 C 1115.04,35.7031 1113.61,21.6406 1104.22,13.2812 C 1095.74,5.70312 1086.93,4.55078 1079.96,4.55078 C 1075.98,4.55078 1064.06,5.01953 1055.72,12.9297 C 1049.96,18.4375 1045.47,26.6602 1045.47,43.8672 L 1045.47,61.0742"
             inkscape:connector-curvature="0"
             id="path96"
             style="fill:#231f20;fill-opacity:1;fill-rule:nonzero;stroke:none" /><path
             d="M 1142.44,7.71484 C 1140.8,8.53516 1140.68,9.02344 1140.68,12.207 C 1140.68,18.0859 1141.15,22.8125 1141.29,24.668 C 1141.41,25.9375 1141.64,26.543 1142.23,26.543 C 1142.93,26.543 1143.05,26.1914 1143.05,25.2539 C 1143.05,24.1992 1143.05,22.5781 1143.4,20.918 C 1145.18,12.207 1152.95,8.90625 1160.82,8.90625 C 1172.13,8.90625 1177.64,17.0117 1177.64,24.5508 C 1177.64,32.6953 1174.26,37.3828 1164.12,45.7227 L 1158.81,50.1172 C 1146.37,60.3516 1143.52,67.6367 1143.52,75.625 C 1143.52,88.2422 1152.95,96.8359 1167.87,96.8359 C 1172.48,96.8359 1175.9,96.3672 1178.83,95.6445 C 1181.05,95.1758 1182.01,95.0586 1182.95,95.0586 C 1183.89,95.0586 1184.16,94.8047 1184.16,94.2188 C 1184.16,93.6328 1183.67,89.7852 1183.67,81.7969 C 1183.67,79.8828 1183.44,79.0625 1182.83,79.0625 C 1182.13,79.0625 1182.01,79.668 1181.89,80.6055 C 1181.78,82.0117 1181.05,85.1758 1180.35,86.4844 C 1179.65,87.7734 1176.48,92.7148 1165.68,92.7148 C 1157.52,92.7148 1151.15,87.6562 1151.15,79.0625 C 1151.15,72.3633 1154.47,68.3594 1165.57,59.2969 L 1168.81,56.6797 C 1182.71,45.7227 1186.02,38.4375 1186.02,29.043 C 1186.02,24.1992 1184.16,15.2344 1176.02,9.49219 C 1170.94,5.9375 1164.61,4.55078 1158.24,4.55078 C 1152.7,4.55078 1147.3,5.37109 1142.44,7.71484"
             inkscape:connector-curvature="0"
             id="path98"
             style="fill:#231f20;fill-opacity:1;fill-rule:nonzero;stroke:none" /><path
             d="M 1223.81,45.1367 C 1223.46,45.1367 1223.22,45.3711 1223.46,45.9766 L 1233.83,77.7734 C 1234.41,79.5508 1234.98,79.5508 1235.55,77.7734 L 1246.74,45.9766 C 1246.86,45.4883 1246.86,45.1367 1246.25,45.1367 L 1223.81,45.1367 z M 1207.3,19.1602 C 1205.21,13.2812 1202.85,8.78906 1197.4,8.06641 C 1196.46,7.94922 1194.84,7.83203 1194.04,7.83203 C 1193.44,7.83203 1192.97,7.59766 1192.97,7.12891 C 1192.97,6.40625 1193.67,6.19141 1195.2,6.19141 C 1200.72,6.19141 1207.17,6.52344 1208.48,6.52344 C 1209.77,6.52344 1214.86,6.19141 1217.66,6.19141 C 1218.71,6.19141 1219.41,6.40625 1219.41,7.12891 C 1219.41,7.59766 1219.06,7.83203 1218.26,7.83203 L 1217.05,7.83203 C 1215.08,7.83203 1212.64,8.90625 1212.64,11.2695 C 1212.64,13.3984 1213.22,16.1719 1214.28,19.1602 L 1221.33,40 C 1221.56,40.5664 1221.93,40.918 1222.52,40.918 L 1247.81,40.918 C 1248.38,40.918 1248.61,40.7031 1248.85,40.2344 L 1259.8,11.2695 C 1260.51,9.375 1259.8,8.32031 1259.1,8.06641 C 1258.63,7.94922 1258.26,7.71484 1258.26,7.24609 C 1258.26,6.52344 1259.57,6.52344 1261.84,6.40625 C 1269.94,6.19141 1278.52,6.19141 1280.31,6.19141 C 1281.62,6.19141 1282.68,6.40625 1282.68,7.12891 C 1282.68,7.71484 1282.19,7.83203 1281.48,7.83203 C 1280.31,7.83203 1278.52,7.94922 1276.76,8.53516 C 1274.28,9.25781 1270.88,11.1523 1266.62,21.6406 C 1259.45,39.5117 1240.98,88.1445 1239.2,92.5977 C 1237.79,96.25 1237.3,96.8359 1236.6,96.8359 C 1235.92,96.8359 1235.45,96.1133 1234.04,92.2461 L 1207.3,19.1602"
             inkscape:connector-curvature="0"
             id="path100"
             style="fill:#231f20;fill-opacity:1;fill-rule:nonzero;stroke:none" /><path
             d="M 1302.66,22.2266 C 1302.91,12.5586 1304.06,9.49219 1307.25,8.53516 C 1309.51,7.94922 1312.07,7.83203 1313.12,7.83203 C 1313.71,7.83203 1314.08,7.59766 1314.08,7.12891 C 1314.08,6.40625 1313.36,6.19141 1311.97,6.19141 C 1305.23,6.19141 1300.57,6.52344 1299.49,6.52344 C 1298.42,6.52344 1293.48,6.19141 1288.18,6.19141 C 1286.99,6.19141 1286.29,6.28906 1286.29,7.12891 C 1286.29,7.59766 1286.64,7.83203 1287.23,7.83203 C 1288.18,7.83203 1290.31,7.94922 1292.07,8.53516 C 1294.98,9.375 1295.59,12.8125 1295.59,23.4961 L 1295.68,90.9766 C 1295.68,95.5273 1296.05,96.8359 1296.99,96.8359 C 1297.95,96.8359 1299.96,94.2188 1301.15,93.0469 C 1302.91,91.0938 1320.45,72.1289 1338.55,52.6953 C 1350.23,40.2344 1363.01,25.8203 1366.82,21.9922 L 1365.51,81.7969 C 1365.37,89.4336 1364.57,92.0117 1360.94,92.9297 C 1358.81,93.3984 1356.07,93.5156 1355.14,93.5156 C 1354.32,93.5156 1354.2,93.8672 1354.2,94.3359 C 1354.2,95.0586 1355.14,95.1758 1356.56,95.1758 C 1361.86,95.1758 1367.52,94.8047 1368.83,94.8047 C 1370.12,94.8047 1373.96,95.1758 1378.83,95.1758 C 1380.12,95.1758 1380.94,95.0586 1380.94,94.3359 C 1380.94,93.8672 1380.47,93.5156 1379.65,93.5156 C 1379.06,93.5156 1378.24,93.5156 1376.82,93.1641 C 1372.91,92.3438 1372.46,89.7852 1372.46,82.6953 L 1372.23,13.7305 C 1372.23,5.9375 1371.97,5.37109 1371.17,5.37109 C 1370.25,5.37109 1368.83,6.66016 1362.58,12.9297 C 1361.27,14.1016 1344.32,31.4062 1331.84,44.7852 C 1318.2,59.5117 1304.88,74.3359 1301.15,78.5938 L 1302.66,22.2266"
             inkscape:connector-curvature="0"
             id="path102"
             style="fill:#231f20;fill-opacity:1;fill-rule:nonzero;stroke:none" /><path
             d="M 1414.1,22.2266 C 1414.36,12.5586 1415.55,9.49219 1418.73,8.53516 C 1420.96,7.94922 1423.54,7.83203 1424.61,7.83203 C 1425.2,7.83203 1425.55,7.59766 1425.55,7.12891 C 1425.55,6.40625 1424.84,6.19141 1423.4,6.19141 C 1416.72,6.19141 1411.99,6.52344 1410.94,6.52344 C 1409.88,6.52344 1404.94,6.19141 1399.65,6.19141 C 1398.48,6.19141 1397.77,6.28906 1397.77,7.12891 C 1397.77,7.59766 1398.14,7.83203 1398.73,7.83203 C 1399.65,7.83203 1401.76,7.94922 1403.52,8.53516 C 1406.46,9.375 1407.07,12.8125 1407.07,23.4961 L 1407.19,90.9766 C 1407.19,95.5273 1407.54,96.8359 1408.48,96.8359 C 1409.41,96.8359 1411.43,94.2188 1412.58,93.0469 C 1414.36,91.0938 1431.89,72.1289 1450.02,52.6953 C 1461.66,40.2344 1474.51,25.8203 1478.28,21.9922 L 1477.01,81.7969 C 1476.88,89.4336 1476.05,92.0117 1472.4,92.9297 C 1470.25,93.3984 1467.56,93.5156 1466.64,93.5156 C 1465.82,93.5156 1465.7,93.8672 1465.7,94.3359 C 1465.7,95.0586 1466.64,95.1758 1468.05,95.1758 C 1473.34,95.1758 1478.98,94.8047 1480.27,94.8047 C 1481.56,94.8047 1485.45,95.1758 1490.27,95.1758 C 1491.56,95.1758 1492.38,95.0586 1492.38,94.3359 C 1492.38,93.8672 1491.93,93.5156 1491.07,93.5156 C 1490.49,93.5156 1489.67,93.5156 1488.28,93.1641 C 1484.41,92.3438 1483.93,89.7852 1483.93,82.6953 L 1483.69,13.7305 C 1483.69,5.9375 1483.44,5.37109 1482.64,5.37109 C 1481.68,5.37109 1480.27,6.66016 1474.06,12.9297 C 1472.73,14.1016 1455.82,31.4062 1443.3,44.7852 C 1429.67,59.5117 1416.37,74.3359 1412.58,78.5938 L 1414.1,22.2266"
             inkscape:connector-curvature="0"
             id="path104"
             style="fill:#231f20;fill-opacity:1;fill-rule:nonzero;stroke:none" /><path
             d="M 1522.42,61.0742 C 1522.42,79.4141 1522.42,82.6953 1522.19,86.4844 C 1521.93,90.5078 1521,92.3438 1517.13,93.1641 C 1516.19,93.3984 1514.2,93.5156 1513.12,93.5156 C 1512.64,93.5156 1512.19,93.75 1512.19,94.2188 C 1512.19,94.9414 1512.77,95.1758 1514.06,95.1758 C 1519.34,95.1758 1526.8,94.8047 1527.36,94.8047 C 1528.18,94.8047 1551.62,94.8047 1554.34,94.9414 C 1556.54,95.0586 1558.4,95.293 1559.38,95.5273 C 1559.96,95.6445 1560.43,96.1133 1561.04,96.1133 C 1561.39,96.1133 1561.5,95.6445 1561.5,95.0586 C 1561.5,94.2188 1560.92,92.8125 1560.55,89.5508 C 1560.43,88.3594 1560.2,83.1641 1559.96,81.7969 C 1559.84,81.2109 1559.61,80.4883 1559.12,80.4883 C 1558.4,80.4883 1558.18,81.0742 1558.18,82.0117 C 1558.18,82.832 1558.05,84.8242 1557.5,86.2305 C 1556.66,88.1445 1555.49,89.5508 1549.1,90.2539 C 1547.13,90.5078 1534.32,90.625 1533.03,90.625 C 1532.54,90.625 1532.3,90.2539 1532.3,89.4336 L 1532.3,56.9336 C 1532.3,56.0938 1532.44,55.7422 1533.03,55.7422 C 1534.55,55.7422 1549,55.7422 1551.74,55.957 C 1554.57,56.2109 1556.21,56.4453 1557.27,57.6172 C 1558.05,58.5938 1558.54,59.1797 1559,59.1797 C 1559.38,59.1797 1559.61,58.9453 1559.61,58.2227 C 1559.61,57.5195 1559,55.4883 1558.65,51.6602 C 1558.4,49.2969 1558.18,44.9023 1558.18,44.1016 C 1558.18,43.1641 1558.18,41.8945 1557.38,41.8945 C 1556.78,41.8945 1556.54,42.3633 1556.54,42.9492 C 1556.54,44.1016 1556.54,45.2539 1556.07,46.7969 C 1555.62,48.457 1554.57,50.4688 1549.96,50.9375 C 1546.76,51.2891 1535.14,51.5234 1533.14,51.5234 C 1532.54,51.5234 1532.3,51.1914 1532.3,50.7031 L 1532.3,40.332 C 1532.3,36.3086 1532.19,22.6953 1532.3,20.2148 C 1532.66,12.0898 1534.45,10.5664 1545.98,10.5664 C 1549,10.5664 1554.22,10.5664 1557.27,11.875 C 1560.31,13.1641 1561.72,15.4883 1562.58,20.332 C 1562.79,21.6406 1563.03,22.1094 1563.63,22.1094 C 1564.34,22.1094 1564.34,21.1523 1564.34,20.332 C 1564.34,19.375 1563.38,11.3867 1562.79,8.90625 C 1561.97,5.83984 1561.04,5.83984 1556.43,5.83984 C 1538.63,5.83984 1530.76,6.52344 1527.36,6.52344 C 1526.8,6.52344 1519.34,6.19141 1515.86,6.19141 C 1514.53,6.19141 1513.96,6.40625 1513.96,7.12891 C 1513.96,7.48047 1514.2,7.83203 1514.88,7.83203 C 1515.94,7.83203 1517.36,8.06641 1518.42,8.32031 C 1520.76,8.78906 1521.35,11.3867 1521.82,14.7852 C 1522.42,19.7461 1522.42,29.043 1522.42,40.332 L 1522.42,61.0742"
             inkscape:connector-curvature="0"
             id="path106"
             style="fill:#231f20;fill-opacity:1;fill-rule:nonzero;stroke:none" /></g></g></g></g></svg>