<?xml version="1.0" encoding="UTF-8" standalone="no"?>
<!-- Created with Inkscape (http://www.inkscape.org/) -->
<svg xmlns:dc="http://purl.org/dc/elements/1.1/" xmlns:cc="http://creativecommons.org/ns#" xmlns:rdf="http://www.w3.org/1999/02/22-rdf-syntax-ns#" xmlns:svg="http://www.w3.org/2000/svg" xmlns="http://www.w3.org/2000/svg" xmlns:sodipodi="http://sodipodi.sourceforge.net/DTD/sodipodi-0.dtd" xmlns:inkscape="http://www.inkscape.org/namespaces/inkscape" version="1.0" width="1000" height="500" id="svg4523" inkscape:version="0.48.1 r9760" sodipodi:docname="kitlogo.svg" inkscape:export-filename="/home/kern/Dokumente/Textdokumente/P3/kitlogo.png" inkscape:export-xdpi="45" inkscape:export-ydpi="45">
  <metadata id="metadata3114">
    <rdf:RDF>
      <cc:Work rdf:about="">
        <dc:format>image/svg+xml</dc:format>
        <dc:type rdf:resource="http://purl.org/dc/dcmitype/StillImage"/>
        <dc:title/>
      </cc:Work>
    </rdf:RDF>
  </metadata>
  <sodipodi:namedview pagecolor="#ffffff" bordercolor="#666666" borderopacity="1" objecttolerance="10" gridtolerance="10" guidetolerance="10" inkscape:pageopacity="0" inkscape:pageshadow="2" inkscape:window-width="1920" inkscape:window-height="1142" id="namedview3112" showgrid="true" inkscape:zoom="0.976" inkscape:cx="418.33901" inkscape:cy="107.61851" inkscape:window-x="0" inkscape:window-y="26" inkscape:window-maximized="1" inkscape:current-layer="layer1"/>
  <defs id="defs4525"/>
  <g id="layer1">
    <g id="g4133">
      <g id="g4050">
        <path inkscape:connector-curvature="0" style="fill:#000000;fill-opacity:1;fill-rule:evenodd;stroke:none" id="path73" d="m 984.5105,25.415961 -230.51422,0 0,78.511439 67.39781,0 0,270.66615 95.71893,0 0,-270.66615 67.39748,0 0,-78.511439 z M 731.05221,374.2349 l -95.71919,0 0,-348.818939 95.71919,0 0,348.818939 z m -111.85159,0 -106.47385,0 -126.54981,-135.87062 0,-77.79425 122.60625,-135.51274 109.70066,0 -141.24836,175.66465 141.96511,173.51296 z"/>
        <path inkscape:connector-curvature="0" style="fill:#000000;fill-opacity:1;fill-rule:evenodd;stroke:none" id="path75" d="m 363.2329,374.2349 0,0 0,0 0,0 z"/>
        <path inkscape:connector-curvature="0" style="fill:#000000;fill-opacity:1;fill-rule:evenodd;stroke:none" id="path77" d="m 363.2329,374.2349 0,0 0,0 0,0 z"/>
        <path inkscape:connector-curvature="0" style="fill:#32a189;fill-opacity:1;fill-rule:evenodd;stroke:none" id="path79" d="M 90.415838,153.04142 C 72.132255,175.26854 56.358573,199.64647 44.169294,225.81675 L 363.2329,374.2349 90.415838,153.04142 z"/>
        <path inkscape:connector-curvature="0" style="fill:#32a189;fill-opacity:1;fill-rule:evenodd;stroke:none" id="path81" d="M 363.2329,374.2349 214.45625,57.681003 C 187.92722,69.86959 163.5495,84.927083 141.32261,102.85195 l 221.91029,271.38295 0,0 z"/>
        <path inkscape:connector-curvature="0" style="fill:#000000;fill-opacity:1;fill-rule:evenodd;stroke:none" id="path83" d="m 363.2329,374.2349 0.35846,-348.818939 c -1.0754,0 -1.79226,0 -2.86773,0 -28.32151,0 -55.9259,3.585389 -82.45464,10.038217 l 84.96391,338.780722 0,0 z"/>
        <path inkscape:connector-curvature="0" style="fill:#000000;fill-opacity:1;fill-rule:evenodd;stroke:none" id="path85" d="m 363.2329,374.2349 0,0 0,0 0,0 0,0 z"/>
        <path inkscape:connector-curvature="0" style="fill:#000000;fill-opacity:1;fill-rule:evenodd;stroke:none" id="path87" d="m 363.2329,374.2349 0,0 0,0 0,0 0,0 z"/>
        <path inkscape:connector-curvature="0" style="fill:#32a189;fill-opacity:1;fill-rule:evenodd;stroke:none" id="path89" d="M 21.225547,288.91246 C 14.055733,316.15854 10.4707,344.83813 10.112113,374.2349 l 353.120787,0 -342.007353,-85.32244 z"/>
      </g>
      <path d="m 6.8463264,459.98834 6.2698486,0 0,-21.44286 19.499026,21.44286 9.154699,0 -22.195389,-23.07276 20.565444,-20.69045 -8.339654,0 -18.684126,19.24922 0,-19.24922 -6.2698486,0 0,43.76321 z" id="path91" style="fill:#000000;fill-opacity:1;fill-rule:nonzero;stroke:none" inkscape:connector-curvature="0"/>
      <path d="m 49.607035,435.2855 c 2.382393,-2.00624 5.956024,-3.25995 9.278344,-3.25995 5.894747,0 7.900926,2.82143 7.900926,8.33867 -2.319941,-0.12494 -3.9497,-0.12494 -6.269642,-0.12494 -6.082329,0 -14.860854,2.5069 -14.860854,10.53341 0,6.95964 4.82866,9.97919 11.725848,9.97919 5.39095,0 8.525937,-2.95708 9.905786,-4.90081 l 0.124944,0 0,4.13735 5.517153,0 c -0.124945,-0.93985 -0.249868,-2.63245 -0.249868,-6.26993 l 0,-13.22922 c 0,-8.71474 -3.699895,-13.22957 -12.853212,-13.22957 -4.076067,0 -7.587185,1.25525 -10.533291,3.00998 l 0.313763,5.01591 z m 17.17927,12.28975 c 0,4.7647 -3.072328,8.40079 -8.903449,8.40079 -2.696093,0 -5.9559,-1.81734 -5.9559,-5.20343 0,-5.64368 7.899607,-6.14495 11.097024,-6.14495 1.253607,0 2.507213,0.12495 3.762325,0.12495 l 0,2.82266 z" id="path93" style="fill:#000000;fill-opacity:1;fill-rule:nonzero;stroke:none" inkscape:connector-curvature="0"/>
      <path d="m 82.649394,459.98834 5.893593,0 0,-14.54578 c 0,-8.02449 3.448563,-13.04061 8.714486,-13.04061 1.003861,0 2.194954,0.12495 3.261287,0.5638 l 0,-5.26609 c -1.253771,-0.25119 -2.132461,-0.44004 -3.88745,-0.44004 -3.386029,0 -6.772306,2.38375 -8.339593,5.70613 l -0.12515,0 0,-4.9538 -5.517173,0 0,31.97639 z" id="path95" style="fill:#000000;fill-opacity:1;fill-rule:nonzero;stroke:none" inkscape:connector-curvature="0"/>
      <path d="m 107.79221,459.98834 5.89348,0 0,-47.02312 -5.89348,0 0,47.02312 z" id="path97" style="fill:#000000;fill-opacity:1;fill-rule:nonzero;stroke:none" inkscape:connector-curvature="0"/>
      <path d="m 121.77408,458.98571 c 2.69628,1.45224 5.76863,1.76608 8.77714,1.76608 5.70602,0 11.16079,-3.14597 11.16079,-9.97918 0,-10.21978 -13.85556,-8.33972 -13.85556,-14.85966 0,-2.63369 2.6323,-3.8874 5.6422,-3.8874 1.38004,0 4.89101,0.8152 6.20709,1.63011 l 0.5014,-5.14079 c -2.31994,-0.69 -4.57607,-1.25525 -7.33606,-1.25525 -6.33218,0 -11.28579,3.19865 -11.28579,9.84463 0,8.96607 13.8572,8.46322 13.8572,14.29434 0,3.44862 -3.32245,4.57745 -6.01869,4.57745 -1.69366,0 -5.01593,-0.75255 -7.33598,-2.25763 l -0.31374,5.2673 z" id="path99" style="fill:#000000;fill-opacity:1;fill-rule:nonzero;stroke:none" inkscape:connector-curvature="0"/>
      <path d="m 148.86048,459.98834 5.89359,0 0,-14.54578 c 0,-8.02449 3.44859,-13.04061 8.71453,-13.04061 1.00368,0 2.19498,0.12495 3.26127,0.5638 l 0,-5.26609 c -1.25373,-0.25119 -2.13263,-0.44004 -3.88735,-0.44004 -3.38616,0 -6.77237,2.38375 -8.33985,5.70613 l -0.12494,0 0,-4.9538 -5.51723,0 0,31.97639 z" id="path101" style="fill:#000000;fill-opacity:1;fill-rule:nonzero;stroke:none" inkscape:connector-curvature="0"/>
      <path d="m 201.52698,428.01195 -5.89338,0 0,14.79693 c 0,7.77481 -3.00857,13.16716 -9.71838,13.16716 -5.14103,-0.31395 -6.77097,-3.94994 -6.77097,-11.41085 l 0,-16.55324 -5.89348,0 0,18.99827 c 0,8.5894 3.69869,13.74157 11.97585,13.74157 4.45103,0 8.71449,-2.20468 10.47082,-5.84208 l 0.12495,0 0,5.07863 5.70463,0 0,-31.97639 z" id="path103" style="fill:#000000;fill-opacity:1;fill-rule:nonzero;stroke:none" inkscape:connector-curvature="0"/>
      <path d="m 211.55923,459.98834 5.89347,0 0,-14.79684 c 0,-7.77343 3.00985,-13.16595 9.71834,-13.16595 5.14103,0.3127 6.77085,3.95024 6.77085,11.41112 l 0,16.55167 5.89359,0 0,-18.99667 c 0,-8.58972 -3.69851,-13.73205 -11.9745,-13.73205 -4.45238,0 -8.15081,1.94364 -10.28338,5.32973 l -0.12494,0 0,-19.62413 -5.89347,0 0,47.02312 z" id="path105" style="fill:#000000;fill-opacity:1;fill-rule:nonzero;stroke:none" inkscape:connector-curvature="0"/>
      <path d="m 274.38284,452.77847 c -1.44257,1.19131 -5.95598,3.19757 -9.84337,3.19757 -5.58117,0 -10.53342,-4.32639 -10.53342,-10.65844 l 22.82174,0 c 0,-10.28324 -3.44881,-18.05798 -14.10704,-18.05798 -9.02826,0 -14.98566,6.70993 -14.98566,16.17705 0,10.40815 5.20475,17.31512 16.55311,17.31512 5.26596,0 7.83717,-1.26476 10.09464,-2.07972 l 0,-5.8936 z m -20.37679,-11.84928 c 0.43883,-4.1385 2.82126,-8.90364 8.58971,-8.90364 5.07858,0 7.96208,4.0123 7.96208,8.90364 l -16.55179,0 z" id="path107" style="fill:#000000;fill-opacity:1;fill-rule:nonzero;stroke:none" inkscape:connector-curvature="0"/>
      <path d="m 326.33083,459.98834 6.26977,0 0,-43.76321 -6.26977,0 0,43.76321 z" id="path109" style="fill:#000000;fill-opacity:1;fill-rule:nonzero;stroke:none" inkscape:connector-curvature="0"/>
      <path d="m 343.1977,459.98834 5.89359,0 0,-14.79684 c 0,-7.77343 3.00987,-13.16595 9.71825,-13.16595 5.14097,0.3127 6.77094,3.95024 6.77094,11.41112 l 0,16.55167 5.8936,0 0,-18.99667 c 0,-8.58972 -3.69869,-13.73205 -11.97444,-13.73205 -4.45242,0 -8.71602,2.19508 -10.47082,5.83106 l -0.12495,0 0,-5.07873 -5.70615,0 0,31.97639 z" id="path111" style="fill:#000000;fill-opacity:1;fill-rule:nonzero;stroke:none" inkscape:connector-curvature="0"/>
      <path d="m 378.80999,458.98571 c 2.69619,1.45224 5.76853,1.76608 8.77692,1.76608 5.70613,0 11.16084,-3.14597 11.16084,-9.97918 0,-10.21978 -13.85549,-8.33972 -13.85549,-14.85966 0,-2.63369 2.63215,-3.8874 5.64214,-3.8874 1.38009,0 4.89115,0.8152 6.20723,1.63011 l 0.50126,-5.14079 c -2.32007,-0.69 -4.57599,-1.25525 -7.33592,-1.25525 -6.33232,0 -11.28586,3.19865 -11.28586,9.84463 0,8.96607 13.85699,8.46322 13.85699,14.29434 0,3.44862 -3.32221,4.57745 -6.01855,4.57745 -1.69372,0 -5.01586,-0.75255 -7.33592,-2.25763 l -0.31364,5.2673 z" id="path113" style="fill:#000000;fill-opacity:1;fill-rule:nonzero;stroke:none" inkscape:connector-curvature="0"/>
      <path d="m 422.8883,428.01195 -8.46474,0 0,-9.27811 -5.89359,1.87971 0,7.3984 -7.21101,0 0,4.76636 7.21101,0 0,18.68427 c 0,6.39461 3.76092,9.28921 9.84329,9.28921 1.88125,0 3.69864,-0.50095 5.01618,-0.88836 l 0,-5.01622 c -0.8775,0.56495 -2.19492,1.12883 -4.0137,1.12883 -2.69477,0 -4.95218,-2.00626 -4.95218,-5.70476 l 0,-17.49297 8.46474,0 0,-4.76636 z" id="path115" style="fill:#000000;fill-opacity:1;fill-rule:nonzero;stroke:none" inkscape:connector-curvature="0"/>
      <path d="m 431.03916,459.98834 5.89349,0 0,-31.97639 -5.89349,0 0,31.97639 z m 6.26966,-45.76941 -6.646,0 0,6.64602 6.646,0 0,-6.64602 z" id="path117" style="fill:#000000;fill-opacity:1;fill-rule:nonzero;stroke:none" inkscape:connector-curvature="0"/>
      <path d="m 464.70896,428.01195 -8.46461,0 0,-9.27811 -5.89342,1.87971 0,7.3984 -7.21117,0 0,4.76636 7.21117,0 0,18.68427 c 0,6.39461 3.76101,9.28921 9.84319,9.28921 1.88124,0 3.69864,-0.50095 5.01622,-0.88836 l 0,-5.01622 c -0.87741,0.56495 -2.19516,1.12883 -4.01388,1.12883 -2.69465,0 -4.95211,-2.00626 -4.95211,-5.70476 l 0,-17.49297 8.46461,0 0,-4.76636 z" id="path119" style="fill:#000000;fill-opacity:1;fill-rule:nonzero;stroke:none" inkscape:connector-curvature="0"/>
      <path d="m 500.38381,428.01195 -5.89359,0 0,14.79693 c 0,7.77481 -3.00853,13.16716 -9.71835,13.16716 -5.14107,-0.31395 -6.77085,-3.94994 -6.77085,-11.41085 l 0,-16.55324 -5.89359,0 0,18.99827 c 0,8.5894 3.69862,13.74157 11.97578,13.74157 4.45104,0 8.71476,-2.20468 10.47101,-5.84208 l 0.12493,0 0,5.07863 5.7047,0 0,-31.97639 z" id="path121" style="fill:#000000;fill-opacity:1;fill-rule:nonzero;stroke:none" inkscape:connector-curvature="0"/>
      <path d="m 527.40761,428.01195 -8.46462,0 0,-9.27811 -5.89359,1.87971 0,7.3984 -7.21102,0 0,4.76636 7.21102,0 0,18.68427 c 0,6.39461 3.76111,9.28921 9.84347,9.28921 1.88106,0 3.69852,-0.50095 5.01606,-0.88836 l 0,-5.01622 c -0.87744,0.56495 -2.19508,1.12883 -4.0139,1.12883 -2.6946,0 -4.95204,-2.00626 -4.95204,-5.70476 l 0,-17.49297 8.46462,0 0,-4.76636 z" id="path123" style="fill:#000000;fill-opacity:1;fill-rule:nonzero;stroke:none" inkscape:connector-curvature="0"/>
      <path d="m 554.47216,459.98834 5.89368,0 0,-27.21003 8.46447,0 0,-4.76636 -8.46447,0 0,-3.44698 c 0,-4.32752 0.62609,-7.58744 5.70438,-7.58744 1.00403,0 2.13273,0.12495 2.82266,0.37611 l 0.24973,-4.76447 c -1.19106,-0.18907 -2.44466,-0.37642 -3.9497,-0.37642 -8.71437,0 -10.72075,5.07873 -10.72075,12.85321 l 0,2.94599 -7.52474,0 0,4.76636 7.52474,0 0,27.21003 z" id="path129" style="fill:#000000;fill-opacity:1;fill-rule:nonzero;stroke:none" inkscape:connector-curvature="0"/>
      <path d="m 658.80059,459.98834 6.26983,0 0,-38.24596 13.60555,0 0,-5.51725 -33.48131,0 0,5.51725 13.60593,0 0,38.24596 z" id="path131" style="fill:#000000;fill-opacity:1;fill-rule:nonzero;stroke:none" inkscape:connector-curvature="0"/>
      <path d="m 704.25721,452.77847 c -1.44215,1.19131 -5.95589,3.19757 -9.84301,3.19757 -5.58129,0 -10.53352,-4.32639 -10.53352,-10.65844 l 22.82174,0 c 0,-10.28324 -3.44883,-18.05798 -14.1069,-18.05798 -9.02823,0 -14.98582,6.70993 -14.98582,16.17705 0,10.40815 5.20483,17.31512 16.55311,17.31512 5.26579,0 7.83719,-1.26476 10.0944,-2.07972 l 0,-5.8936 z m -20.37653,-11.84928 c 0.43885,-4.1385 2.82114,-8.90364 8.58996,-8.90364 5.07816,0 7.96187,4.0123 7.96187,8.90364 l -16.55183,0 z" id="path133" style="fill:#000000;fill-opacity:1;fill-rule:nonzero;stroke:none" inkscape:connector-curvature="0"/>
      <path d="m 735.41859,428.51487 c -1.69231,-0.69 -4.76451,-1.25525 -7.14713,-1.25525 -9.78083,0 -16.30173,7.02236 -16.30173,16.74056 0,9.15472 6.64577,16.75161 16.30173,16.75161 2.13122,0 4.9535,-0.18885 7.39851,-1.32725 l -0.43857,-5.26584 c -1.81876,1.19129 -4.32626,1.81734 -6.33244,1.81734 -7.58718,0 -10.65953,-6.26978 -10.65953,-11.97586 0,-6.08074 3.69985,-11.97463 10.28324,-11.97463 1.88001,0 4.13734,0.43884 6.39479,1.37868 l 0.50113,-4.88936 z" id="path135" style="fill:#000000;fill-opacity:1;fill-rule:nonzero;stroke:none" inkscape:connector-curvature="0"/>
      <path d="m 742.44089,459.98834 5.89359,0 0,-14.79684 c 0,-7.77343 3.00974,-13.16595 9.71821,-13.16595 5.14096,0.3127 6.77074,3.95024 6.77074,11.41112 l 0,16.55167 5.89388,0 0,-18.99667 c 0,-8.58972 -3.6988,-13.73205 -11.97463,-13.73205 -4.45236,0 -8.15087,1.94364 -10.28319,5.32973 l -0.12495,0 0,-19.62413 -5.89359,0 0,47.02312 z" id="path137" style="fill:#000000;fill-opacity:1;fill-rule:nonzero;stroke:none" inkscape:connector-curvature="0"/>
      <path d="m 780.74905,459.98834 5.89359,0 0,-14.79684 c 0,-7.77343 3.01004,-13.16595 9.71821,-13.16595 5.1412,0.3127 6.77103,3.95024 6.77103,11.41112 l 0,16.55167 5.89359,0 0,-18.99667 c 0,-8.58972 -3.69852,-13.73205 -11.97433,-13.73205 -4.45236,0 -8.71621,2.19508 -10.47099,5.83106 l -0.12494,0 0,-5.07873 -5.7062,0 0,31.97639 z" id="path139" style="fill:#000000;fill-opacity:1;fill-rule:nonzero;stroke:none" inkscape:connector-curvature="0"/>
      <path d="m 816.92518,444.00018 c 0,9.15472 6.64569,16.75161 16.30175,16.75161 9.59324,0 16.23931,-7.59689 16.23931,-16.75161 0,-9.7182 -6.5211,-16.74056 -16.23931,-16.74056 -9.78094,0 -16.30175,7.02236 -16.30175,16.74056 z m 6.27082,0 c 0,-6.08074 3.69849,-11.97463 10.03093,-11.97463 6.26971,0 9.9696,5.89389 9.9696,11.97463 0,5.70608 -3.07239,11.97586 -9.9696,11.97586 -6.95951,0 -10.03093,-6.26978 -10.03093,-11.97586 z" id="path141" style="fill:#000000;fill-opacity:1;fill-rule:nonzero;stroke:none" inkscape:connector-curvature="0"/>
      <path d="m 858.11842,459.98834 5.89355,0 0,-47.02312 -5.89355,0 0,47.02312 z" id="path143" style="fill:#000000;fill-opacity:1;fill-rule:nonzero;stroke:none" inkscape:connector-curvature="0"/>
      <path d="m 872.6639,444.00018 c 0,9.15472 6.646,16.75161 16.3018,16.75161 9.59354,0 16.23948,-7.59689 16.23948,-16.75161 0,-9.7182 -6.52097,-16.74056 -16.23948,-16.74056 -9.78072,0 -16.3018,7.02236 -16.3018,16.74056 z m 6.27115,0 c 0,-6.08074 3.69845,-11.97463 10.03065,-11.97463 6.26986,0 9.9699,5.89389 9.9699,11.97463 0,5.70608 -3.07253,11.97586 -9.9699,11.97586 -6.95964,0 -10.03065,-6.26978 -10.03065,-11.97586 z" id="path145" style="fill:#000000;fill-opacity:1;fill-rule:nonzero;stroke:none" inkscape:connector-curvature="0"/>
      <path d="m 941.38105,428.01195 -5.45477,0 0,4.76636 -0.12495,0 c -1.7551,-3.44852 -4.8898,-5.51869 -10.53347,-5.51869 -9.65567,0 -14.29554,8.77823 -14.29554,16.99202 0,8.27577 4.51485,15.7367 13.66954,15.7367 4.07452,0 8.21335,-1.63013 10.72058,-4.9522 l 0.12515,0 0,3.13467 c 0,6.78232 -3.6988,10.9833 -9.90591,10.9833 -4.326,0 -7.02239,-0.81639 -11.537,-2.88508 l -0.62631,5.45485 c 5.14092,1.75618 8.08696,2.19507 11.47334,2.19507 11.47447,0 16.48919,-5.58123 16.48919,-15.30935 l 0,-30.59765 z m -15.23572,27.21154 c -5.51729,0 -8.90182,-5.26609 -8.90182,-11.28578 0,-5.45477 2.94603,-11.91216 8.90182,-11.91216 6.2699,0 9.34241,5.70502 9.34241,12.35105 0,5.95722 -3.82371,10.84689 -9.34241,10.84689 z" id="path147" style="fill:#000000;fill-opacity:1;fill-rule:nonzero;stroke:none" inkscape:connector-curvature="0"/>
      <path d="m 286.39973,459.98834 5.89359,0 0,-14.54578 c 0,-8.02449 3.44859,-13.04061 8.71453,-13.04061 1.00368,0 2.19498,0.12495 3.26127,0.5638 l 0,-5.26609 c -1.25373,-0.25119 -2.13263,-0.44004 -3.88735,-0.44004 -3.38616,0 -6.77237,2.38375 -8.33984,5.70613 l -0.12495,0 0,-4.9538 -5.51723,0 0,31.97639 z" id="path101-0" style="fill:#000000;fill-opacity:1;fill-rule:nonzero;stroke:none" inkscape:connector-curvature="0"/>
      <path d="m 604.15339,427.24849 -5.8936,0 0,14.79694 c 0,7.7748 -3.00852,13.16716 -9.71835,13.16716 -5.14106,-0.31395 -6.77084,-3.94995 -6.77084,-11.41085 l 0,-16.55325 -5.89359,0 0,18.99828 c 0,8.5894 3.69861,13.74157 11.97578,13.74157 4.45104,0 8.71475,-2.20468 10.471,-5.84209 l 0.12494,0 0,5.07864 5.70469,0 0,-31.9764 z" id="path121-7" style="fill:#000000;fill-opacity:1;fill-rule:nonzero;stroke:none" inkscape:connector-curvature="0"/>
      <path d="m 612.51755,459.98834 5.89359,0 0,-14.54578 c 0,-8.02449 3.44859,-13.04061 8.71454,-13.04061 1.00367,0 2.19497,0.12495 3.26126,0.5638 l 0,-5.26609 c -1.25373,-0.25119 -2.13262,-0.44004 -3.88735,-0.44004 -3.38615,0 -6.77237,2.38375 -8.33984,5.70613 l -0.12495,0 0,-4.9538 -5.51723,0 0,31.97639 z" id="path101-0-6" style="fill:#000000;fill-opacity:1;fill-rule:nonzero;stroke:none" inkscape:connector-curvature="0"/>
      <path style="fill:#000000;fill-opacity:1;stroke:none" d="m 593.74626,415.60706 6.5511,0 0,6.67707 -6.5511,0 z" id="rect3211-7" inkscape:connector-curvature="0"/>
      <path style="fill:#000000;fill-opacity:1;stroke:none" d="m 579.73309,415.60706 6.5511,0 0,6.67707 -6.5511,0 z" id="rect3211-1" inkscape:connector-curvature="0"/>
      <path d="m 949.88208,459.98834 5.89349,0 0,-31.97639 -5.89349,0 0,31.97639 z m 6.26966,-45.76941 -6.646,0 0,6.64602 6.646,0 0,-6.64602 z" id="path117-0" style="fill:#000000;fill-opacity:1;fill-rule:nonzero;stroke:none" inkscape:connector-curvature="0"/>
      <path d="m 989.33109,452.77847 c -1.44216,1.19131 -5.95591,3.19757 -9.84307,3.19757 -5.58122,0 -10.53349,-4.32639 -10.53349,-10.65844 l 22.82176,0 c 0,-10.28324 -3.44884,-18.05798 -14.10697,-18.05798 -9.02821,0 -14.98579,6.70993 -14.98579,16.17705 0,10.40815 5.20478,17.31512 16.55317,17.31512 5.26576,0 7.83717,-1.26476 10.09439,-2.07972 l 0,-5.8936 z m -20.37656,-11.84928 c 0.43881,-4.1385 2.82115,-8.90364 8.58997,-8.90364 5.07818,0 7.96189,4.0123 7.96189,8.90364 l -16.55186,0 z" id="path133-8" style="fill:#000000;fill-opacity:1;fill-rule:nonzero;stroke:none" inkscape:connector-curvature="0"/>
    </g>
  </g>
</svg>