<?xml version="1.0" encoding="UTF-8" standalone="no"?>
<!-- Created with Inkscape (http://www.inkscape.org/) -->

<svg
   xmlns:dc="http://purl.org/dc/elements/1.1/"
   xmlns:cc="http://creativecommons.org/ns#"
   xmlns:rdf="http://www.w3.org/1999/02/22-rdf-syntax-ns#"
   xmlns:svg="http://www.w3.org/2000/svg"
   xmlns="http://www.w3.org/2000/svg"
   xmlns:sodipodi="http://sodipodi.sourceforge.net/DTD/sodipodi-0.dtd"
   xmlns:inkscape="http://www.inkscape.org/namespaces/inkscape"
   width="1143"
   height="232"
   id="svg3101"
   version="1.1"
   inkscape:version="0.48.3.1 r9886"
   sodipodi:docname="laas.svg">
  <defs
     id="defs3103" />
  <sodipodi:namedview
     id="base"
     pagecolor="#ffffff"
     bordercolor="#666666"
     borderopacity="1.0"
     inkscape:pageopacity="1"
     inkscape:pageshadow="2"
     inkscape:zoom="0.35"
     inkscape:cx="571.5"
     inkscape:cy="116"
     inkscape:document-units="px"
     inkscape:current-layer="layer1"
     showgrid="false"
     fit-margin-top="0"
     fit-margin-left="0"
     fit-margin-right="0"
     fit-margin-bottom="0"
     inkscape:window-width="1920"
     inkscape:window-height="1004"
     inkscape:window-x="0"
     inkscape:window-y="24"
     inkscape:window-maximized="1" />
  <metadata
     id="metadata3106">
    <rdf:RDF>
      <cc:Work
         rdf:about="">
        <dc:format>image/svg+xml</dc:format>
        <dc:type
           rdf:resource="http://purl.org/dc/dcmitype/StillImage" />
        <dc:title></dc:title>
      </cc:Work>
    </rdf:RDF>
  </metadata>
  <g
     inkscape:label="Layer 1"
     inkscape:groupmode="layer"
     id="layer1"
     transform="translate(196.5,-416.36218)">
    <g
       id="g3079"
       transform="translate(-196.5,416.36218)">
      <path
         style="fill:#feb100"
         d="m 0,222.5 0,-9.5 571.5,0 571.5,0 0,9.5 0,9.5 -571.5,0 -571.5,0 0,-9.5 z"
         id="path3085"
         inkscape:connector-curvature="0" />
      <path
         style="fill:#cb0079"
         d="M 0,9.5 0,0 571.5,0 1143,0 l 0,9.5 0,9.5 L 571.5,19 0,19 0,9.5 z"
         id="path3083"
         inkscape:connector-curvature="0" />
      <path
         style="fill:#001858"
         d="m 263.45533,165.60637 c -1.09432,-0.76649 -5.80695,-7.04892 -10.4725,-13.96095 L 244.5,139.07809 206.3251,139.03905 168.15019,139 160.4345,150.25 C 150.68246,164.46914 149.27563,166 145.96054,166 142.5138,166 138,162.46804 138,159.77103 c 0,-2.67149 57.54396,-90.426114 60.61543,-92.438618 5.47585,-3.587919 15.16923,-2.471819 17.5751,2.023606 0.61276,1.144944 14.54556,21.054506 30.96179,44.243472 C 272.74746,149.75425 277,156.26657 277,159.30804 c 0,6.22489 -8.2034,10.03951 -13.54467,6.29833 z M 231.46909,121.25 c -0.90418,-1.5125 -6.9592,-10.53598 -13.45559,-20.05217 L 206.20188,83.895665 194.44183,101.19783 c -6.46802,9.51619 -12.61909,18.53967 -13.66903,20.05217 l -1.90899,2.75 27.12463,0 27.12463,0 -1.64398,-2.75 z m 176.00342,44.36115 C 406.38763,164.84728 401.675,158.56236 397,151.64466 l -8.5,-12.57764 -38.10606,-0.0335 L 312.28789,139 304.51435,150.25 C 294.68961,164.46856 293.27448,166 289.96054,166 286.56056,166 282,162.48086 282,159.85729 c 0,-2.72803 57.75145,-90.648331 60.89737,-92.709614 3.80283,-2.491711 13.87967,-2.267028 15.8014,0.352324 0.80704,1.1 10.04802,14.15 20.53552,29 44.112,62.46134 42.80059,60.49097 42.16132,63.34665 -1.33191,5.94969 -9.09517,9.16387 -13.9231,5.7645 z M 376.83333,123.18122 C 376.65,122.7309 370.65,113.73378 363.5,103.18762 l -13,-19.174822 -2,2.709081 c -1.1,1.489994 -7.29961,10.487115 -13.77691,19.993601 L 322.94618,124 l 27.11024,0 c 14.91064,0 26.96025,-0.36845 26.77691,-0.81878 z m 482.07691,41.75576 c -1.42437,-0.54825 -22.12437,-17.5722 -46,-37.831 L 769.5,90.271808 769,126.21759 C 768.42941,167.23792 768.97761,165 759.5,165 c -9.66743,0 -9,3.58484 -9,-48.33967 l 0,-45.500072 2.42431,-2.580129 c 2.83268,-3.014739 9.31584,-3.541546 13.96935,-1.135119 1.53689,0.794756 21.87704,17.662001 45.20034,37.48277 l 42.406,36.03776 0.5,-35.93393 c 0.32951,-23.680855 0.8671,-36.300624 1.57658,-37.009339 0.59211,-0.591482 3.39049,-1.349471 6.21861,-1.68442 3.90412,-0.462386 5.75844,-0.205121 7.70241,1.068622 l 2.56038,1.677621 -0.27899,45.930916 c -0.27244,44.85235 -0.32736,45.97926 -2.33877,47.98995 -2.42563,2.42476 -7.87674,3.33818 -11.52998,1.93202 z M 43.5,163.54624 C 29.694797,161.03514 21.881632,155.89578 18.855859,147.33577 17.013818,142.12458 16.863693,69.736307 18.691137,67.908863 20.467876,66.132124 29.08579,65.696643 32,67.236339 l 2.5,1.320853 0.5,36.642228 0.5,36.64223 2.441285,2.59724 c 4.77703,5.0822 9.041406,5.56111 49.51771,5.56111 41.211585,0 40.877865,-0.0518 42.113205,6.53315 0.45587,2.43 0.16009,4.22649 -0.98313,5.97126 L 126.95389,165 88.726947,164.90975 C 62.472714,164.84777 48.307594,164.42071 43.5,163.54624 z m 384.93918,-0.99871 c -1.8102,-2.76273 -1.48969,-8.89553 0.57286,-10.96122 0.72871,-0.72982 14.60565,-1.25039 42.28631,-1.58631 36.12762,-0.43842 41.58007,-0.70739 44.27448,-2.18406 4.99869,-2.73953 5.54469,-3.98579 5.22285,-11.92141 -0.2865,-7.064 -0.39778,-7.34997 -3.58267,-9.20615 -5.32946,-3.10606 -9.33366,-3.60229 -37.71301,-4.67364 -34.21194,-1.29153 -39.86429,-2.51057 -47.18867,-10.17711 C 427.99988,107.32476 427,104.21166 427,95.30092 c 0,-9.818416 1.60006,-14.90098 6.1112,-19.412117 5.08645,-5.086454 12.76741,-7.692162 26.17244,-8.878802 C 482.63744,64.942675 486,65.819545 486,73.976947 c 0,5.779277 -2.07243,6.701488 -16.5,7.342344 -20.05648,0.890884 -24.5,3.332273 -24.5,13.46094 0,10.994499 3.04581,11.963939 39.5,12.572329 28.35298,0.47319 33.6239,1.27678 42.97512,6.55189 2.73631,1.54358 6.33631,4.48831 8,6.54385 3.01033,3.71937 3.02488,3.79821 3.02488,16.39452 0,14.55454 -0.82317,17.06393 -7,21.33904 -8.31944,5.75805 -11.90928,6.16022 -58.68312,6.57417 l -42.68311,0.37776 -1.69459,-2.58626 z m 218.81149,0.90733 c -11.02483,-2.96873 -20.43978,-9.87506 -22.22527,-16.30332 -0.5785,-2.08275 -1.00721,-15.89582 -0.99786,-32.15154 0.0147,-25.49384 0.21002,-28.926281 1.85212,-32.54137 3.49414,-7.692312 13.39427,-13.640521 25.65137,-15.411878 7.28967,-1.053482 76.40061,-1.440329 80.09707,-0.448343 4.28342,1.149503 5.78306,8.990432 2.3719,12.401591 -1.9288,1.928795 -3.33333,2 -39.45078,2 -38.90841,0 -45.42374,0.540254 -50.00864,4.146742 L 642,87.14516 l 0,27.50434 0,27.50435 2.79659,2.79659 C 649.32447,149.47832 654.4692,150 694.59468,150 l 36.49623,0 2.57347,2.57347 c 2.14707,2.14707 2.4747,3.18207 1.97737,6.24672 -0.32784,2.02028 -1.36737,4.23723 -2.31005,4.92653 -2.61692,1.91354 -78.85081,1.65506 -86.08103,-0.29186 z M 887.22251,163.4433 885,161.88659 885,115.5 l 0,-46.386592 2.22251,-1.556704 c 1.92244,-1.346533 7.55913,-1.552535 41.75,-1.525828 21.74012,0.01698 42.90249,0.468273 47.02749,1.002869 15.5502,2.015293 25.3951,7.222496 29.1072,15.395514 2.3304,5.130826 2.6677,23.780481 0.5229,28.913561 -2.0574,4.92398 -9.1229,10.40131 -16.58828,12.85951 -5.59834,1.84343 -9.71472,2.23656 -28.54182,2.72589 -21.23862,0.55199 -21.87887,0.62759 -18.5,2.18434 1.925,0.88691 15.425,6.65114 30,12.8094 24.80998,10.48276 31,13.91308 31,17.17926 0,0.54433 -1.1045,2.09423 -2.4545,3.44423 -2.05696,2.05692 -3.42004,2.45455 -8.41428,2.45455 -5.48797,0 -9.07316,-1.33406 -45.29545,-16.85464 C 925.2011,138.87531 906.4875,130.96998 905.25,130.57797 l -2.25,-0.71275 0,15.34489 C 903,163.93825 902.55286,165 894.6658,165 c -3.10675,0 -6.12074,-0.63035 -7.44329,-1.5567 z m 95.55666,-52.84974 c 2.35355,-1.00873 4.71605,-2.65037 5.25,-3.64807 C 988.56313,105.94779 989,101.47232 989,97 c 0,-4.472316 -0.43687,-8.947786 -0.97083,-9.945489 -0.53395,-0.997703 -2.89645,-2.655033 -5.25,-3.682955 C 978.89486,81.675064 975.0166,81.474325 940.75,81.196122 L 903,80.889638 l 0,16.138266 0,16.138266 37.75,-0.36927 c 33.87971,-0.33141 38.18872,-0.55731 42.02917,-2.20334 z m 34.79223,52.83501 c -2.285,-2.28501 -2.0345,-8.96551 0.4286,-11.42857 1.9304,-1.93041 3.3333,-2 40.3185,-2 50.1606,0 51.6815,-0.40384 51.6815,-13.72251 0,-11.6411 -3.66,-12.90324 -41.4732,-14.30203 -30.6868,-1.13517 -35.135,-1.78949 -42.6153,-6.26864 -7.9038,-4.73273 -9.8744,-8.81303 -9.895,-20.488939 -0.024,-13.550814 2.7403,-19.016168 11.9835,-23.692488 6.2427,-3.158293 12.3197,-4.253635 28.165,-5.076572 l 13.665,-0.709702 2.585,2.584986 c 3.0972,3.097211 3.4224,7.838521 0.7227,10.538195 -1.5634,1.563362 -3.931,1.941023 -14.75,2.352728 -13.0473,0.496501 -18.5777,1.836973 -22.6011,5.478098 -2.4002,2.172174 -2.549,13.401574 -0.2086,15.741994 3.7657,3.76572 5.6654,4.02782 33.922,4.68025 16.158,0.37308 30.4262,1.17704 33.7367,1.90094 9.0527,1.97956 17.6984,6.79335 21.223,11.81663 2.7967,3.98576 3.0674,5.11287 3.3783,14.06644 0.1917,5.52128 -0.1758,11.64156 -0.8493,14.14261 -2.1843,8.11201 -9.347,12.48917 -24.4887,14.96526 -3.3,0.53964 -23.4054,0.98377 -44.6786,0.98696 -33.8341,0.005 -38.8754,-0.19103 -40.25,-1.56564 z M 551,130.27111 c -0.825,-0.31405 -1.83061,-1.06602 -2.23469,-1.67105 -1.26732,-1.89759 -0.83162,-7.06037 0.79139,-9.37755 1.55046,-2.21358 1.67847,-2.22251 31.87756,-2.22251 33.97509,0 32.91129,-0.23501 32.37685,7.15271 -0.48641,6.72377 -0.999,6.82769 -33.31111,6.7536 -15.4,-0.0353 -28.675,-0.32115 -29.5,-0.6352 z"
         id="path3081"
         inkscape:connector-curvature="0" />
    </g>
  </g>
</svg>
