<?xml version="1.0" encoding="UTF-8"?>
<svg xmlns="http://www.w3.org/2000/svg" xmlns:xlink="http://www.w3.org/1999/xlink" width="550pt" height="300pt" viewBox="0 0 55 30" version="1.1">
<defs>
<clipPath id="clip1">
  <path d="M -269 479 L 326 479 L 326 -363 L -269 -363 L -269 479 Z M -269 479 "/>
</clipPath>
</defs>
<g id="surface0">
<g clip-path="url(#clip1)" clip-rule="nonzero">
<path style=" stroke:none;fill-rule: nonzero; fill: rgb(22.400244%,38.872358%,72.007324%); fill-opacity: 1;" d="M 5.527344 5.953125 L 5.527344 29.246094 L 10.578125 29.246094 L 10.578125 5.988281 L 16.191406 5.988281 L 16.191406 29.246094 L 32.257812 29.246094 L 32.257812 6.234375 L 37.976562 6.234375 L 37.976562 29.242188 L 43.273438 29.242188 L 43.273438 6.234375 L 49.0625 6.234375 L 49.0625 29.242188 L 54.359375 29.242188 L 54.359375 0.902344 L 27.171875 0.902344 L 27.171875 24.089844 L 21.347656 24.089844 L 21.347656 0.9375 L 0.71875 0.9375 L 0.71875 5.953125 L 5.527344 5.953125 Z M 5.527344 5.953125 "/>
</g>
</g>
</svg>
