<?xml version="1.0" encoding="UTF-8" standalone="no"?>
<!-- Created with Inkscape (http://www.inkscape.org/) -->
<svg xmlns:dc="http://purl.org/dc/elements/1.1/" xmlns:cc="http://creativecommons.org/ns#" xmlns:rdf="http://www.w3.org/1999/02/22-rdf-syntax-ns#" xmlns:svg="http://www.w3.org/2000/svg" xmlns="http://www.w3.org/2000/svg" xmlns:sodipodi="http://sodipodi.sourceforge.net/DTD/sodipodi-0.dtd" xmlns:inkscape="http://www.inkscape.org/namespaces/inkscape" width="297.17545" height="279.79156" id="svg2" sodipodi:version="0.32" inkscape:version="0.46" version="1.0" sodipodi:docname="Auburn University logo.svg" inkscape:output_extension="org.inkscape.output.svg.inkscape">
  <defs id="defs4">
    <inkscape:perspective sodipodi:type="inkscape:persp3d" inkscape:vp_x="0 : 526.18109 : 1" inkscape:vp_y="0 : 1000 : 0" inkscape:vp_z="744.09448 : 526.18109 : 1" inkscape:persp3d-origin="372.04724 : 350.78739 : 1" id="perspective10"/>
    <clipPath id="clipPath2980" clipPathUnits="userSpaceOnUse">
      <path id="path2982" d="M 1,454.402 L 613,454.402 L 613,616.402 L 1,616.402 L 1,454.402 z"/>
    </clipPath>
    <clipPath id="clipPath2972" clipPathUnits="userSpaceOnUse">
      <path id="path2974" d="M 1,454.402 L 613,454.402 L 613,616.402 L 1,616.402 L 1,454.402 z"/>
    </clipPath>
    <clipPath id="clipPath2964" clipPathUnits="userSpaceOnUse">
      <path id="path2966" d="M 1,454.402 L 613,454.402 L 613,616.402 L 1,616.402 L 1,454.402 z"/>
    </clipPath>
    <clipPath id="clipPath2956" clipPathUnits="userSpaceOnUse">
      <path id="path2958" d="M 1,454.402 L 613,454.402 L 613,616.402 L 1,616.402 L 1,454.402 z"/>
    </clipPath>
    <clipPath id="clipPath2612" clipPathUnits="userSpaceOnUse">
      <path id="path2614" d="M 188,315.4 L 368,315.4 L 368,444.04 L 188,444.04 L 188,315.4 z"/>
    </clipPath>
    <clipPath id="clipPath2604" clipPathUnits="userSpaceOnUse">
      <path id="path2606" d="M 188,315.4 L 368,315.4 L 368,444.04 L 188,444.04 L 188,315.4 z"/>
    </clipPath>
    <clipPath id="clipPath2596" clipPathUnits="userSpaceOnUse">
      <path id="path2598" d="M 188,315.4 L 368,315.4 L 368,444.04 L 188,444.04 L 188,315.4 z"/>
    </clipPath>
    <clipPath id="clipPath2588" clipPathUnits="userSpaceOnUse">
      <path id="path2590" d="M 188,315.4 L 368,315.4 L 368,444.04 L 188,444.04 L 188,315.4 z"/>
    </clipPath>
    <clipPath id="clipPath2574" clipPathUnits="userSpaceOnUse">
      <path id="path2576" d="M -1,315.56 L 179,315.56 L 179,444.2 L -1,444.2 L -1,315.56 z"/>
    </clipPath>
    <clipPath id="clipPath2566" clipPathUnits="userSpaceOnUse">
      <path id="path2568" d="M -1,315.56 L 179,315.56 L 179,444.201 L -1,444.201 L -1,315.56 z"/>
    </clipPath>
    <clipPath id="clipPath2558" clipPathUnits="userSpaceOnUse">
      <path id="path2560" d="M -1,315.56 L 179,315.56 L 179,444.201 L -1,444.201 L -1,315.56 z"/>
    </clipPath>
    <clipPath id="clipPath2550" clipPathUnits="userSpaceOnUse">
      <path id="path2552" d="M -1,315.56 L 179,315.56 L 179,444.201 L -1,444.201 L -1,315.56 z"/>
    </clipPath>
    <clipPath id="clipPath2536" clipPathUnits="userSpaceOnUse">
      <path id="path2538" d="M 1,145.4 L 613,145.4 L 613,307.4 L 1,307.4 L 1,145.4 z"/>
    </clipPath>
    <clipPath id="clipPath2528" clipPathUnits="userSpaceOnUse">
      <path id="path2530" d="M 1,145.4 L 613,145.4 L 613,307.4 L 1,307.4 L 1,145.4 z"/>
    </clipPath>
    <clipPath id="clipPath2520" clipPathUnits="userSpaceOnUse">
      <path id="path2522" d="M 1,145.4 L 613,145.4 L 613,307.4 L 1,307.4 L 1,145.4 z"/>
    </clipPath>
    <clipPath id="clipPath2512" clipPathUnits="userSpaceOnUse">
      <path id="path2514" d="M 1,937.4 L 613,937.4 L 613,145.4 L 1,145.4 L 1,937.4 z"/>
    </clipPath>
    <clipPath id="clipPath2504" clipPathUnits="userSpaceOnUse">
      <path id="path2506" clip-rule="evenodd" d="M -43.787,190.453 C -43.787,190.453 330.43,100.347 621.601,190.453 L 621.601,124.311 L -48.912,124.311 L -43.787,190.453 z"/>
    </clipPath>
    <clipPath id="clipPath2490" clipPathUnits="userSpaceOnUse">
      <path id="path2492" d="M 1,145.4 L 613,145.4 L 613,307.4 L 1,307.4 L 1,145.4 z"/>
    </clipPath>
    <clipPath id="clipPath2482" clipPathUnits="userSpaceOnUse">
      <path id="path2484" d="M 1,145.4 L 613,145.4 L 613,307.4 L 1,307.4 L 1,145.4 z"/>
    </clipPath>
    <clipPath id="clipPath2474" clipPathUnits="userSpaceOnUse">
      <path id="path2476" d="M 1,145.4 L 613,145.4 L 613,307.4 L 1,307.4 L 1,145.4 z"/>
    </clipPath>
    <clipPath id="clipPath2466" clipPathUnits="userSpaceOnUse">
      <path id="path2468" d="M 1,937.4 L 613,937.4 L 613,145.4 L 1,145.4 L 1,937.4 z"/>
    </clipPath>
    <clipPath id="clipPath2458" clipPathUnits="userSpaceOnUse">
      <path id="path2460" clip-rule="evenodd" d="M -50.501,211.548 C -50.501,211.548 330.43,104.187 621.602,194.293 L 621.602,128.151 L -48.913,128.151 L -50.501,211.548 z"/>
    </clipPath>
    <clipPath id="clipPath2444" clipPathUnits="userSpaceOnUse">
      <path id="path2446" d="M 1,145.4 L 613,145.4 L 613,307.4 L 1,307.4 L 1,145.4 z"/>
    </clipPath>
    <clipPath id="clipPath2436" clipPathUnits="userSpaceOnUse">
      <path id="path2438" d="M 1,145.4 L 613,145.4 L 613,307.4 L 1,307.4 L 1,145.4 z"/>
    </clipPath>
    <clipPath id="clipPath2428" clipPathUnits="userSpaceOnUse">
      <path id="path2430" d="M 1,145.4 L 613,145.4 L 613,307.4 L 1,307.4 L 1,145.4 z"/>
    </clipPath>
    <clipPath id="clipPath2420" clipPathUnits="userSpaceOnUse">
      <path id="path2422" d="M 1,145.4 L 613,145.4 L 613,307.4 L 1,307.4 L 1,145.4 z"/>
    </clipPath>
    <clipPath id="clipPath2406" clipPathUnits="userSpaceOnUse">
      <path id="path2408" d="M 0,0 L 612,0 L 612,792 L 0,792 L 0,0 z"/>
    </clipPath>
    <clipPath id="clipPath2398" clipPathUnits="userSpaceOnUse">
      <path id="path2400" d="M 0,792 L 612,792 L 612,0 L 0,0 L 0,792 z"/>
    </clipPath>
    <inkscape:perspective id="perspective2390" inkscape:persp3d-origin="372.04724 : 350.78739 : 1" inkscape:vp_z="744.09448 : 526.18109 : 1" inkscape:vp_y="0 : 1000 : 0" inkscape:vp_x="0 : 526.18109 : 1" sodipodi:type="inkscape:persp3d"/>
    <clipPath id="clipPath5451" clipPathUnits="userSpaceOnUse">
      <path id="path5453" d="M 538.583,696.614 L 621,696.614 L 621,739.134 L 538.583,739.134 L 538.583,696.614 z"/>
    </clipPath>
    <clipPath id="clipPath5437" clipPathUnits="userSpaceOnUse">
      <path id="path5439" d="M 170.079,480.189 L 226.772,480.189 L 226.772,536.8821 L 170.079,536.8821 L 170.079,480.189 z"/>
    </clipPath>
    <clipPath id="clipPath5417" clipPathUnits="userSpaceOnUse">
      <path id="path5419" d="M -7.668,650.2679 L 244.142,650.2679 L 244.142,801.8589 L -7.668,801.8589 L -7.668,650.2679 z"/>
    </clipPath>
    <clipPath id="clipPath5403" clipPathUnits="userSpaceOnUse">
      <path id="path5405" d="M -9,395.15 L 170.079,395.15 L 170.079,480.189 L -9,480.189 L -9,395.15 z"/>
    </clipPath>
    <clipPath id="clipPath5019" clipPathUnits="userSpaceOnUse">
      <path id="path5021" d="M 37.533,282.4632 L 37.533,236.758 L 120.0972,236.758 L 120.0972,282.4632"/>
    </clipPath>
    <clipPath id="clipPath5011" clipPathUnits="userSpaceOnUse">
      <path id="path5013" d="M 36,236.022 L 127.961,236.022 L 127.961,287.83 L 36,287.83 L 36,236.022 z"/>
    </clipPath>
    <inkscape:perspective id="perspective4989" inkscape:persp3d-origin="372.04724 : 350.78739 : 1" inkscape:vp_z="744.09448 : 526.18109 : 1" inkscape:vp_y="0 : 1000 : 0" inkscape:vp_x="0 : 526.18109 : 1" sodipodi:type="inkscape:persp3d"/>
    <clipPath id="clipPath7775" clipPathUnits="userSpaceOnUse">
      <path id="path7777" d="M 0,0 L 612,0 L 612,792 L 0,792 L 0,0 z"/>
    </clipPath>
    <clipPath id="clipPath7535" clipPathUnits="userSpaceOnUse">
      <path id="path7537" d="M 66.161,671.893 L 209.322,671.893 L 209.322,703.244 L 66.161,703.244 L 66.161,671.893 z"/>
    </clipPath>
    <clipPath id="clipPath7299" clipPathUnits="userSpaceOnUse">
      <path id="path7301" d="M 92.04,442.442 L 182.695,442.442 L 182.695,509.824 L 92.04,509.824 L 92.04,442.442 z"/>
    </clipPath>
    <clipPath id="clipPath7277" clipPathUnits="userSpaceOnUse">
      <path id="path7279" d="M 0,0 L 612,0 L 612,792 L 0,792 L 0,0 z"/>
    </clipPath>
    <clipPath id="clipPath7039" clipPathUnits="userSpaceOnUse">
      <path id="path7041" d="M 456.409,332.506 L 566.904,332.506 L 566.904,367.215 L 456.409,367.215 L 456.409,332.506 z"/>
    </clipPath>
    <clipPath id="clipPath7001" clipPathUnits="userSpaceOnUse">
      <path id="path7003" d="M 0,0 L 612,0 L 612,792 L 0,792 L 0,0 z"/>
    </clipPath>
    <clipPath id="clipPath6985" clipPathUnits="userSpaceOnUse">
      <path id="path6987" d="M 282.192,719.807 L 574.294,719.807 L 574.294,322.861 L 282.192,322.861 L 282.192,719.807 z"/>
    </clipPath>
    <clipPath id="clipPath6299" clipPathUnits="userSpaceOnUse">
      <path id="path6301" d="M 43.362,54.89 L 152.406,54.89 L 152.406,158 L 43.362,158 L 43.362,54.89 z"/>
    </clipPath>
    <clipPath id="clipPath6287" clipPathUnits="userSpaceOnUse">
      <path id="path6289" d="M 51.892,60.135 L 140.445,60.135 L 140.445,148.727 L 51.892,148.727 L 51.892,60.135 z"/>
    </clipPath>
    <clipPath id="clipPath6275" clipPathUnits="userSpaceOnUse">
      <path id="path6277" d="M 43.362,54.89 L 152.406,54.89 L 152.406,158 L 43.362,158 L 43.362,54.89 z"/>
    </clipPath>
    <clipPath id="clipPath6259" clipPathUnits="userSpaceOnUse">
      <path id="path6261" d="M 0,0 L 612,0 L 612,792 L 0,792 L 0,0 z"/>
    </clipPath>
    <clipPath id="clipPath6245" clipPathUnits="userSpaceOnUse">
      <path id="path6247" d="M 172.939,149.75 L 262.565,149.75 L 262.565,62.312 L 172.939,62.312 L 172.939,149.75 z"/>
    </clipPath>
    <clipPath id="clipPath6187" clipPathUnits="userSpaceOnUse">
      <path id="path6189" d="M 0,0 L 612,0 L 612,792 L 0,792 L 0,0 z"/>
    </clipPath>
    <inkscape:perspective id="perspective6179" inkscape:persp3d-origin="372.04724 : 350.78739 : 1" inkscape:vp_z="744.09448 : 526.18109 : 1" inkscape:vp_y="0 : 1000 : 0" inkscape:vp_x="0 : 526.18109 : 1" sodipodi:type="inkscape:persp3d"/>
    <clipPath id="clipPath19056" clipPathUnits="userSpaceOnUse">
      <path id="path19058" d="M 0,0 L 612,0 L 612,792 L 0,792 L 0,0 z"/>
    </clipPath>
    <clipPath id="clipPath19040" clipPathUnits="userSpaceOnUse">
      <path id="path19042" d="M 0,0 L 612,0 L 612,792 L 0,792 L 0,0 z"/>
    </clipPath>
    <clipPath id="clipPath18884" clipPathUnits="userSpaceOnUse">
      <path id="path18886" d="M 62.094,426.427 L 161.849,326.672 L 199.175,363.999 L 99.421,463.753 L 62.094,426.427 z"/>
    </clipPath>
    <clipPath id="clipPath18728" clipPathUnits="userSpaceOnUse">
      <path id="path18730" d="M -132.203,621.396 L -29.351,518.545 L 8.077,555.973 L -94.775,658.825 L -132.203,621.396 z"/>
    </clipPath>
    <clipPath id="clipPath18572" clipPathUnits="userSpaceOnUse">
      <path id="path18574" d="M 155.047,513.519 L 250.596,417.97 L 291.716,459.09 L 196.167,554.639 L 155.047,513.519 z"/>
    </clipPath>
    <clipPath id="clipPath18416" clipPathUnits="userSpaceOnUse">
      <path id="path18418" d="M -49.539,709.562 L 56.24,603.783 L 97.693,645.236 L -8.086,751.015 L -49.539,709.562 z"/>
    </clipPath>
    <clipPath id="clipPath18260" clipPathUnits="userSpaceOnUse">
      <path id="path18262" d="M 37.794,794.06 L 92.968,738.886 L 114.326,760.244 L 59.152,815.418 L 37.794,794.06 z"/>
    </clipPath>
    <clipPath id="clipPath18104" clipPathUnits="userSpaceOnUse">
      <path id="path18106" d="M 89.058,859.63 L 176.561,772.127 L 210.434,806 L 122.931,893.504 L 89.058,859.63 z"/>
    </clipPath>
    <clipPath id="clipPath17948" clipPathUnits="userSpaceOnUse">
      <path id="path17950" d="M 301.204,932.642 L 485.625,748.221 L 557.015,819.612 L 372.594,1004.032 L 301.204,932.642 z"/>
    </clipPath>
    <clipPath id="clipPath17818" clipPathUnits="userSpaceOnUse">
      <path id="path17820" d="M 266.004,675.088 L 352.162,675.088 L 352.162,761.246 L 266.004,761.246 L 266.004,675.088 z"/>
    </clipPath>
    <clipPath id="clipPath17804" clipPathUnits="userSpaceOnUse">
      <path id="path17806" d="M 373.862,31.173 L 460.019,31.173 L 460.019,117.331 L 373.862,117.331 L 373.862,31.173 z"/>
    </clipPath>
    <clipPath id="clipPath16446" clipPathUnits="userSpaceOnUse">
      <path id="path16448" d="M 158.504,363.519 L 167.893,354.13 L 241.109,354.13 L 158.504,436.735 L 158.504,363.519 z"/>
    </clipPath>
    <clipPath id="clipPath15754" clipPathUnits="userSpaceOnUse">
      <path id="path15756" d="M 427.319,621.288 L 387.931,581.9 L 427.301,542.53 L 466.689,581.918"/>
    </clipPath>
    <clipPath id="clipPath15742" clipPathUnits="userSpaceOnUse">
      <path id="path15744" clip-rule="evenodd" d="M 381.807,583.36 L 430.287,534.88 L 476.129,580.722 L 427.649,629.202 L 381.807,583.36 z"/>
    </clipPath>
    <clipPath id="clipPath15672" clipPathUnits="userSpaceOnUse">
      <path id="path15674" d="M 158.504,354.13 L 244.662,354.13 L 244.662,440.288 L 158.504,440.288 L 158.504,354.13 z"/>
    </clipPath>
    <clipPath id="clipPath14316" clipPathUnits="userSpaceOnUse">
      <path id="path14318" d="M 163.77,440.288 L 244.662,359.397 L 244.662,438.752 L 243.126,440.288 L 163.77,440.288 z"/>
    </clipPath>
    <clipPath id="clipPath14214" clipPathUnits="userSpaceOnUse">
      <path id="path14216" d="M 158.504,354.13 L 244.662,354.13 L 244.662,440.288 L 158.504,440.288 L 158.504,354.13 z"/>
    </clipPath>
    <clipPath id="clipPath14056" clipPathUnits="userSpaceOnUse">
      <path id="path14058" d="M -60.404,231.055 L -4.825,175.475 L 15.972,196.272 L -39.608,251.851 L -60.404,231.055 z"/>
    </clipPath>
    <clipPath id="clipPath13900" clipPathUnits="userSpaceOnUse">
      <path id="path13902" d="M -168.659,339.684 L -111.354,282.379 L -90.501,303.232 L -147.806,360.537 L -168.659,339.684 z"/>
    </clipPath>
    <clipPath id="clipPath13744" clipPathUnits="userSpaceOnUse">
      <path id="path13746" d="M -8.615,279.579 L 44.621,226.342 L 67.532,249.253 L 14.296,302.489 L -8.615,279.579 z"/>
    </clipPath>
    <clipPath id="clipPath13588" clipPathUnits="userSpaceOnUse">
      <path id="path13590" d="M -122.602,388.806 L -63.666,329.87 L -40.57,352.966 L -99.506,411.902 L -122.602,388.806 z"/>
    </clipPath>
    <clipPath id="clipPath13432" clipPathUnits="userSpaceOnUse">
      <path id="path13434" d="M -73.944,435.885 L -43.203,405.144 L -31.303,417.044 L -62.044,447.785 L -73.944,435.885 z"/>
    </clipPath>
    <clipPath id="clipPath13276" clipPathUnits="userSpaceOnUse">
      <path id="path13278" d="M -45.382,472.418 L 3.372,423.665 L 22.245,442.538 L -26.509,491.291 L -45.382,472.418 z"/>
    </clipPath>
    <clipPath id="clipPath13268" clipPathUnits="userSpaceOnUse">
      <path id="path13270" d="M 51.429,460.592 L 137.587,460.592 L 137.587,546.75 L 51.429,546.75 L 51.429,460.592 z"/>
    </clipPath>
    <clipPath id="clipPath13112" clipPathUnits="userSpaceOnUse">
      <path id="path13114" d="M 106.47,546.75 L 72.818,513.098 L 125.324,460.592 L 137.587,460.592 L 137.587,527.881 L 118.717,546.75 L 106.47,546.75 z"/>
    </clipPath>
    <clipPath id="clipPath13062" clipPathUnits="userSpaceOnUse">
      <path id="path13064" d="M 51.429,460.592 L 137.587,460.592 L 137.587,546.75 L 51.429,546.75 L 51.429,460.592 z"/>
    </clipPath>
    <clipPath id="clipPath13030" clipPathUnits="userSpaceOnUse">
      <path id="path13032" d="M 51.429,460.592 L 137.587,460.592 L 137.587,546.75 L 51.429,546.75 L 51.429,460.592 z"/>
    </clipPath>
    <clipPath id="clipPath12954" clipPathUnits="userSpaceOnUse">
      <path id="path12956" d="M 51.429,460.592 L 137.587,460.592 L 137.587,546.75 L 51.429,546.75 L 51.429,460.592 z"/>
    </clipPath>
    <clipPath id="clipPath12940" clipPathUnits="userSpaceOnUse">
      <path id="path12942" d="M 158.464,460.552 L 244.622,460.552 L 244.622,546.71 L 158.464,546.71 L 158.464,460.552 z"/>
    </clipPath>
    <clipPath id="clipPath12926" clipPathUnits="userSpaceOnUse">
      <path id="path12928" d="M 265.757,332.165 L 265.757,246.007 L 351.914,246.007 L 351.914,330.844 L 350.594,332.165 L 265.757,332.165 z"/>
    </clipPath>
    <clipPath id="clipPath12914" clipPathUnits="userSpaceOnUse">
      <path id="path12916" d="M 376.071,439.353 L 373.862,437.143 L 373.862,353.195 L 460.019,353.195 L 460.019,439.353 L 376.071,439.353 z"/>
    </clipPath>
    <clipPath id="clipPath12756" clipPathUnits="userSpaceOnUse">
      <path id="path12758" d="M 384.963,224.638 L 388.447,221.154 L 391.931,224.638 L 384.963,224.638 z"/>
    </clipPath>
    <clipPath id="clipPath12600" clipPathUnits="userSpaceOnUse">
      <path id="path12602" d="M 363.918,245.103 L 399.176,280.362 L 366.55,312.988 L 331.292,277.729 L 363.918,245.103 z"/>
    </clipPath>
    <clipPath id="clipPath12500" clipPathUnits="userSpaceOnUse">
      <path id="path12502" d="M 328.371,160.073 L 366.46,198.162 L 352.476,212.145 L 314.388,174.057 L 328.371,160.073 z"/>
    </clipPath>
    <clipPath id="clipPath12444" clipPathUnits="userSpaceOnUse">
      <path id="path12446" d="M 305.355,190.275 L 336.602,221.522 L 308.894,249.23 L 277.646,217.983 L 305.355,190.275 z"/>
    </clipPath>
    <clipPath id="clipPath12392" clipPathUnits="userSpaceOnUse">
      <path id="path12394" d="M 306.532,184.525 L 342.2,220.193 L 309.809,252.584 L 274.141,216.916 L 306.532,184.525 z"/>
    </clipPath>
    <clipPath id="clipPath12384" clipPathUnits="userSpaceOnUse">
      <path id="path12386" d="M 373.124,224.638 L 373.124,138.481 L 412.437,138.481 L 459.282,185.326 L 459.282,224.638 L 373.124,224.638 z"/>
    </clipPath>
    <clipPath id="clipPath12064" clipPathUnits="userSpaceOnUse">
      <path id="path12066" d="M 444.835,212.562 L 457.346,200.05 L 459.282,201.986 L 459.282,212.329 L 451.942,219.669 L 444.835,212.562 z"/>
    </clipPath>
    <clipPath id="clipPath11744" clipPathUnits="userSpaceOnUse">
      <path id="path11746" d="M 432.642,224.638 L 436.241,221.039 L 439.84,224.638 L 432.642,224.638 z"/>
    </clipPath>
    <clipPath id="clipPath11588" clipPathUnits="userSpaceOnUse">
      <path id="path11590" d="M 411.546,224.638 L 399.983,213.076 L 414.438,198.621 L 429.868,214.051 L 419.28,224.638 L 411.546,224.638 z"/>
    </clipPath>
    <clipPath id="clipPath11576" clipPathUnits="userSpaceOnUse">
      <path id="path11578" d="M 373.124,224.638 L 373.124,138.481 L 412.437,138.481 L 459.282,185.326 L 459.282,224.638 L 373.124,224.638 z"/>
    </clipPath>
    <clipPath id="clipPath11420" clipPathUnits="userSpaceOnUse">
      <path id="path11422" d="M 419.447,190.155 L 433.804,175.798 L 445.173,187.167 L 430.816,201.523 L 419.447,190.155 z"/>
    </clipPath>
    <clipPath id="clipPath11308" clipPathUnits="userSpaceOnUse">
      <path id="path11310" d="M 373.124,180.464 L 373.124,162.043 L 374.118,161.049 L 387.881,174.811 L 377.676,185.016 L 373.124,180.464 z"/>
    </clipPath>
    <clipPath id="clipPath11276" clipPathUnits="userSpaceOnUse">
      <path id="path11278" d="M 375.181,151.724 L 388.424,138.481 L 403.766,138.481 L 417.009,151.724 L 396.094,172.638 L 375.181,151.724 z"/>
    </clipPath>
    <clipPath id="clipPath11240" clipPathUnits="userSpaceOnUse">
      <path id="path11242" d="M 373.124,149.794 L 375.157,151.827 L 373.124,153.86 L 373.124,149.794 z"/>
    </clipPath>
    <clipPath id="clipPath11224" clipPathUnits="userSpaceOnUse">
      <path id="path11226" d="M 373.124,224.638 L 373.124,138.481 L 412.437,138.481 L 459.282,185.326 L 459.282,224.638 L 373.124,224.638 z"/>
    </clipPath>
    <clipPath id="clipPath11172" clipPathUnits="userSpaceOnUse">
      <path id="path11174" d="M 373.124,144.014 L 373.124,138.481 L 384.762,138.481 L 376.177,147.067 L 373.124,144.014 z"/>
    </clipPath>
    <clipPath id="clipPath11108" clipPathUnits="userSpaceOnUse">
      <path id="path11110" d="M 373.124,224.638 L 373.124,138.481 L 412.437,138.481 L 459.282,185.326 L 459.282,224.638 L 373.124,224.638 z"/>
    </clipPath>
    <clipPath id="clipPath10676" clipPathUnits="userSpaceOnUse">
      <path id="path10678" d="M 479.362,353.481 L 565.519,353.481 L 565.519,439.638 L 479.362,439.638 L 479.362,353.481 z"/>
    </clipPath>
    <clipPath id="clipPath10662" clipPathUnits="userSpaceOnUse">
      <path id="path10664" d="M 264.536,460.652 L 350.693,460.652 L 350.693,546.81 L 264.536,546.81 L 264.536,460.652 z"/>
    </clipPath>
    <clipPath id="clipPath10648" clipPathUnits="userSpaceOnUse">
      <path id="path10650" d="M 372.481,653.519 L 372.481,567.362 L 458.638,567.362 L 458.638,620.287 L 425.407,653.519 L 372.481,653.519 z"/>
    </clipPath>
    <linearGradient id="linearGradient10636" spreadMethod="pad" gradientTransform="matrix(44.18132,-44.18132,-44.18132,-44.18132,397.55582,599.5867)" gradientUnits="userSpaceOnUse" y2="0" x2="1" y1="0" x1="0">
      <stop id="stop10638" offset="0" style="stop-opacity:1;stop-color:#284574"/>
      <stop id="stop10640" offset="1" style="stop-opacity:1;stop-color:#b8bed7"/>
    </linearGradient>
    <clipPath id="clipPath10632" clipPathUnits="userSpaceOnUse">
      <path id="path10634" d="M 0.00239563,0.00239563 L 0.997604,0.00239563 L 0.997604,0.224335 L 0.00239563,0.224335 L 0.00239563,0.00239563 z"/>
    </clipPath>
    <clipPath id="clipPath10622" clipPathUnits="userSpaceOnUse">
      <path id="path10624" d="M 387.751,589.57 L 409.959,567.362 L 429.569,567.362 L 397.556,599.376 L 387.751,589.57 z"/>
    </clipPath>
    <clipPath id="clipPath10606" clipPathUnits="userSpaceOnUse">
      <path id="path10608" d="M 372.481,653.519 L 372.481,567.362 L 458.638,567.362 L 458.638,620.287 L 425.407,653.519 L 372.481,653.519 z"/>
    </clipPath>
    <linearGradient id="linearGradient10594" spreadMethod="pad" gradientTransform="matrix(44.18132,-44.18132,-44.18132,-44.18132,419.95386,621.98477)" gradientUnits="userSpaceOnUse" y2="0" x2="1" y1="0" x1="0">
      <stop id="stop10596" offset="0" style="stop-opacity:1;stop-color:#f78a3e"/>
      <stop id="stop10598" offset="1" style="stop-opacity:1;stop-color:#fddfc5"/>
    </linearGradient>
    <clipPath id="clipPath10590" clipPathUnits="userSpaceOnUse">
      <path id="path10592" d="M 0.00239563,0.00239563 L 0.997604,0.00239563 L 0.997604,0.224335 L 0.00239563,0.224335 L 0.00239563,0.00239563 z"/>
    </clipPath>
    <clipPath id="clipPath10580" clipPathUnits="userSpaceOnUse">
      <path id="path10582" d="M 410.148,611.968 L 454.118,567.998 L 458.638,572.518 L 458.638,583.089 L 419.953,621.773 L 410.148,611.968 z"/>
    </clipPath>
    <linearGradient id="linearGradient10568" spreadMethod="pad" gradientTransform="matrix(44.181335,-44.181335,-44.181335,-44.181335,435.33195,637.36287)" gradientUnits="userSpaceOnUse" y2="0" x2="1" y1="0" x1="0">
      <stop id="stop10570" offset="0" style="stop-opacity:1;stop-color:#f6804e"/>
      <stop id="stop10572" offset="1" style="stop-opacity:1;stop-color:#fdddc9"/>
    </linearGradient>
    <clipPath id="clipPath10564" clipPathUnits="userSpaceOnUse">
      <path id="path10566" d="M 0.00239563,0.00239563 L 0.997604,0.00239563 L 0.997604,0.224335 L 0.00239563,0.224335 L 0.00239563,0.00239563 z"/>
    </clipPath>
    <clipPath id="clipPath10554" clipPathUnits="userSpaceOnUse">
      <path id="path10556" d="M 425.526,627.346 L 458.638,594.235 L 458.638,613.845 L 435.332,637.151 L 425.526,627.346 z"/>
    </clipPath>
    <clipPath id="clipPath10342" clipPathUnits="userSpaceOnUse">
      <path id="path10344" d="M 372.481,653.519 L 372.481,567.362 L 458.638,567.362 L 458.638,620.287 L 425.407,653.519 L 372.481,653.519 z"/>
    </clipPath>
    <clipPath id="clipPath10324" clipPathUnits="userSpaceOnUse">
      <path id="path10326" d="M 0,0 L 612,0 L 612,792 L 0,792 L 0,0 z"/>
    </clipPath>
    <clipPath id="clipPath10168" clipPathUnits="userSpaceOnUse">
      <path id="path10170" d="M 87,69.57 L 215.224,69.57 L 215.224,191 L 87,191 L 87,69.57 z"/>
    </clipPath>
    <inkscape:perspective id="perspective10158" inkscape:persp3d-origin="372.04724 : 350.78739 : 1" inkscape:vp_z="744.09448 : 526.18109 : 1" inkscape:vp_y="0 : 1000 : 0" inkscape:vp_x="0 : 526.18109 : 1" sodipodi:type="inkscape:persp3d"/>
    <clipPath id="clipPath28058" clipPathUnits="userSpaceOnUse">
      <path id="path28060" d="M 200.654,123.065 L 415.345,123.065 L 415.345,324.875 L 200.654,324.875 L 200.654,123.065 z"/>
    </clipPath>
    <clipPath id="clipPath27964" clipPathUnits="userSpaceOnUse">
      <path id="path27966" d="M 0,0 L 612,0 L 612,792 L 0,792 L 0,0 z"/>
    </clipPath>
    <inkscape:perspective id="perspective27956" inkscape:persp3d-origin="372.04724 : 350.78739 : 1" inkscape:vp_z="744.09448 : 526.18109 : 1" inkscape:vp_y="0 : 1000 : 0" inkscape:vp_x="0 : 526.18109 : 1" sodipodi:type="inkscape:persp3d"/>
  </defs>
  <sodipodi:namedview id="base" pagecolor="#ffffff" bordercolor="#666666" borderopacity="1.0" gridtolerance="10000" guidetolerance="10" objecttolerance="10" inkscape:pageopacity="0.0" inkscape:pageshadow="2" inkscape:zoom="0.98994949" inkscape:cx="196.1968" inkscape:cy="-80.761034" inkscape:document-units="px" inkscape:current-layer="layer1" showgrid="false" inkscape:window-width="640" inkscape:window-height="672" inkscape:window-x="132" inkscape:window-y="138" units="px"/>
  <metadata id="metadata7">
    <rdf:RDF>
      <cc:Work rdf:about="">
        <dc:format>image/svg+xml</dc:format>
        <dc:type rdf:resource="http://purl.org/dc/dcmitype/StillImage"/>
      </cc:Work>
    </rdf:RDF>
  </metadata>
  <g inkscape:label="Layer 1" inkscape:groupmode="layer" id="layer1" transform="translate(-152.17413,-338.65938)">
    <g id="g28054" transform="matrix(1.5837803,0,0,-1.5837803,-182.13338,832.78821)">
      <g id="g28056" clip-path="url(#clipPath28058)">
        <g id="g28062" transform="translate(222.81531,193.8886)">
          <path d="M 0,0 L -3.19,-8.823 L 3.529,-8.823 L 0,0 z M -3.766,-10.386 C -4.343,-12.081 -5.837,-15.612 -5.837,-17.241 C -5.837,-19.31 -3.494,-19.31 -1.968,-19.549 L -1.968,-20.057 L -11.266,-20.057 L -11.266,-19.549 C -8.246,-18.734 -7.94,-18.055 -6.888,-15.407 L -3.055,-5.397 L -1.018,0.135 C -0.712,1.016 -0.271,1.831 -0.644,2.476 C 0.272,2.851 1.12,3.46 1.833,4.31 L 9.298,-15.577 C 10.215,-18.055 10.791,-19.037 13.507,-19.549 L 13.507,-20.057 L 3.529,-20.057 L 3.529,-19.549 C 4.718,-19.277 6.143,-18.902 6.143,-17.376 C 6.143,-15.95 4.853,-12.76 3.971,-10.386 L -3.766,-10.386 z" style="fill:#0c2e59;fill-opacity:1;fill-rule:nonzero;stroke:none" id="path28064"/>
        </g>
        <g id="g28066" transform="translate(268.94901,196.908)">
          <path d="M 0,0 L 0,-0.51 C -3.088,-0.848 -3.291,-2.748 -3.427,-7.229 L -3.63,-14.659 C -3.733,-19.038 -5.599,-23.483 -13.133,-23.483 C -23.652,-23.483 -22.566,-15.881 -22.566,-13.168 L -22.566,-5.565 C -22.669,-2.069 -22.702,-1.052 -26.774,-0.51 L -26.774,0 L -15.066,0 L -15.066,-0.51 C -19.512,-1.153 -19.581,-1.833 -19.581,-5.565 L -19.581,-12.521 C -19.581,-13.168 -20.666,-21.921 -11.368,-21.921 C -4.038,-21.921 -4.75,-14.931 -4.75,-10.791 L -4.75,-7.229 C -4.75,-2.918 -5.09,-0.95 -9.84,-0.51 L -9.84,0 L 0,0 z" style="fill:#0c2e59;fill-opacity:1;fill-rule:nonzero;stroke:none" id="path28068"/>
        </g>
        <g id="g28070" transform="translate(284.6955,186.0479)">
          <path d="M 0,0 C 3.156,0.034 7.059,0.884 7.059,4.819 C 7.059,8.892 3.461,10.149 0,10.149 L 0,0 z M 0,-6.346 C 0,-8.992 -0.17,-11.503 3.292,-11.503 C 6.244,-11.503 8.314,-9.568 8.314,-6.583 C 8.314,-4.513 6.38,-0.406 1.323,-0.643 L 0,-0.711 L 0,-6.346 z M 4.411,-0.034 C 7.5,-0.745 11.945,-2.171 11.945,-6.176 C 11.945,-12.453 3.835,-12.318 2.138,-12.283 L -7.193,-12.216 L -7.193,-11.708 C -3.123,-11.165 -3.088,-10.145 -2.987,-6.65 L -2.987,5.124 C -3.088,8.62 -3.123,9.638 -6.991,10.149 L -6.991,10.657 L -0.101,10.928 C 3.699,11.064 10.419,10.691 10.419,5.328 C 10.419,2.002 7.092,0.713 4.411,0.034 L 4.411,-0.034 z" style="fill:#0c2e59;fill-opacity:1;fill-rule:nonzero;stroke:none" id="path28072"/>
        </g>
        <g id="g28074" transform="translate(333.4259,196.908)">
          <path d="M 0,0 L 0,-0.51 C -3.088,-0.848 -3.291,-2.748 -3.426,-7.229 L -3.631,-14.659 C -3.733,-19.038 -5.599,-23.483 -13.133,-23.483 C -23.652,-23.483 -22.566,-15.881 -22.566,-13.168 L -22.566,-5.565 C -22.669,-2.069 -22.702,-1.052 -26.774,-0.51 L -26.774,0 L -15.066,0 L -15.066,-0.51 C -19.511,-1.153 -19.58,-1.833 -19.58,-5.565 L -19.58,-12.521 C -19.58,-13.168 -20.665,-21.921 -11.368,-21.921 C -4.039,-21.921 -4.75,-14.931 -4.75,-10.791 L -4.75,-7.229 C -4.75,-2.918 -5.09,-0.95 -9.84,-0.51 L -9.84,0 L 0,0 z" style="fill:#0c2e59;fill-opacity:1;fill-rule:nonzero;stroke:none" id="path28076"/>
        </g>
        <g id="g28078" transform="translate(349.13789,185.43829)">
          <path d="M 0,0 C 3.259,0.032 7.058,1.525 7.058,5.293 C 7.058,9.265 3.562,10.859 0,10.825 L 0,0 z M -2.987,4.479 C -2.987,9.672 -3.155,10.452 -6.956,10.79 L -6.956,11.267 L 1.323,11.538 C 9.874,11.81 10.553,7.636 10.553,6.007 C 10.553,3.155 8.79,1.525 6.346,0.44 L 6.515,0.203 C 9.129,-4.379 12.387,-10.215 17.986,-11.37 L 17.885,-11.878 C 14.288,-11.708 11.64,-11.809 9.672,-9.773 C 7.433,-7.433 5.668,-4.446 4.954,-2.987 C 3.597,-0.17 2.375,-0.985 0,-0.577 L 0,-6.04 C 0,-9.773 0.069,-10.452 4.718,-11.099 L 4.718,-11.607 L -7.193,-11.607 L -7.193,-11.099 C -3.123,-10.555 -3.088,-9.536 -2.987,-6.04 L -2.987,4.479 z" style="fill:#0c2e59;fill-opacity:1;fill-rule:nonzero;stroke:none" id="path28080"/>
        </g>
        <g id="g28082" transform="translate(394.37379,179.1609)">
          <path d="M 0,0 L -0.17,12.386 C -0.203,15.609 -1.086,16.559 -4.92,17.238 L -4.92,17.747 L 4.345,17.747 L 4.345,17.238 C 2.002,16.932 1.56,15.644 1.289,13.437 C 0.815,9.704 0.985,1.525 1.153,-5.873 L 0.713,-5.974 C -4.717,0.44 -10.757,6.379 -16.492,12.555 L -16.492,6.31 C -16.492,-2.105 -16.697,-3.836 -11.775,-4.821 L -11.775,-5.329 L -21.923,-5.329 L -21.923,-4.821 C -17.341,-4.345 -17.51,-1.222 -17.51,6.481 L -17.51,11.571 C -17.51,14.965 -18.052,16.288 -22.363,17.238 L -22.363,17.747 L -16.764,17.747 L 0,0 z" style="fill:#0c2e59;fill-opacity:1;fill-rule:nonzero;stroke:none" id="path28084"/>
        </g>
        <g id="g28086" transform="translate(398.185,159.2505)">
          <path d="M 0,0 L 0,1.346 L -187.103,1.346 L -187.103,0" style="fill:#f5711f;fill-opacity:1;fill-rule:nonzero;stroke:none" id="path28088"/>
        </g>
        <g id="g28090" transform="translate(304.2114,303.2205)">
          <path d="M 0,0 L 1.097,-0.323 L 7.413,-11.257 L 14.461,-11.257 L 15.435,-12.899 L 7.679,-12.974 L 5.017,-10.834 L 2.198,-13.089 L 0,-11.196 L 0,-0.91 L 0,0 z" style="fill:#f5711f;fill-opacity:1;fill-rule:evenodd;stroke:none" id="path28092"/>
        </g>
        <g id="g28094" transform="translate(318.37309,288.72929)">
          <path d="M 0,0 L 2.524,-6.202 L -4.508,-0.095 L 0,0 z" style="fill:#f5711f;fill-opacity:1;fill-rule:evenodd;stroke:none" id="path28096"/>
        </g>
        <g id="g28098" transform="translate(296.8289,291.6407)">
          <path d="M 0,0 L -9.718,0 L -7.954,-2.22 L -1.721,-2.22 L 0,0 z" style="fill:#f5711f;fill-opacity:1;fill-rule:evenodd;stroke:none" id="path28100"/>
        </g>
        <g id="g28102" transform="translate(321.713,262.993)">
          <path d="M 0,0 C -2.097,-1.184 -6.564,2.24 -9.191,6.893 C -11.818,11.547 -12.115,16.555 -10.018,17.739 C -9.09,18.262 -7.716,17.99 -6.246,17.123 L -6.57,19.387 L -3.153,16.552 L -3.804,15.2 C -2.752,14.157 -1.748,12.867 -0.919,11.397 C 1.711,6.742 2.097,1.184 0,0 M 8.49,0.901 L 3.613,7.861 L 5.221,9.019 L 3.162,10.886 L 4.642,12.044 L -12.348,26.654 L -15.438,24.466 L -17.848,26.763 L -17.825,23.544 L -12.671,18.223 L -14.215,13.846 L -17.502,17.289 L -17.502,8.278 L -13.207,4.536 L -12.276,6.059 L 2.526,-5.709 L 2.571,-8.167 L 5.484,-9.987 L 5.114,-1.241 L 8.49,0.901 z M -8.228,15.666 C -9.177,15.13 -9.385,13.542 -8.931,11.554 C -9.082,12.771 -8.869,13.697 -8.254,14.045 C -7.012,14.746 -4.606,12.836 -2.88,9.779 C -1.154,6.721 -0.76,3.674 -2.002,2.973 C -2.439,2.726 -3.02,2.808 -3.663,3.142 C -2.549,2.335 -1.504,2.04 -0.769,2.455 C 0.778,3.329 0.363,6.995 -1.696,10.643 C -3.757,14.292 -6.681,16.54 -8.228,15.666" style="fill:#f5711f;fill-opacity:1;fill-rule:nonzero;stroke:none" id="path28104"/>
        </g>
        <g id="g28106" transform="translate(285.1758,265.6403)">
          <path d="M 0,0 C -1.12,0.882 -0.267,3.833 1.906,6.591 C 4.08,9.349 6.749,10.87 7.87,9.986 C 8.263,9.676 8.408,9.108 8.343,8.387 C 8.666,9.724 8.543,10.802 7.88,11.324 C 6.485,12.424 3.251,10.648 0.657,7.357 C -1.936,4.066 -2.906,0.508 -1.51,-0.592 C -0.654,-1.267 0.893,-0.856 2.561,0.318 C 1.493,-0.283 0.556,-0.438 0,0" style="fill:#f5711f;fill-opacity:1;fill-rule:nonzero;stroke:none" id="path28108"/>
        </g>
        <g id="g28110" transform="translate(304.20689,259.5453)">
          <path d="M 0,0 L -24.999,-14.633 L -24.999,-16.748 L 0,-2.409 L 0,0 z" style="fill:#f5711f;fill-opacity:1;fill-rule:nonzero;stroke:none" id="path28112"/>
        </g>
        <g id="g28114" transform="translate(298.46381,236.6367)">
          <path d="M 0,0 L 0,2.567 L -17.205,-4.148 L -17.205,-6.009 L 0,0 z" style="fill:#f5711f;fill-opacity:1;fill-rule:nonzero;stroke:none" id="path28116"/>
        </g>
        <g id="g28118" transform="translate(280.3476,269.6096)">
          <path d="M 0,0 L -0.073,-8.343 L -4.51,-4.088 L 0,0 z" style="fill:#f5711f;fill-opacity:1;fill-rule:evenodd;stroke:none" id="path28120"/>
        </g>
        <g id="g28122" transform="translate(286.6403,244.0018)">
          <path d="M 0,0 L 0,-7.023 L -2.673,-8.113 L -2.673,-1.293" style="fill:#f5711f;fill-opacity:1;fill-rule:evenodd;stroke:none" id="path28124"/>
        </g>
        <g id="g28126" transform="translate(291.6671,246.5369)">
          <path d="M 0,0 L 0,-7.454 L -2.793,-8.62 L -2.793,-1.396" style="fill:#f5711f;fill-opacity:1;fill-rule:evenodd;stroke:none" id="path28128"/>
        </g>
        <g id="g28130" transform="translate(296.81419,249.12511)">
          <path d="M 0,0 L 0.015,-7.888 L -2.862,-9.104 L -2.862,-1.422" style="fill:#f5711f;fill-opacity:1;fill-rule:evenodd;stroke:none" id="path28132"/>
        </g>
        <g id="g28134" transform="translate(281.54581,215.5378)">
          <path d="M 0,0 C 0,0 0.309,8.545 0.418,9.663 C 0.622,11.777 4.61,13.175 4.474,9.902 L 4.295,-1.133 L 0,0 z" style="fill:#f5711f;fill-opacity:1;fill-rule:evenodd;stroke:none" id="path28136"/>
        </g>
        <g id="g28138" transform="translate(290.1953,213.2713)">
          <path d="M 0,0 C 0,0 0.267,12.245 0.349,13.826 C 0.455,15.876 5.372,18.206 5.828,14.31 L 5.828,-1.528 L 0,0 z" style="fill:#f5711f;fill-opacity:1;fill-rule:evenodd;stroke:none" id="path28140"/>
        </g>
        <g id="g28142" transform="translate(319.1017,268.3065)">
          <path d="M 0,0 L 0,0.971 L -2.186,2.55 L -2.186,5.95 L -2.793,6.679 L -3.036,2.186 L 0,0 z" style="fill:#f5711f;fill-opacity:1;fill-rule:evenodd;stroke:none" id="path28144"/>
        </g>
        <g id="g28146" transform="translate(327.9995,241.43111)">
          <path d="M 0,0 L -23.797,15.603 L -23.786,-31.682 L 1.685,-25.038 L 0,0 z M -0.614,9.126 L -4.939,11.798 L -3.869,13.071 L -18.477,24.49 L -19.54,22.844 L -23.788,26.51 L -23.795,18.238 L -0.157,2.333 L -0.614,9.126 z" style="fill:#f5711f;fill-opacity:1;fill-rule:evenodd;stroke:none" id="path28148"/>
        </g>
        <g id="g28150" transform="translate(280.2438,257.0144)">
          <path d="M 0,0 L 16.9,11.001 L 16.9,23.694 L 19.971,20.72 L 19.971,5.531 L 17.892,5.858 L 17.946,9.581 L 14.655,7.429 L 14.655,4.898 L 6.302,-0.418 L 6.262,-2.855 L 2.877,-5.14 L 1.693,-4.04 L 4.59,-2.081 L 4.654,0.868 L 1.608,-1.078" style="fill:#f5711f;fill-opacity:1;fill-rule:evenodd;stroke:none" id="path28152"/>
        </g>
        <g id="g28154" transform="translate(294.8586,261.2191)">
          <path d="M 0,0 L 3.585,2.339 L 5.356,1.326 L 1.505,-1.035 L 0,0 z" style="fill:#f5711f;fill-opacity:1;fill-rule:evenodd;stroke:none" id="path28156"/>
        </g>
        <g id="g28158" transform="translate(304.2114,302.50729)">
          <path d="M 0,0 L 0,9.122 L 1.739,9.486 L 1.739,5.614 L 4.045,7.335 L 4.728,6.106 L 1.923,3.959 L 4.471,1.681 L 3.645,0.287 L 1.739,1.672 L 1.739,-1.117 L 0,0 z" style="fill:#f5711f;fill-opacity:1;fill-rule:evenodd;stroke:none" id="path28160"/>
        </g>
        <g id="g28162" transform="translate(303.3891,307.769)">
          <path d="M 0,0 L -2.077,1.513 L -3.18,0.095 L -1.113,-1.464 L 0,0 z" style="fill:#f5711f;fill-opacity:1;fill-rule:evenodd;stroke:none" id="path28164"/>
        </g>
        <g id="g28166" transform="translate(301.3071,289.9476)">
          <path d="M 0,0 L -3.728,3.313 L -23.6,-12.256 L -20.562,-14.407 L -22.967,-16.306 L -21.063,-17.532 L -13.369,-11.677 L -14.055,-9.763 L -10.479,-7.013 L -10.915,-9.809 L -4.163,-4.67 L -4.163,-8.901 L 2.904,-3.732 L 2.904,2.016 L 0,0 z" style="fill:#f5711f;fill-opacity:1;fill-rule:evenodd;stroke:none" id="path28168"/>
        </g>
        <g id="g28170" transform="translate(236.6581,145.9472)">
          <path d="M 0,0 L 4.677,0 L 4.677,-0.42 C 3.238,-0.795 3.238,-1.02 3.118,-3.523 L 3.013,-5.772 C 2.968,-6.956 2.938,-8.305 2.069,-9.204 C 1.184,-10.133 -0.18,-10.449 -1.424,-10.449 C -2.593,-10.449 -4.002,-10.149 -4.887,-9.354 C -5.936,-8.41 -5.786,-6.956 -5.786,-5.697 L -5.786,-3.328 C -5.786,-0.615 -5.981,-0.72 -7.765,-0.42 L -7.765,0 L -1.829,0 L -1.829,-0.42 C -3.897,-0.6 -3.808,-1.29 -3.808,-3.328 L -3.808,-5.427 C -3.808,-6.297 -3.853,-7.48 -3.373,-8.23 C -2.773,-9.144 -1.559,-9.504 -0.51,-9.504 C 1.964,-9.504 2.338,-7.705 2.278,-5.847 L 2.173,-2.219 C 2.128,-0.615 1.409,-0.704 0,-0.42 L 0,0 z" style="fill:#0c2e59;fill-opacity:1;fill-rule:nonzero;stroke:none" id="path28172"/>
        </g>
        <g id="g28174" transform="translate(249.2943,142.57401)">
          <path d="M 0,0 C 0,1.544 -0.045,2.624 -1.949,2.953 L -1.949,3.373 L 1.499,3.373 C 3.388,0.914 5.996,-1.574 8.155,-4.093 L 8.185,-4.063 L 8.095,0.704 C 8.065,2.488 7.615,2.713 5.846,2.953 L 5.846,3.373 L 10.403,3.373 L 10.403,2.953 C 9.084,2.833 9.009,2.203 9.009,-0.24 L 9.009,-6.91 L 8.335,-7.241 C 6.866,-5.442 3.298,-1.844 0.824,0.825 C 0.78,-0.854 0.855,-2.428 0.915,-4.063 C 0.974,-5.906 1.304,-6.026 3.073,-6.401 L 3.073,-6.821 L -1.844,-6.821 L -1.844,-6.401 C -0.749,-6.192 0,-6.251 0,-4.227 L 0,0 z" style="fill:#0c2e59;fill-opacity:1;fill-rule:nonzero;stroke:none" id="path28176"/>
        </g>
        <g id="g28178" transform="translate(269.7702,139.0811)">
          <path d="M 0,0 C 0,-2.713 0.195,-2.608 1.979,-2.908 L 1.979,-3.328 L -3.957,-3.328 L -3.957,-2.908 C -2.173,-2.608 -1.979,-2.713 -1.979,0 L -1.979,3.538 C -1.979,6.251 -2.173,6.146 -3.957,6.446 L -3.957,6.866 L 1.979,6.866 L 1.979,6.446 C 0.195,6.146 0,6.251 0,3.538 L 0,0 z" style="fill:#0c2e59;fill-opacity:1;fill-rule:nonzero;stroke:none" id="path28180"/>
        </g>
        <g id="g28182" transform="translate(279.21381,143.5627)">
          <path d="M 0,0 C -0.734,1.664 -0.779,1.574 -1.949,1.965 L -1.949,2.384 L 3.373,2.384 L 3.373,1.965 C 1.649,1.56 1.559,1.56 2.504,-0.659 L 4.587,-5.606 L 5.891,-2.338 C 7.51,1.724 7.046,1.664 5.127,1.965 L 5.127,2.384 L 9.819,2.384 L 9.819,1.965 C 8.424,1.785 8.065,0.825 7.03,-1.588 L 4.183,-8.23 L 3.567,-8.109 L 0,0 z" style="fill:#0c2e59;fill-opacity:1;fill-rule:nonzero;stroke:none" id="path28184"/>
        </g>
        <g id="g28186" transform="translate(298.5062,140.59531)">
          <path d="M 0,0 L 0,-1.979 C 0,-3.508 0.015,-4.213 2.009,-4.213 C 3.957,-4.213 4.797,-3.118 5.216,-1.394 L 5.666,-1.394 C 5.696,-2.564 5.486,-3.718 5.127,-4.842 L -3.957,-4.842 L -3.957,-4.422 C -2.173,-4.122 -1.979,-4.227 -1.979,-1.514 L -1.979,2.024 C -1.979,4.737 -2.173,4.632 -3.957,4.932 L -3.957,5.352 L 4.917,5.352 L 4.632,2.728 L 4.167,2.728 C 4.062,4.692 2.728,4.722 1.094,4.722 L 0,4.722 L 0,0.9 L 1.274,0.9 C 2.563,0.9 3.238,1.005 3.613,2.368 L 4.003,2.368 C 3.927,1.095 3.867,-0.165 3.942,-1.44 L 3.522,-1.44 C 3.223,0.03 2.518,0 1.214,0 L 0,0 z" style="fill:#0c2e59;fill-opacity:1;fill-rule:nonzero;stroke:none" id="path28188"/>
        </g>
        <g id="g28190" transform="translate(314.3954,141.1049)">
          <path d="M 0,0 C 1.394,0.104 2.788,0.704 2.788,2.324 C 2.788,3.868 1.349,4.286 0,4.286 L 0,0 z M -1.979,1.964 C -1.979,3.988 -2.084,4.272 -3.957,4.422 L -3.957,4.842 L 0.704,4.842 C 2.548,4.842 5.036,4.842 5.036,2.458 C 5.036,1.274 4.137,0.404 3.088,0 C 4.197,-2.188 5.741,-4.527 8.214,-5.111 L 8.155,-5.531 C 6.82,-5.456 5.276,-5.591 4.107,-4.782 C 3.342,-4.242 2.473,-2.833 2.024,-1.994 C 1.319,-0.645 1.424,-0.734 0,-0.525 L 0,-2.024 C 0,-4.062 -0.09,-4.752 2.324,-4.932 L 2.324,-5.352 L -3.957,-5.352 L -3.957,-4.932 C -2.174,-4.632 -1.979,-4.737 -1.979,-2.024 L -1.979,1.964 z" style="fill:#0c2e59;fill-opacity:1;fill-rule:nonzero;stroke:none" id="path28192"/>
        </g>
        <g id="g28194" transform="translate(334.37691,142.91879)">
          <path d="M 0,0 L -0.45,0 C -0.734,1.229 -1.094,2.593 -2.638,2.593 C -3.553,2.593 -4.167,1.918 -4.167,1.034 C -4.167,-1.394 0.764,-1.229 0.764,-4.363 C 0.764,-6.521 -1.304,-7.42 -3.223,-7.42 C -4.287,-7.42 -5.336,-7.136 -6.266,-6.656 L -6.761,-3.688 L -6.296,-3.598 C -5.801,-5.067 -4.707,-6.73 -2.938,-6.73 C -1.948,-6.73 -1.215,-6.087 -1.215,-5.112 C -1.215,-2.578 -6.146,-2.789 -6.146,0.18 C -6.146,2.174 -4.242,3.283 -2.414,3.283 C -1.514,3.283 -0.629,3.058 0.135,2.609 L 0,0 z" style="fill:#0c2e59;fill-opacity:1;fill-rule:nonzero;stroke:none" id="path28196"/>
        </g>
        <g id="g28198" transform="translate(345.3195,139.0811)">
          <path d="M 0,0 C 0,-2.713 0.195,-2.608 1.979,-2.908 L 1.979,-3.328 L -3.957,-3.328 L -3.957,-2.908 C -2.173,-2.608 -1.978,-2.713 -1.978,0 L -1.978,3.538 C -1.978,6.251 -2.173,6.146 -3.957,6.446 L -3.957,6.866 L 1.979,6.866 L 1.979,6.446 C 0.195,6.146 0,6.251 0,3.538 L 0,0 z" style="fill:#0c2e59;fill-opacity:1;fill-rule:nonzero;stroke:none" id="path28200"/>
        </g>
        <g id="g28202" transform="translate(353.23421,143.0537)">
          <path d="M 0,0 L 0.344,3.373 L 0.659,3.373 C 0.809,3.103 1.019,2.969 1.244,2.923 C 1.484,2.878 1.739,2.894 2.009,2.894 L 8.349,2.894 C 8.889,2.894 9.398,2.818 9.699,3.373 L 10.013,3.373 L 10.358,0 L 9.938,-0.075 C 9.339,2.053 8.23,2.263 6.161,2.263 L 6.161,-3.973 C 6.161,-6.686 6.356,-6.581 8.409,-6.881 L 8.409,-7.301 L 1.934,-7.301 L 1.934,-6.881 C 3.987,-6.581 4.182,-6.686 4.182,-3.973 L 4.182,2.263 C 2.114,2.263 1.034,2.053 0.419,-0.075 L 0,0 z" style="fill:#0c2e59;fill-opacity:1;fill-rule:nonzero;stroke:none" id="path28204"/>
        </g>
        <g id="g28206" transform="translate(375.19431,139.0811)">
          <path d="M 0,0 C 0,-2.038 -0.09,-2.728 2.174,-2.908 L 2.174,-3.328 L -4.152,-3.328 L -4.152,-2.908 C -2.173,-2.608 -1.979,-2.713 -1.979,0 L -1.979,0.69 L -3.657,4.093 C -4.332,5.456 -4.527,6.101 -6.191,6.446 L -6.191,6.866 L -0.989,6.866 L -0.989,6.446 C -2.039,6.176 -2.533,6.296 -1.664,4.468 L -0.36,1.724 L 0.45,3.373 C 1.724,5.967 1.454,6.101 0.12,6.446 L 0.12,6.866 L 4.482,6.866 L 4.482,6.446 C 3.208,6.176 2.593,5.862 1.979,4.737 L 0.27,1.574 L 0,1.004 L 0,0 z" style="fill:#0c2e59;fill-opacity:1;fill-rule:nonzero;stroke:none" id="path28208"/>
        </g>
      </g>
    </g>
  </g>
</svg>